<svg width="30" height="31" viewBox="0 0 30 31" fill="none" xmlns="http://www.w3.org/2000/svg">
<path fill-rule="evenodd" clip-rule="evenodd" d="M3.7099e-07 3.48929C3.7099e-07 2.82456 0.264063 2.18705 0.734097 1.71701C1.20413 1.24698 1.84163 0.982913 2.50636 0.982913H27.4909C27.8203 0.982375 28.1466 1.04682 28.4511 1.17255C28.7556 1.29828 29.0323 1.48284 29.2653 1.71565C29.4984 1.94846 29.6833 2.22495 29.8093 2.5293C29.9354 2.83364 30.0002 3.15987 30 3.48929V28.4739C30.0004 28.8034 29.9357 29.1297 29.8099 29.4342C29.684 29.7387 29.4993 30.0154 29.2664 30.2484C29.0335 30.4815 28.7569 30.6663 28.4525 30.7924C28.148 30.9184 27.8218 30.9832 27.4923 30.983H2.50636C2.17711 30.983 1.85108 30.9182 1.5469 30.7921C1.24273 30.6661 0.96637 30.4813 0.733615 30.2484C0.50086 30.0156 0.316271 29.7391 0.190394 29.4349C0.0645181 29.1306 -0.000178767 28.8046 3.7099e-07 28.4753V3.48929ZM11.8745 12.4211H15.9368V14.4611C16.5232 13.2884 18.0232 12.233 20.2773 12.233C24.5986 12.233 25.6227 14.5689 25.6227 18.8548V26.7939H21.2495V19.8312C21.2495 17.3903 20.6632 16.013 19.1741 16.013C17.1082 16.013 16.2491 17.498 16.2491 19.8312V26.7939H11.8745V12.4211ZM4.37455 26.6071H8.74909V12.233H4.37455V26.6057V26.6071ZM9.375 7.54476C9.38325 7.91931 9.3166 8.29174 9.17896 8.64019C9.04133 8.98864 8.83548 9.30609 8.5735 9.5739C8.31152 9.84171 7.99868 10.0545 7.65335 10.1998C7.30802 10.3451 6.93714 10.4199 6.5625 10.4199C6.18786 10.4199 5.81698 10.3451 5.47165 10.1998C5.12632 10.0545 4.81348 9.84171 4.5515 9.5739C4.28952 9.30609 4.08367 8.98864 3.94604 8.64019C3.8084 8.29174 3.74175 7.91931 3.75 7.54476C3.76619 6.80956 4.06962 6.10992 4.5953 5.59569C5.12098 5.08145 5.82712 4.7935 6.5625 4.7935C7.29788 4.7935 8.00402 5.08145 8.5297 5.59569C9.05538 6.10992 9.35881 6.80956 9.375 7.54476Z" fill="white"/>
</svg>
