<svg width="37" height="31" viewBox="0 0 37 31" fill="none" xmlns="http://www.w3.org/2000/svg">
<path d="M36.9033 4.54144C35.5462 5.14279 34.0883 5.5491 32.5557 5.73276C34.1371 4.78652 35.3202 3.29725 35.8842 1.54284C34.3985 2.42534 32.7724 3.04652 31.0767 3.37938C29.9364 2.16185 28.426 1.35484 26.78 1.08366C25.1341 0.812486 23.4446 1.09231 21.974 1.87968C20.5033 2.66706 19.3338 3.91793 18.6469 5.43811C17.96 6.95828 17.7943 8.66269 18.1753 10.2867C15.1648 10.1356 12.2198 9.3531 9.53124 7.99009C6.84272 6.62707 4.47084 4.71398 2.56954 2.37497C1.91944 3.4964 1.54563 4.79661 1.54563 6.18133C1.5449 7.4279 1.85188 8.65537 2.43932 9.75484C3.02677 10.8543 3.87652 11.7918 4.91318 12.4841C3.71093 12.4458 2.53521 12.121 1.48387 11.5366V11.6341C1.48375 13.3824 2.08852 15.077 3.19557 16.4302C4.30262 17.7834 5.84376 18.712 7.55748 19.0583C6.4422 19.3601 5.27291 19.4045 4.13792 19.1883C4.62144 20.6926 5.56327 22.0081 6.83158 22.9506C8.09989 23.8931 9.63118 24.4154 11.2111 24.4444C8.52912 26.5497 5.21692 27.6918 1.80729 27.6867C1.20332 27.6869 0.599847 27.6516 0 27.5811C3.46096 29.8064 7.48977 30.9874 11.6044 30.9828C25.5329 30.9828 33.1473 19.4467 33.1473 9.4416C33.1473 9.11655 33.1391 8.78824 33.1245 8.46319C34.6056 7.39211 35.8841 6.06577 36.9 4.54632L36.9033 4.54144Z" fill="white"/>
</svg>
