<svg width="32" height="24" viewBox="0 0 32 24" fill="none" xmlns="http://www.w3.org/2000/svg">
<path d="M29.9248 0.0103694C29.7906 -0.00345646 29.6554 -0.00345646 29.5212 0.0103694H1.95873C1.78208 0.0130913 1.6066 0.0395791 1.43701 0.0891193L15.6612 14.2543L29.9248 0.0103694Z" fill="white"/>
<path d="M31.3818 1.37866L17.0493 15.6521C16.6804 16.0188 16.1815 16.2246 15.6613 16.2246C15.1412 16.2246 14.6423 16.0188 14.2734 15.6521L0.068906 1.48694C0.0252387 1.64744 0.00208557 1.81282 0 1.97913V21.6666C0 22.1888 0.207421 22.6895 0.576631 23.0587C0.945842 23.428 1.4466 23.6354 1.96874 23.6354H29.5311C30.0533 23.6354 30.554 23.428 30.9232 23.0587C31.2925 22.6895 31.4999 22.1888 31.4999 21.6666V1.97913C31.492 1.77404 31.4522 1.57144 31.3818 1.37866ZM3.31733 21.6666H1.94906V20.259L9.10543 13.1616L10.4934 14.5496L3.31733 21.6666ZM29.5114 21.6666H28.1333L20.9573 14.5496L22.3452 13.1616L29.5016 20.259L29.5114 21.6666Z" fill="white"/>
</svg>
