<svg width="59" height="58" viewBox="0 0 59 58" fill="none" xmlns="http://www.w3.org/2000/svg">
<path fill-rule="evenodd" clip-rule="evenodd" d="M0.712922 4.79795C0.712922 3.52552 1.21718 2.30521 2.11477 1.40547C3.01235 0.505721 4.22974 0.000250537 5.49912 0.000250537H53.21C53.8391 -0.000779355 54.4622 0.122576 55.0436 0.363254C55.6251 0.603932 56.1534 0.957206 56.5985 1.40285C57.0436 1.8485 57.3966 2.37776 57.6373 2.96034C57.878 3.54292 58.0018 4.16737 58.0014 4.79795V52.6236C58.0021 53.2543 57.8787 53.8789 57.6383 54.4618C57.398 55.0447 57.0453 55.5743 56.6005 56.0204C56.1557 56.4665 55.6276 56.8203 55.0462 57.0616C54.4649 57.3028 53.8418 57.4269 53.2126 57.4265H5.49912C4.87037 57.4265 4.24777 57.3023 3.66692 57.0611C3.08606 56.8198 2.55832 56.4662 2.11384 56.0204C1.66937 55.5746 1.31688 55.0454 1.0765 54.463C0.836126 53.8806 0.71258 53.2565 0.712922 52.6262V4.79795ZM23.3888 21.8953H31.1461V25.8003C32.2659 23.5555 35.1303 21.5351 39.4347 21.5351C47.6869 21.5351 49.6425 26.0065 49.6425 34.2106V49.4077H41.2914V36.0796C41.2914 31.4072 40.1717 28.7708 37.3281 28.7708C33.383 28.7708 31.7425 31.6134 31.7425 36.0796V49.4077H23.3888V21.8953ZM9.06663 49.0501H17.4203V21.5351H9.06663V49.0475V49.0501ZM18.6156 12.5609C18.6313 13.2779 18.5041 13.9908 18.2412 14.6578C17.9784 15.3248 17.5853 15.9325 17.085 16.4451C16.5847 16.9578 15.9873 17.3651 15.3279 17.6432C14.6684 17.9213 13.9602 18.0645 13.2448 18.0645C12.5294 18.0645 11.8211 17.9213 11.1617 17.6432C10.5022 17.3651 9.90483 16.9578 9.40455 16.4451C8.90426 15.9325 8.51117 15.3248 8.24834 14.6578C7.98551 13.9908 7.85823 13.2779 7.87398 12.5609C7.9049 11.1536 8.48433 9.81438 9.48818 8.83002C10.492 7.84567 11.8405 7.29448 13.2448 7.29448C14.6491 7.29448 15.9975 7.84567 17.0014 8.83002C18.0052 9.81438 18.5847 11.1536 18.6156 12.5609Z" fill="#F41971"/>
</svg>
