<svg width="72" height="58" viewBox="0 0 72 58" fill="none" xmlns="http://www.w3.org/2000/svg">
<path d="M71.1723 6.81186C68.5807 7.96297 65.7968 8.74075 62.8701 9.09231C65.8899 7.28099 68.1492 4.4302 69.2263 1.07187C66.3891 2.76117 63.2839 3.95025 60.0458 4.58742C57.8682 2.25678 54.9839 0.711991 51.8408 0.192896C48.6976 -0.3262 45.4714 0.209439 42.6631 1.71665C39.8547 3.22386 37.6214 5.61832 36.3097 8.52827C34.998 11.4382 34.6815 14.7009 35.4092 17.8096C29.6603 17.5203 24.0363 16.0225 18.9023 13.4133C13.7683 10.8042 9.23888 7.14214 5.60813 2.66475C4.36668 4.81142 3.65284 7.30031 3.65284 9.95097C3.65146 12.3372 4.23767 14.6868 5.35946 16.7915C6.48126 18.8961 8.10395 20.6906 10.0836 22.0159C7.78773 21.9426 5.54256 21.3208 3.53491 20.2021V20.3887C3.53468 23.7355 4.68956 26.9793 6.80359 29.5696C8.91763 32.16 11.8606 33.9374 15.1332 34.6003C13.0034 35.1781 10.7705 35.2632 8.60313 34.8492C9.52645 37.7289 11.325 40.247 13.747 42.0512C16.169 43.8553 19.0931 44.8551 22.1101 44.9105C16.9886 48.9407 10.6636 51.1268 4.15253 51.1172C2.99916 51.1175 1.84677 51.05 0.701294 50.915C7.3104 55.1746 15.0039 57.4353 22.8612 57.4265C49.4593 57.4265 63.9998 35.3439 63.9998 16.1919C63.9998 15.5696 63.9843 14.9412 63.9563 14.319C66.7847 12.2687 69.226 9.72976 71.1661 6.8212L71.1723 6.81186Z" fill="#F41971"/>
</svg>
