<svg width="58" height="58" viewBox="0 0 58 58" fill="none" xmlns="http://www.w3.org/2000/svg">
<path d="M55.7022 3.05176e-05H2.99674C1.72923 3.05176e-05 0.7052 1.02653 0.7052 2.29709V55.1295C0.7052 56.4 1.72923 57.4265 2.99674 57.4265H55.7022C56.9697 57.4265 57.9937 56.4 57.9937 55.1295V2.29709C57.9937 1.02653 56.9697 3.05176e-05 55.7022 3.05176e-05ZM49.0853 16.7614H44.5094C40.9217 16.7614 40.2271 18.4698 40.2271 20.9822V26.5167H48.7917L47.6746 35.1809H40.2271V57.4265H31.2973V35.1881H23.8283V26.5167H31.2973V20.128C31.2973 12.7128 35.8159 8.67143 42.4184 8.67143C45.5836 8.67143 48.2976 8.90832 49.0925 9.01599V16.7614H49.0853Z" fill="#F41971"/>
</svg>
