<svg width="58" height="58" viewBox="0 0 58 58" fill="none" xmlns="http://www.w3.org/2000/svg">
<path d="M29.3462 19.1381C24.0864 19.1381 19.794 23.4408 19.794 28.7133C19.794 33.9857 24.0864 38.2884 29.3462 38.2884C34.6059 38.2884 38.8983 33.9857 38.8983 28.7133C38.8983 23.4408 34.6059 19.1381 29.3462 19.1381ZM57.9954 28.7133C57.9954 24.7482 58.0313 20.819 57.8091 16.8611C57.587 12.2638 56.5408 8.18379 53.1871 4.82207C49.8263 1.45317 45.7632 0.411607 41.1771 0.188929C37.2215 -0.0337488 33.3017 0.00216711 29.3533 0.00216711C25.3977 0.00216711 21.478 -0.0337488 17.5296 0.188929C12.9434 0.411607 8.87317 1.46035 5.51953 4.82207C2.15872 8.19098 1.11966 12.2638 0.897521 16.8611C0.675378 20.8262 0.711207 24.7554 0.711207 28.7133C0.711207 32.6712 0.675378 36.6076 0.897521 40.5655C1.11966 45.1627 2.16589 49.2428 5.51953 52.6045C8.88034 55.9734 12.9434 57.015 17.5296 57.2376C21.4852 57.4603 25.4049 57.4244 29.3533 57.4244C33.3089 57.4244 37.2286 57.4603 41.1771 57.2376C45.7632 57.015 49.8335 55.9662 53.1871 52.6045C56.5479 49.2356 57.587 45.1627 57.8091 40.5655C58.0384 36.6076 57.9954 32.6784 57.9954 28.7133ZM29.3462 43.446C21.2129 43.446 14.6489 36.8662 14.6489 28.7133C14.6489 20.5604 21.2129 13.9806 29.3462 13.9806C37.4795 13.9806 44.0434 20.5604 44.0434 28.7133C44.0434 36.8662 37.4795 43.446 29.3462 43.446ZM44.6454 16.818C42.7464 16.818 41.2129 15.2808 41.2129 13.3772C41.2129 11.4737 42.7464 9.93649 44.6454 9.93649C46.5443 9.93649 48.0778 11.4737 48.0778 13.3772C48.0784 13.8292 47.99 14.2769 47.8177 14.6946C47.6454 15.1123 47.3926 15.4918 47.0737 15.8115C46.7549 16.1311 46.3763 16.3845 45.9596 16.5572C45.5429 16.7299 45.0963 16.8185 44.6454 16.818Z" fill="#F41971"/>
</svg>
