<svg width="65" height="50" viewBox="0 0 65 50" fill="none" xmlns="http://www.w3.org/2000/svg">
<path d="M61.3733 0.999202C61.1 0.970969 60.8245 0.970969 60.5512 0.999202H4.40194C4.04207 1.00476 3.68458 1.05885 3.33911 1.16001L32.3161 30.0862L61.3733 0.999202Z" fill="#F41971"/>
<path d="M64.3411 3.79276L35.1435 32.9401C34.392 33.6888 33.3755 34.1091 32.316 34.1091C31.2564 34.1091 30.2399 33.6888 29.4884 32.9401L0.551506 4.01387C0.462548 4.34161 0.415381 4.67933 0.411133 5.01895V45.2221C0.411133 46.2884 0.833684 47.311 1.58583 48.0649C2.33797 48.8189 3.3581 49.2425 4.4218 49.2425H60.5711C61.6348 49.2425 62.6549 48.8189 63.407 48.0649C64.1592 47.311 64.5817 46.2884 64.5817 45.2221V5.01895C64.5658 4.60015 64.4846 4.18642 64.3411 3.79276ZM7.1691 45.2221H4.38169V42.3476L18.9604 27.8544L21.788 30.6887L7.1691 45.2221ZM60.531 45.2221H57.7235L43.1046 30.6887L45.9322 27.8544L60.5109 42.3476L60.531 45.2221Z" fill="#F41971"/>
</svg>
