<svg width="63" height="63" viewBox="0 0 63 63" fill="none" xmlns="http://www.w3.org/2000/svg">
<path d="M63 31.5C63 25.2699 61.1526 19.1797 57.6913 13.9995C54.23 8.8194 49.3104 4.78197 43.5545 2.39781C37.7987 0.0136484 31.4651 -0.610156 25.3547 0.605278C19.2443 1.82071 13.6315 4.8208 9.22615 9.22615C4.8208 13.6315 1.82071 19.2443 0.605278 25.3547C-0.610156 31.4651 0.0136484 37.7987 2.39781 43.5545C4.78197 49.3104 8.8194 54.23 13.9995 57.6913C19.1797 61.1526 25.2699 63 31.5 63C39.8543 63 47.8665 59.6813 53.7739 53.7739C59.6813 47.8665 63 39.8543 63 31.5ZM25.641 43.1235L16.632 33.6735C16.4987 33.5368 16.3919 33.3766 16.317 33.201C16.1832 33.0528 16.0766 32.8822 16.002 32.697C15.8354 32.32 15.7493 31.9123 15.7493 31.5C15.7493 31.0878 15.8354 30.6801 16.002 30.303C16.1519 29.9163 16.3767 29.5631 16.6635 29.2635L26.1135 19.8135C26.7067 19.2204 27.5112 18.8871 28.35 18.8871C29.1889 18.8871 29.9934 19.2204 30.5865 19.8135C31.1797 20.4067 31.5129 21.2112 31.5129 22.05C31.5129 22.8889 31.1797 23.6934 30.5865 24.2865L26.4915 28.35H44.1C44.9354 28.35 45.7367 28.6819 46.3274 29.2726C46.9181 29.8634 47.25 30.6646 47.25 31.5C47.25 32.3354 46.9181 33.1367 46.3274 33.7274C45.7367 34.3181 44.9354 34.65 44.1 34.65H26.271L30.2085 38.7765C30.785 39.3822 31.0972 40.1921 31.0765 41.028C31.0558 41.8639 30.7039 42.6573 30.0983 43.2338C29.4926 43.8102 28.6827 44.1224 27.8468 44.1018C27.0109 44.0811 26.2175 43.7292 25.641 43.1235Z" fill="#ADEB00"/>
</svg>
