<svg width="31" height="29" viewBox="0 0 31 29" fill="none" xmlns="http://www.w3.org/2000/svg">
<path d="M4.61658 2.80609C4.61658 2.30028 4.81668 1.81519 5.17286 1.45752C5.52903 1.09986 6.01212 0.898926 6.51583 0.898926H15.2258C15.7295 0.899034 16.2125 1.10004 16.5686 1.45773L29.8633 14.8079C30.2194 15.1656 30.4194 15.6506 30.4194 16.1563C30.4194 16.662 30.2194 17.147 29.8633 17.5046L21.1534 26.2509C20.7972 26.6085 20.3142 26.8093 19.8106 26.8093C19.307 26.8093 18.824 26.6085 18.4678 26.2509L5.17306 12.9007C4.81685 12.5432 4.61668 12.0581 4.61658 11.5524V2.80609ZM11.264 10.4348C12.0195 10.4348 12.7442 10.1334 13.2784 9.59687C13.8127 9.06038 14.1128 8.33273 14.1128 7.57401C14.1128 6.8153 13.8127 6.08765 13.2784 5.55116C12.7442 5.01466 12.0195 4.71326 11.264 4.71326C10.5084 4.71326 9.78377 5.01466 9.2495 5.55116C8.71523 6.08765 8.41508 6.8153 8.41508 7.57401C8.41508 8.33273 8.71523 9.06038 9.2495 9.59687C9.78377 10.1334 10.5084 10.4348 11.264 10.4348Z" fill="#98D800"/>
<path d="M3.2736 13.854C2.9174 13.4964 2.71723 13.0114 2.71712 12.5056V2.80579C2.21341 2.80579 1.73033 3.00672 1.37415 3.36438C1.01797 3.72205 0.817871 4.20714 0.817871 4.71295L0.817871 13.4592C0.817979 13.965 1.01815 14.45 1.37435 14.8076L14.6691 28.1578C15.0253 28.5153 15.5083 28.7162 16.0119 28.7162C16.5155 28.7162 16.9985 28.5153 17.3546 28.1578L17.4363 28.0758L3.2736 13.854Z" fill="#98D800"/>
</svg>
