<svg width="63" height="63" viewBox="0 0 63 63" fill="none" xmlns="http://www.w3.org/2000/svg">
<path d="M0 31.5C0 37.7301 1.84745 43.8203 5.30871 49.0005C8.76997 54.1806 13.6896 58.218 19.4455 60.6022C25.2013 62.9864 31.5349 63.6102 37.6453 62.3947C43.7557 61.1793 49.3685 58.1792 53.7739 53.7739C58.1792 49.3685 61.1793 43.7557 62.3947 37.6453C63.6102 31.5349 62.9864 25.2013 60.6022 19.4455C58.218 13.6896 54.1806 8.76997 49.0005 5.30871C43.8203 1.84745 37.7301 0 31.5 0C23.1457 0 15.1335 3.31874 9.22614 9.22614C3.31874 15.1335 0 23.1457 0 31.5ZM37.359 19.8765L46.368 29.3265C46.5013 29.4632 46.6081 29.6234 46.683 29.799C46.8168 29.9472 46.9234 30.1178 46.998 30.303C47.1646 30.68 47.2507 31.0877 47.2507 31.5C47.2507 31.9122 47.1646 32.3199 46.998 32.697C46.8481 33.0837 46.6233 33.4369 46.3365 33.7365L36.8865 43.1865C36.2933 43.7796 35.4888 44.1129 34.65 44.1129C33.8111 44.1129 33.0066 43.7796 32.4135 43.1865C31.8203 42.5933 31.4871 41.7888 31.4871 40.95C31.4871 40.1111 31.8203 39.3066 32.4135 38.7135L36.5085 34.65L18.9 34.65C18.0646 34.65 17.2633 34.3181 16.6726 33.7274C16.0819 33.1366 15.75 32.3354 15.75 31.5C15.75 30.6646 16.0819 29.8633 16.6726 29.2726C17.2633 28.6819 18.0646 28.35 18.9 28.35L36.729 28.35L32.7915 24.2235C32.215 23.6178 31.9028 22.8079 31.9235 21.972C31.9442 21.1361 32.2961 20.3427 32.9017 19.7662C33.5074 19.1898 34.3173 18.8776 35.1532 18.8982C35.9891 18.9189 36.7825 19.2708 37.359 19.8765Z" fill="#ADEB00"/>
</svg>
