<svg width="58" height="58" viewBox="0 0 58 58" fill="none" xmlns="http://www.w3.org/2000/svg">
<path fill-rule="evenodd" clip-rule="evenodd" d="M7.0845e-07 4.79771C7.0845e-07 3.52528 0.504259 2.30497 1.40184 1.40522C2.29943 0.505477 3.51682 6.39602e-06 4.7862 6.39602e-06H52.4971C53.1262 -0.0010235 53.7493 0.122332 54.3307 0.36301C54.9121 0.603688 55.4405 0.956962 55.8856 1.40261C56.3306 1.84825 56.6836 2.37752 56.9244 2.9601C57.1651 3.54268 57.2888 4.16713 57.2885 4.79771V52.6233C57.2892 53.254 57.1658 53.8787 56.9254 54.4616C56.685 55.0444 56.3324 55.574 55.8876 56.0201C55.4428 56.4662 54.9146 56.82 54.3333 57.0613C53.752 57.3026 53.1289 57.4266 52.4997 57.4263H4.7862C4.15744 57.4263 3.53485 57.3021 2.954 57.0608C2.37314 56.8195 1.8454 56.4659 1.40092 56.0201C0.95645 55.5744 0.603956 55.0451 0.36358 54.4628C0.123205 53.8804 -0.000341376 53.2562 7.0845e-07 52.626V4.79771ZM22.6758 21.8951H30.4332V25.8001C31.5529 23.5552 34.4174 21.5349 38.7218 21.5349C46.974 21.5349 48.9296 26.0063 48.9296 34.2104V49.4075H40.5785V36.0794C40.5785 31.407 39.4588 28.7706 36.6152 28.7706C32.6701 28.7706 31.0295 31.6132 31.0295 36.0794V49.4075H22.6758V21.8951ZM8.35371 49.0499H16.7074V21.5349H8.35371V49.0473V49.0499ZM17.9027 12.5607C17.9184 13.2777 17.7911 13.9906 17.5283 14.6576C17.2655 15.3246 16.8724 15.9322 16.3721 16.4449C15.8718 16.9575 15.2744 17.3649 14.615 17.6429C13.9555 17.921 13.2473 18.0643 12.5319 18.0643C11.8164 18.0643 11.1082 17.921 10.4488 17.6429C9.78931 17.3649 9.19191 16.9575 8.69163 16.4449C8.19134 15.9322 7.79825 15.3246 7.53542 14.6576C7.27259 13.9906 7.14531 13.2777 7.16106 12.5607C7.19198 11.1534 7.77141 9.81413 8.77526 8.82978C9.77911 7.84543 11.1276 7.29423 12.5319 7.29423C13.9361 7.29423 15.2846 7.84543 16.2885 8.82978C17.2923 9.81413 17.8717 11.1534 17.9027 12.5607V12.5607Z" fill="#00C3F7"/>
</svg>
