<svg width="71" height="58" viewBox="0 0 71 58" fill="none" xmlns="http://www.w3.org/2000/svg">
<path d="M70.471 6.81183C67.8794 7.96294 65.0955 8.74072 62.1688 9.09228C65.1886 7.28096 67.4479 4.43017 68.525 1.07183C65.6878 2.76113 62.5826 3.95022 59.3445 4.58739C57.1669 2.25675 54.2826 0.711961 51.1395 0.192865C47.9963 -0.32623 44.7701 0.209408 41.9618 1.71662C39.1534 3.22383 36.9201 5.61829 35.6084 8.52824C34.2967 11.4382 33.9802 14.7008 34.7079 17.8096C28.959 17.5203 23.335 16.0224 18.201 13.4133C13.067 10.8042 8.53759 7.14211 4.90684 2.66472C3.66538 4.81139 2.95155 7.30028 2.95155 9.95094C2.95017 12.3371 3.53638 14.6868 4.65817 16.7914C5.77996 18.8961 7.40265 20.6906 9.38227 22.0158C7.08644 21.9426 4.84127 21.3208 2.83361 20.202V20.3887C2.83338 23.7355 3.98826 26.9792 6.1023 29.5696C8.21634 32.16 11.1593 33.9374 14.4319 34.6003C12.3021 35.178 10.0692 35.2632 7.90184 34.8492C8.82516 37.7288 10.6237 40.247 13.0457 42.0511C15.4677 43.8553 18.3918 44.855 21.4088 44.9105C16.2873 48.9407 9.9623 51.1268 3.45123 51.1171C2.29787 51.1175 1.14548 51.0499 0 50.9149C6.6091 55.1746 14.3026 57.4353 22.1599 57.4265C48.758 57.4265 63.2985 35.3438 63.2985 16.1918C63.2985 15.5696 63.283 14.9412 63.255 14.3189C66.0834 12.2686 68.5247 9.72973 70.4648 6.82117L70.471 6.81183V6.81183Z" fill="#98D800"/>
</svg>
