<svg width="28" height="28" viewBox="0 0 28 28" fill="none" xmlns="http://www.w3.org/2000/svg">
<path d="M23.2648 2.89901H20.5734V1.54771C20.5734 1.18932 20.4317 0.845615 20.1793 0.592198C19.9269 0.33878 19.5847 0.196411 19.2278 0.196411C18.8709 0.196411 18.5286 0.33878 18.2762 0.592198C18.0238 0.845615 17.8821 1.18932 17.8821 1.54771V2.89901H9.80791V1.54771C9.80791 1.18932 9.66613 0.845615 9.41376 0.592198C9.1614 0.33878 8.81912 0.196411 8.46222 0.196411C8.10532 0.196411 7.76303 0.33878 7.51067 0.592198C7.2583 0.845615 7.11652 1.18932 7.11652 1.54771V2.89901H4.42514C3.35444 2.89901 2.32759 3.32612 1.57049 4.08637C0.813395 4.84662 0.388062 5.87775 0.388062 6.95291V23.1685C0.388062 24.2437 0.813395 25.2748 1.57049 26.035C2.32759 26.7953 3.35444 27.2224 4.42514 27.2224H23.2648C24.3355 27.2224 25.3624 26.7953 26.1195 26.035C26.8766 25.2748 27.3019 24.2437 27.3019 23.1685V6.95291C27.3019 5.87775 26.8766 4.84662 26.1195 4.08637C25.3624 3.32612 24.3355 2.89901 23.2648 2.89901ZM24.6105 23.1685C24.6105 23.5269 24.4687 23.8706 24.2164 24.124C23.964 24.3774 23.6217 24.5198 23.2648 24.5198H4.42514C4.06824 24.5198 3.72596 24.3774 3.47359 24.124C3.22122 23.8706 3.07945 23.5269 3.07945 23.1685V13.7094H24.6105V23.1685ZM24.6105 11.0068H3.07945V6.95291C3.07945 6.59452 3.22122 6.25081 3.47359 5.9974C3.72596 5.74398 4.06824 5.60161 4.42514 5.60161H7.11652V6.95291C7.11652 7.3113 7.2583 7.655 7.51067 7.90842C7.76303 8.16184 8.10532 8.30421 8.46222 8.30421C8.81912 8.30421 9.1614 8.16184 9.41376 7.90842C9.66613 7.655 9.80791 7.3113 9.80791 6.95291V5.60161H17.8821V6.95291C17.8821 7.3113 18.0238 7.655 18.2762 7.90842C18.5286 8.16184 18.8709 8.30421 19.2278 8.30421C19.5847 8.30421 19.9269 8.16184 20.1793 7.90842C20.4317 7.655 20.5734 7.3113 20.5734 6.95291V5.60161H23.2648C23.6217 5.60161 23.964 5.74398 24.2164 5.9974C24.4687 6.25081 24.6105 6.59452 24.6105 6.95291V11.0068Z" fill="#98D800"/>
</svg>
