<svg width="673" height="497" viewBox="0 0 673 497" fill="none" xmlns="http://www.w3.org/2000/svg">
<path d="M672.699 183.715H390.326V192.018H672.699V183.715Z" fill="#E6E6E6"/>
<path d="M485.203 114.272H413.668V185.979H485.203V114.272Z" fill="#E6E6E6"/>
<path d="M470.896 128.614H427.975V171.638H470.896V128.614Z" fill="#CCCCCC"/>
<path d="M592.129 114.272H574.057V185.979H592.129V114.272Z" fill="#E6E6E6"/>
<path d="M592.129 125.594H574.057V133.897H592.129V125.594Z" fill="#CCCCCC"/>
<path d="M592.129 161.825H574.057V170.128H592.129V161.825Z" fill="#CCCCCC"/>
<path d="M564.268 114.272H546.197V185.979H564.268V114.272Z" fill="#E6E6E6"/>
<path d="M564.268 125.594H546.197V133.897H564.268V125.594Z" fill="#CCCCCC"/>
<path d="M564.268 161.825H546.197V170.128H564.268V161.825Z" fill="#CCCCCC"/>
<path d="M607.7 113.976L591.504 122.014L623.243 186.276L639.439 178.238L607.7 113.976Z" fill="#E6E6E6"/>
<path d="M612.711 124.123L596.515 132.16L600.19 139.601L616.386 131.564L612.711 124.123Z" fill="#CCCCCC"/>
<path d="M628.748 156.592L612.552 164.63L616.227 172.071L632.423 164.033L628.748 156.592Z" fill="#CCCCCC"/>
<path d="M440.399 143.056L449.501 158.856L458.601 174.657H440.399H422.198L431.299 158.856L440.399 143.056Z" fill="#E6E6E6"/>
<path d="M456.213 146.075L465.313 161.875L474.414 177.676H456.213H438.011L447.112 161.875L456.213 146.075Z" fill="#E6E6E6"/>
<path d="M462.613 141.446C465.524 141.446 467.884 139.08 467.884 136.162C467.884 133.244 465.524 130.878 462.613 130.878C459.702 130.878 457.342 133.244 457.342 136.162C457.342 139.08 459.702 141.446 462.613 141.446Z" fill="#E6E6E6"/>
<path d="M390.326 78.0415L672.699 78.0415V69.7386L390.326 69.7386V78.0415Z" fill="#E6E6E6"/>
<path d="M577.821 72.0032L649.356 72.0032V0.296448L577.821 0.296448V72.0032Z" fill="#E6E6E6"/>
<path d="M592.129 57.6619L635.049 57.6619V14.6378L592.129 14.6378V57.6619Z" fill="#CCCCCC"/>
<path d="M470.896 72.0032H488.968V0.296448H470.896V72.0032Z" fill="#E6E6E6"/>
<path d="M470.896 19.9219L488.968 19.9219V11.619L470.896 11.619V19.9219Z" fill="#CCCCCC"/>
<path d="M470.896 56.1523H488.968V47.8495H470.896V56.1523Z" fill="#CCCCCC"/>
<path d="M498.757 72.0032H516.829V0.296448H498.757V72.0032Z" fill="#E6E6E6"/>
<path d="M498.757 19.9219L516.829 19.9219V11.619L498.757 11.619V19.9219Z" fill="#CCCCCC"/>
<path d="M498.757 56.1523H516.829V47.8495H498.757V56.1523Z" fill="#CCCCCC"/>
<path d="M423.586 64.2619L439.782 72.2996L471.521 8.03741L455.325 -0.000205665L423.586 64.2619Z" fill="#E6E6E6"/>
<path d="M446.639 17.5876L462.834 25.6252L466.51 18.1844L450.314 10.1467L446.639 17.5876Z" fill="#CCCCCC"/>
<path d="M430.602 50.0569L446.798 58.0945L450.473 50.6536L434.277 42.616L430.602 50.0569Z" fill="#CCCCCC"/>
<path d="M622.625 29.0796L613.524 44.8803L604.424 60.6811H622.625H640.827L631.726 44.8803L622.625 29.0796Z" fill="#E6E6E6"/>
<path d="M606.812 32.0986L597.711 47.8994L588.611 63.7001H606.812H625.014L615.913 47.8994L606.812 32.0986Z" fill="#E6E6E6"/>
<path d="M600.412 27.4696C603.323 27.4696 605.683 25.1041 605.683 22.186C605.683 19.2679 603.323 16.9023 600.412 16.9023C597.501 16.9023 595.141 19.2679 595.141 22.186C595.141 25.1041 597.501 27.4696 600.412 27.4696Z" fill="#E6E6E6"/>
<path d="M390.326 305.994L672.699 305.994V297.691L390.326 297.691V305.994Z" fill="#E6E6E6"/>
<path d="M577.821 299.956H649.356V228.249H577.821V299.956Z" fill="#E6E6E6"/>
<path d="M592.129 285.614H635.049V242.59H592.129V285.614Z" fill="#CCCCCC"/>
<path d="M470.896 299.956H488.968V228.249H470.896V299.956Z" fill="#E6E6E6"/>
<path d="M470.896 247.874H488.968V239.571H470.896V247.874Z" fill="#CCCCCC"/>
<path d="M470.896 284.104H488.968V275.801H470.896V284.104Z" fill="#CCCCCC"/>
<path d="M498.757 299.956H516.829V228.249H498.757V299.956Z" fill="#E6E6E6"/>
<path d="M498.757 247.874H516.829V239.571H498.757V247.874Z" fill="#CCCCCC"/>
<path d="M498.757 284.104H516.829V275.801H498.757V284.104Z" fill="#CCCCCC"/>
<path d="M423.586 292.214L439.782 300.252L471.521 235.99L455.325 227.952L423.586 292.214Z" fill="#E6E6E6"/>
<path d="M446.639 245.54L462.834 253.577L466.51 246.136L450.314 238.099L446.639 245.54Z" fill="#CCCCCC"/>
<path d="M430.602 278.009L446.798 286.046L450.473 278.606L434.277 270.568L430.602 278.009Z" fill="#CCCCCC"/>
<path d="M622.625 257.031L613.524 272.832L604.424 288.633H622.625H640.827L631.726 272.832L622.625 257.031Z" fill="#E6E6E6"/>
<path d="M606.812 260.051L597.711 275.852L588.611 291.653H606.812H625.014L615.913 275.852L606.812 260.051Z" fill="#E6E6E6"/>
<path d="M600.412 255.422C603.323 255.422 605.683 253.056 605.683 250.138C605.683 247.22 603.323 244.854 600.412 244.854C597.501 244.854 595.141 247.22 595.141 250.138C595.141 253.056 597.501 255.422 600.412 255.422Z" fill="#E6E6E6"/>
<path d="M333.556 496.143C517.266 496.143 666.193 485.541 666.193 472.462C666.193 459.383 517.266 448.78 333.556 448.78C149.846 448.78 0.919922 459.383 0.919922 472.462C0.919922 485.541 149.846 496.143 333.556 496.143Z" fill="#E6E6E6"/>
<path d="M593.428 485.724C539.189 476.047 479.877 477.655 417.66 485.724C446.018 461.726 470.492 437.729 442.134 413.732C497.449 425.171 505.197 424.013 566.729 413.732C552.457 437.729 579.156 461.726 593.428 485.724Z" fill="#FF6363"/>
<path opacity="0.2" d="M593.428 485.724C539.189 476.047 479.877 477.655 417.66 485.724C446.018 461.726 470.492 437.729 442.134 413.732C497.449 425.171 505.197 424.013 566.729 413.732C552.457 437.729 579.156 461.726 593.428 485.724Z" fill="#F41971"/>
<path d="M580.198 475.486C534.124 467.761 483.741 469.045 430.89 475.486C454.978 456.33 475.768 437.175 451.68 418.02C498.667 427.151 505.249 426.227 557.518 418.02C545.395 437.175 568.075 456.33 580.198 475.486Z" fill="#F41971"/>
<path d="M562.65 444.622C576.208 444.622 587.199 433.604 587.199 420.013C587.199 406.423 576.208 395.405 562.65 395.405C549.092 395.405 538.101 406.423 538.101 420.013C538.101 433.604 549.092 444.622 562.65 444.622Z" fill="#2F2E41"/>
<path d="M451.207 391.471L468.217 394.313L476.722 418.941L452.153 434.098L423.803 391.471H450.263H451.207Z" fill="#F8BBC4"/>
<path d="M499.402 429.362C521.322 429.362 539.092 411.549 539.092 389.577C539.092 367.604 521.322 349.792 499.402 349.792C477.483 349.792 459.713 367.604 459.713 389.577C459.713 411.549 477.483 429.362 499.402 429.362Z" fill="#F8BBC4"/>
<path d="M280.164 244.645C280.164 244.645 183.775 255.065 166.766 253.171C149.756 251.276 142.196 249.382 142.196 249.382C142.196 249.382 130.856 264.538 136.526 271.169C139.701 274.99 143.544 278.199 147.866 280.641C147.866 280.641 158.261 277.799 165.821 280.641C173.38 283.483 249.925 295.797 263.154 284.43C276.384 273.063 280.164 244.645 280.164 244.645Z" fill="#415167"/>
<path d="M286.78 455.885C286.78 455.885 223.466 437.887 212.126 358.317V350.739C212.126 350.739 199.598 372.769 195.116 377.262C189.919 382.472 171.491 429.362 172.436 434.098C173.381 438.834 172.436 440.729 172.436 440.729L145.031 437.887V429.362C145.031 429.362 159.679 385.314 160.624 374.894C161.569 364.474 197.006 292.008 197.006 292.008C197.006 292.008 210.236 264.538 232.916 292.008C255.595 319.479 257.485 338.424 257.485 338.424L286.78 395.26L286.78 455.885Z" fill="#415167"/>
<path d="M145.03 246.54L114.791 236.12C114.791 236.12 86.4411 215.28 93.056 236.12C99.6709 256.96 129.911 302.428 138.415 297.692C146.92 292.956 157.149 281.199 154.87 279.499C152.59 277.799 137.47 265.485 145.03 246.54Z" fill="#2F2E41"/>
<path d="M148.686 423.769L124.275 435.719C124.275 435.719 94.7549 440.272 111.218 448.808C127.681 457.344 173.097 466.449 175.368 458.482C177.638 450.515 176.737 437.293 174.349 437.644C171.961 437.996 155.498 439.703 148.686 423.769Z" fill="#2F2E41"/>
<path d="M274.494 393.366C274.494 393.366 262.209 446.412 282.999 457.78C303.789 469.147 449.317 471.041 460.657 450.201C471.997 429.362 466.327 429.362 466.327 429.362L436.087 395.26L460.657 393.366C460.657 393.366 460.657 385.788 452.152 384.84C443.647 383.893 417.188 374.42 394.508 381.051C371.828 387.682 358.598 367.79 358.598 367.79L274.494 393.366Z" fill="#00C3F7"/>
<path d="M258.429 227.594L242.364 315.69L352.929 302.428L372.773 222.858L258.429 227.594Z" fill="#3F3D56"/>
<path d="M261.737 230.91L248.507 309.532L349.148 297.692L368.52 226.174L261.737 230.91Z" fill="white"/>
<path d="M246.145 316.637L242.365 315.69L240.475 319.479L270.715 403.785L273.559 402.696L274.494 397.155L246.145 316.637Z" fill="#B3B3B3"/>
<path d="M242.364 314.742L272.604 402.838L386.948 385.787L352.929 302.428L242.364 314.742Z" fill="#D0CDE1"/>
<path d="M257.486 311.901V316.637L341.589 307.165L340.644 302.428L257.486 311.901Z" fill="#3F3D56"/>
<path d="M259.375 321.374L272.604 358.317L358.598 347.897L343.479 312.848L259.375 321.374Z" fill="#3F3D56"/>
<path d="M367.103 373.473L364.268 365.895C364.268 365.895 342.533 328.004 331.193 335.582C319.854 343.16 354.818 380.103 354.818 380.103H366.158L367.103 373.473Z" fill="#F8BBC4"/>
<path d="M295.284 379.157L292.449 367.789C292.449 367.789 284.889 332.741 298.119 334.635C311.349 336.53 315.129 369.684 315.129 369.684L314.184 377.262L295.284 379.157Z" fill="#F8BBC4"/>
<path d="M317.964 374.42C317.964 374.42 293.394 370.631 292.449 376.315C291.504 381.998 286.779 467.252 310.404 470.094C334.029 472.936 451.207 485.25 438.922 455.885C426.638 426.52 407.738 430.309 407.738 430.309L327.414 438.834L317.964 374.42Z" fill="#00C3F7"/>
<path d="M392.145 385.314L367.103 367.789L350.565 380.577L371.356 403.312L392.145 385.314Z" fill="#00C3F7"/>
<path opacity="0.2" d="M325.052 402.365L328.831 438.361L394.036 434.571L337.336 433.624L325.052 402.365Z" fill="black"/>
<path d="M518.994 444.168C545.089 444.168 566.244 422.963 566.244 396.805C566.244 370.647 545.089 349.442 518.994 349.442C492.899 349.442 471.745 370.647 471.745 396.805C471.745 422.963 492.899 444.168 518.994 444.168Z" fill="#2F2E41"/>
<path d="M275.913 258.38L334.502 256.336L340.172 234.699L279.693 236.528L275.913 258.38Z" fill="#ADEB00"/>
<path d="M260.793 270.695L349.621 267.853L350.566 264.064L261.738 267.199L260.793 270.695Z" fill="#E6E6E6"/>
<path d="M258.902 280.168L347.731 277.326L348.676 273.536L259.847 276.672L258.902 280.168Z" fill="#E6E6E6"/>
<path d="M257.957 287.745L346.786 284.904L347.731 281.115L258.902 284.249L257.957 287.745Z" fill="#E6E6E6"/>
</svg>
