<svg width="683" height="353" viewBox="0 0 683 353" fill="none" xmlns="http://www.w3.org/2000/svg">
<path d="M682.096 352.89H1.26847C1.02852 352.889 0.798632 352.793 0.629202 352.623C0.459773 352.453 0.364624 352.223 0.364624 351.982C0.364624 351.742 0.459773 351.512 0.629202 351.342C0.798632 351.172 1.02852 351.076 1.26847 351.075H682.096C682.336 351.076 682.566 351.172 682.735 351.342C682.905 351.512 683 351.742 683 351.982C683 352.223 682.905 352.453 682.735 352.623C682.566 352.793 682.336 352.889 682.096 352.89Z" fill="#3F3D56"/>
<path d="M213.795 44.4539C216.514 44.4539 218.718 42.2474 218.718 39.5255C218.718 36.8037 216.514 34.5972 213.795 34.5972C211.076 34.5972 208.872 36.8037 208.872 39.5255C208.872 42.2474 211.076 44.4539 213.795 44.4539Z" fill="#F2F2F2"/>
<path d="M194.174 44.4539C196.893 44.4539 199.097 42.2474 199.097 39.5255C199.097 36.8037 196.893 34.5972 194.174 34.5972C191.455 34.5972 189.251 36.8037 189.251 39.5255C189.251 42.2474 191.455 44.4539 194.174 44.4539Z" fill="#F2F2F2"/>
<path d="M174.553 44.4539C177.272 44.4539 179.476 42.2474 179.476 39.5255C179.476 36.8037 177.272 34.5972 174.553 34.5972C171.834 34.5972 169.63 36.8037 169.63 39.5255C169.63 42.2474 171.834 44.4539 174.553 44.4539Z" fill="#F2F2F2"/>
<path d="M154.931 44.4539C157.651 44.4539 159.855 42.2474 159.855 39.5255C159.855 36.8037 157.651 34.5972 154.931 34.5972C152.212 34.5972 150.008 36.8037 150.008 39.5255C150.008 42.2474 152.212 44.4539 154.931 44.4539Z" fill="#F2F2F2"/>
<path d="M213.795 65.0303C216.514 65.0303 218.718 62.8238 218.718 60.102C218.718 57.3801 216.514 55.1736 213.795 55.1736C211.076 55.1736 208.872 57.3801 208.872 60.102C208.872 62.8238 211.076 65.0303 213.795 65.0303Z" fill="#F2F2F2"/>
<path d="M194.174 65.0303C196.893 65.0303 199.097 62.8238 199.097 60.102C199.097 57.3801 196.893 55.1736 194.174 55.1736C191.455 55.1736 189.251 57.3801 189.251 60.102C189.251 62.8238 191.455 65.0303 194.174 65.0303Z" fill="#F2F2F2"/>
<path d="M174.553 65.0303C177.272 65.0303 179.476 62.8238 179.476 60.102C179.476 57.3801 177.272 55.1736 174.553 55.1736C171.834 55.1736 169.63 57.3801 169.63 60.102C169.63 62.8238 171.834 65.0303 174.553 65.0303Z" fill="#F2F2F2"/>
<path d="M154.931 65.0303C157.651 65.0303 159.855 62.8238 159.855 60.102C159.855 57.3801 157.651 55.1736 154.931 55.1736C152.212 55.1736 150.008 57.3801 150.008 60.102C150.008 62.8238 152.212 65.0303 154.931 65.0303Z" fill="#F2F2F2"/>
<path d="M213.795 85.607C216.514 85.607 218.718 83.4005 218.718 80.6786C218.718 77.9568 216.514 75.7502 213.795 75.7502C211.076 75.7502 208.872 77.9568 208.872 80.6786C208.872 83.4005 211.076 85.607 213.795 85.607Z" fill="#F2F2F2"/>
<path d="M194.174 85.607C196.893 85.607 199.097 83.4005 199.097 80.6786C199.097 77.9568 196.893 75.7502 194.174 75.7502C191.455 75.7502 189.251 77.9568 189.251 80.6786C189.251 83.4005 191.455 85.607 194.174 85.607Z" fill="#F2F2F2"/>
<path d="M174.553 85.607C177.272 85.607 179.476 83.4005 179.476 80.6786C179.476 77.9568 177.272 75.7502 174.553 75.7502C171.834 75.7502 169.63 77.9568 169.63 80.6786C169.63 83.4005 171.834 85.607 174.553 85.607Z" fill="#F2F2F2"/>
<path d="M154.931 85.607C157.651 85.607 159.855 83.4005 159.855 80.6786C159.855 77.9568 157.651 75.7502 154.931 75.7502C152.212 75.7502 150.008 77.9568 150.008 80.6786C150.008 83.4005 152.212 85.607 154.931 85.607Z" fill="#F2F2F2"/>
<path d="M213.795 106.183C216.514 106.183 218.718 103.977 218.718 101.255C218.718 98.5332 216.514 96.3267 213.795 96.3267C211.076 96.3267 208.872 98.5332 208.872 101.255C208.872 103.977 211.076 106.183 213.795 106.183Z" fill="#F2F2F2"/>
<path d="M194.174 106.183C196.893 106.183 199.097 103.977 199.097 101.255C199.097 98.5332 196.893 96.3267 194.174 96.3267C191.455 96.3267 189.251 98.5332 189.251 101.255C189.251 103.977 191.455 106.183 194.174 106.183Z" fill="#F2F2F2"/>
<path d="M174.553 106.183C177.272 106.183 179.476 103.977 179.476 101.255C179.476 98.5332 177.272 96.3267 174.553 96.3267C171.834 96.3267 169.63 98.5332 169.63 101.255C169.63 103.977 171.834 106.183 174.553 106.183Z" fill="#F2F2F2"/>
<path d="M154.931 106.183C157.651 106.183 159.855 103.977 159.855 101.255C159.855 98.5332 157.651 96.3267 154.931 96.3267C152.212 96.3267 150.008 98.5332 150.008 101.255C150.008 103.977 152.212 106.183 154.931 106.183Z" fill="#F2F2F2"/>
<path d="M213.795 126.76C216.514 126.76 218.718 124.554 218.718 121.832C218.718 119.11 216.514 116.903 213.795 116.903C211.076 116.903 208.872 119.11 208.872 121.832C208.872 124.554 211.076 126.76 213.795 126.76Z" fill="#F2F2F2"/>
<path d="M194.174 126.76C196.893 126.76 199.097 124.554 199.097 121.832C199.097 119.11 196.893 116.903 194.174 116.903C191.455 116.903 189.251 119.11 189.251 121.832C189.251 124.554 191.455 126.76 194.174 126.76Z" fill="#F2F2F2"/>
<path d="M174.553 126.76C177.272 126.76 179.476 124.554 179.476 121.832C179.476 119.11 177.272 116.903 174.553 116.903C171.834 116.903 169.63 119.11 169.63 121.832C169.63 124.554 171.834 126.76 174.553 126.76Z" fill="#F2F2F2"/>
<path d="M154.931 126.76C157.651 126.76 159.855 124.554 159.855 121.832C159.855 119.11 157.651 116.903 154.931 116.903C152.212 116.903 150.008 119.11 150.008 121.832C150.008 124.554 152.212 126.76 154.931 126.76Z" fill="#F2F2F2"/>
<path d="M213.795 147.337C216.514 147.337 218.718 145.13 218.718 142.408C218.718 139.686 216.514 137.48 213.795 137.48C211.076 137.48 208.872 139.686 208.872 142.408C208.872 145.13 211.076 147.337 213.795 147.337Z" fill="#F2F2F2"/>
<path d="M194.174 147.337C196.893 147.337 199.097 145.13 199.097 142.408C199.097 139.686 196.893 137.48 194.174 137.48C191.455 137.48 189.251 139.686 189.251 142.408C189.251 145.13 191.455 147.337 194.174 147.337Z" fill="#F2F2F2"/>
<path d="M174.553 147.337C177.272 147.337 179.476 145.13 179.476 142.408C179.476 139.686 177.272 137.48 174.553 137.48C171.834 137.48 169.63 139.686 169.63 142.408C169.63 145.13 171.834 147.337 174.553 147.337Z" fill="#F2F2F2"/>
<path d="M154.931 147.337C157.651 147.337 159.855 145.13 159.855 142.408C159.855 139.686 157.651 137.48 154.931 137.48C152.212 137.48 150.008 139.686 150.008 142.408C150.008 145.13 152.212 147.337 154.931 147.337Z" fill="#F2F2F2"/>
<path d="M170.534 276.857V278.381C170.536 280.907 171.54 283.328 173.324 285.114C175.108 286.9 177.527 287.905 180.051 287.907H248.568C251.091 287.906 253.511 286.902 255.296 285.116C257.08 283.329 258.083 280.907 258.084 278.381V276.857C258.089 274.627 257.307 272.468 255.876 270.76C255.4 270.193 254.861 269.681 254.27 269.236C254.27 269.236 216.6 268.382 216.6 267.33H180.051C177.528 267.334 175.109 268.339 173.325 270.124C171.542 271.91 170.538 274.331 170.534 276.857Z" fill="#F41971"/>
<path d="M219.808 287.529H209.911V351.545H219.808V287.529Z" fill="#CCCCCC"/>
<path d="M247.977 351.196C247.977 352.267 232.979 351.61 214.479 351.61C195.979 351.61 180.982 352.267 180.982 351.196C180.982 350.126 195.979 341.637 214.479 341.637C232.979 341.637 247.977 350.126 247.977 351.196Z" fill="#CCCCCC"/>
<path d="M234.37 275.564C235.085 274.604 235.58 273.499 235.822 272.327C236.064 271.155 236.046 269.944 235.769 268.78C235.493 267.615 234.965 266.525 234.223 265.587C233.48 264.649 232.541 263.886 231.472 263.35L210.496 191.801L194.523 199.632L220.164 267.5C219.385 269.358 219.313 271.437 219.962 273.345C220.612 275.252 221.938 276.854 223.689 277.848C225.44 278.842 227.495 279.159 229.463 278.738C231.432 278.317 233.178 277.187 234.37 275.564L234.37 275.564Z" fill="#A0616A"/>
<path d="M215.248 203.749L197.37 208.594C196.862 208.732 196.329 208.758 195.809 208.671C195.29 208.585 194.795 208.387 194.358 208.091C193.921 207.796 193.554 207.41 193.28 206.959C193.006 206.509 192.832 206.004 192.77 205.48L190.609 187.123C189.92 184.514 190.292 181.738 191.644 179.403C192.996 177.068 195.218 175.365 197.823 174.667C200.427 173.97 203.202 174.334 205.538 175.681C207.874 177.028 209.581 179.248 210.286 181.853L217.65 198.738C217.861 199.222 217.965 199.745 217.956 200.272C217.946 200.8 217.823 201.319 217.595 201.794C217.367 202.27 217.039 202.691 216.634 203.028C216.229 203.365 215.756 203.611 215.248 203.749H215.248Z" fill="#FF6363"/>
<path d="M239.042 343.693L248.376 343.692L252.817 319.461H239.041L239.042 343.693Z" fill="#A0616A"/>
<path d="M236.661 340.643L255.042 340.642H255.043C256.581 340.642 258.104 340.945 259.525 341.535C260.947 342.124 262.238 342.988 263.326 344.076C264.413 345.165 265.276 346.458 265.865 347.88C266.454 349.303 266.756 350.828 266.756 352.368V352.749L236.662 352.75L236.661 340.643Z" fill="#2F2E41"/>
<path d="M249.876 330.699C249.767 330.699 249.658 330.694 249.548 330.683L236.632 329.742C236.109 329.694 235.605 329.526 235.158 329.251C234.711 328.977 234.332 328.603 234.052 328.159C233.772 327.715 233.597 327.213 233.542 326.69C233.486 326.168 233.551 325.64 233.732 325.147L251.018 286.269C251.142 285.923 251.192 285.554 251.167 285.187C251.141 284.82 251.039 284.462 250.869 284.136C250.699 283.806 250.461 283.516 250.171 283.285C249.88 283.054 249.545 282.887 249.186 282.795C241.057 280.668 220.201 275.004 202.147 268.378C194.413 265.538 189.541 261.436 187.668 256.183C185.199 249.258 188.852 242.942 189.009 242.677L189.131 242.469L206.119 244.015L224.536 245.583L264.895 267.248C268.277 269.079 270.846 272.117 272.09 275.759C273.334 279.401 273.162 283.378 271.609 286.898L253.002 328.667C252.733 329.271 252.294 329.785 251.74 330.146C251.185 330.507 250.538 330.699 249.876 330.699Z" fill="#2F2E41"/>
<path d="M209.073 167.098C219.4 167.098 227.771 158.717 227.771 148.38C227.771 138.042 219.4 129.662 209.073 129.662C198.746 129.662 190.375 138.042 190.375 148.38C190.375 158.717 198.746 167.098 209.073 167.098Z" fill="#A0616A"/>
<path d="M233.713 342.931L243.047 342.93L247.487 318.699H233.711L233.713 342.931Z" fill="#A0616A"/>
<path d="M231.332 339.881L249.713 339.88H249.714C251.252 339.88 252.775 340.183 254.197 340.773C255.618 341.362 256.909 342.226 257.997 343.314C259.085 344.403 259.947 345.696 260.536 347.119C261.125 348.541 261.428 350.066 261.428 351.606V351.987L231.333 351.988L231.332 339.881Z" fill="#2F2E41"/>
<path d="M244.547 332.985C244.438 332.985 244.329 332.98 244.219 332.97L231.302 332.028C230.78 331.98 230.276 331.812 229.828 331.537C229.381 331.263 229.003 330.889 228.723 330.445C228.442 330.001 228.268 329.499 228.212 328.977C228.157 328.454 228.222 327.926 228.402 327.433L245.689 288.555C245.812 288.209 245.863 287.84 245.837 287.473C245.811 287.106 245.71 286.748 245.539 286.422C245.369 286.092 245.131 285.802 244.841 285.571C244.551 285.34 244.215 285.173 243.856 285.081C235.727 282.954 214.872 277.291 196.818 270.664C189.083 267.825 184.212 263.722 182.339 258.469C179.87 251.544 183.523 245.228 183.679 244.963L183.802 244.756L200.79 246.301L219.207 247.869L259.566 269.534C262.948 271.365 265.516 274.404 266.761 278.045C268.005 281.687 267.833 285.664 266.279 289.184L247.673 330.953C247.403 331.558 246.965 332.072 246.41 332.432C245.855 332.793 245.208 332.985 244.547 332.985Z" fill="#2F2E41"/>
<path d="M214.84 177.711L195.046 170.853C195.046 170.853 182.62 180.409 188.589 204.117C191.706 216.351 190.798 229.265 186.001 240.941C185.423 242.386 184.758 243.794 184.007 245.157C184.007 245.157 206.085 271.83 226.64 252.016L218.646 213.53C218.646 213.53 231.208 188 214.84 177.711Z" fill="#2F2E41"/>
<path d="M211.395 167.734C208.733 163.747 206.633 158.217 209.563 154.423C212.455 150.678 218.16 151.23 222.589 149.573C228.759 147.265 232.337 140.009 231.221 133.511C230.105 127.013 224.895 121.627 218.687 119.423C212.48 117.219 205.48 117.936 199.401 120.474C191.918 123.598 185.499 129.642 182.807 137.298C180.115 144.954 181.554 154.146 187.138 160.031C193.125 166.34 202.521 168.021 211.213 167.919" fill="#2F2E41"/>
<path d="M194.001 133.72C190.648 136.453 185.532 135.239 181.932 132.84C178.332 130.442 175.411 127.027 171.517 125.147C164.65 121.831 156.349 124.035 149.666 127.707C142.983 131.379 137.059 136.452 130.001 139.334C122.942 142.216 113.934 142.358 108.589 136.917C107.274 140.732 107.166 144.86 108.281 148.738C109.396 152.617 111.679 156.056 114.819 158.588C117.959 161.119 121.803 162.619 125.826 162.883C129.849 163.147 133.855 162.162 137.298 160.063C145.032 155.347 149.304 145.458 157.979 142.855C162.78 141.415 167.934 142.575 172.786 143.832C177.638 145.088 182.697 146.446 187.593 145.376C192.489 144.306 197.069 139.902 196.446 134.924L194.001 133.72Z" fill="#2F2E41"/>
<path d="M254.87 310.089C252.89 297.216 252.89 284.115 254.87 271.241C254.996 270.475 255.389 269.778 255.979 269.275C256.57 268.772 257.32 268.495 258.096 268.493H288.451C288.942 268.492 289.428 268.602 289.871 268.817C290.314 269.032 290.701 269.345 291.005 269.733C291.315 270.125 291.532 270.584 291.638 271.073C291.745 271.562 291.738 272.069 291.62 272.556C288.78 284.461 288.78 296.869 291.619 308.774C291.738 309.261 291.745 309.768 291.638 310.257C291.532 310.746 291.315 311.205 291.005 311.598C290.701 311.985 290.314 312.298 289.871 312.513C289.428 312.728 288.942 312.839 288.451 312.837H258.096C257.32 312.835 256.57 312.558 255.979 312.055C255.389 311.552 254.996 310.855 254.87 310.089Z" fill="#98D800"/>
<path d="M279.11 287.299H263.181C262.575 287.298 261.994 287.057 261.566 286.629C261.138 286.2 260.897 285.619 260.897 285.013V284.12C260.897 283.514 261.138 282.932 261.566 282.504C261.994 282.075 262.575 281.834 263.181 281.833H279.11C279.715 281.834 280.296 282.075 280.724 282.504C281.152 282.932 281.393 283.514 281.394 284.12V285.013C281.393 285.619 281.152 286.2 280.724 286.629C280.296 287.057 279.715 287.298 279.11 287.299Z" fill="white"/>
<path d="M279.11 296.707H263.181C262.575 296.707 261.994 296.465 261.566 296.037C261.138 295.608 260.897 295.027 260.897 294.421V293.527C260.897 292.921 261.138 292.34 261.566 291.912C261.994 291.483 262.575 291.242 263.181 291.241H279.11C279.715 291.242 280.296 291.483 280.724 291.912C281.152 292.34 281.393 292.921 281.394 293.527V294.421C281.393 295.027 281.152 295.608 280.724 296.037C280.296 296.465 279.715 296.707 279.11 296.707Z" fill="white"/>
<path d="M262.853 272.135C263.305 271.027 263.509 269.833 263.45 268.638C263.392 267.442 263.072 266.274 262.514 265.216C261.956 264.157 261.173 263.234 260.22 262.512C259.267 261.789 258.167 261.284 256.998 261.033L218.83 196.999L205.318 208.577L247.085 267.88C246.793 269.874 247.243 271.905 248.348 273.589C249.453 275.274 251.137 276.494 253.08 277.018C255.024 277.543 257.092 277.335 258.893 276.435C260.694 275.535 262.103 274.005 262.853 272.135L262.853 272.135Z" fill="#A0616A"/>
<path d="M226.413 207.38L210.312 216.542C209.853 216.803 209.345 216.962 208.82 217.008C208.295 217.054 207.766 216.986 207.27 216.809C206.773 216.632 206.321 216.35 205.943 215.983C205.565 215.615 205.271 215.17 205.08 214.678L198.407 197.444C197.088 195.09 196.755 192.308 197.482 189.709C198.208 187.11 199.935 184.906 202.282 183.579C204.63 182.252 207.408 181.911 210.006 182.631C212.604 183.351 214.811 185.073 216.144 187.42L227.489 201.927C227.814 202.343 228.045 202.823 228.167 203.336C228.29 203.849 228.3 204.383 228.198 204.9C228.096 205.418 227.884 205.907 227.576 206.335C227.268 206.763 226.871 207.12 226.413 207.38Z" fill="#2F2E41"/>
<path d="M397.736 229.873H88.6479C87.3355 229.873 86.0769 230.395 85.1488 231.324C84.2208 232.253 83.6995 233.513 83.6995 234.827C83.6995 236.141 84.2208 237.401 85.1488 238.33C86.0769 239.259 87.3355 239.781 88.6479 239.781H97.4029V347.617C97.4029 348.931 97.9242 350.191 98.8523 351.12C99.7803 352.049 101.039 352.571 102.351 352.571C103.664 352.571 104.922 352.049 105.85 351.12C106.778 350.191 107.3 348.931 107.3 347.617V249.299L162.777 349.955C163.434 351.09 164.515 351.917 165.781 352.256C167.048 352.594 168.396 352.416 169.531 351.76C170.667 351.103 171.495 350.023 171.836 348.756C172.176 347.489 172.001 346.139 171.348 345.001L113.355 239.781H378.323V239.845L320.366 345.001C319.71 346.139 319.532 347.491 319.872 348.76C320.211 350.029 321.041 351.111 322.177 351.768C323.314 352.425 324.664 352.603 325.932 352.263C327.2 351.923 328.281 351.093 328.937 349.955L378.323 260.349V347.617C378.323 348.931 378.845 350.191 379.773 351.12C380.701 352.049 381.959 352.571 383.272 352.571C384.584 352.571 385.843 352.049 386.771 351.12C387.699 350.191 388.22 348.931 388.22 347.617V242.393L389.66 239.781H397.736C399.049 239.781 400.307 239.259 401.236 238.33C402.164 237.401 402.685 236.141 402.685 234.827C402.685 233.513 402.164 232.253 401.236 231.324C400.307 230.395 399.049 229.873 397.736 229.873Z" fill="#3F3D56"/>
<path d="M269.838 226.825H209.695C208.224 226.825 207.031 228.019 207.031 229.492C207.031 230.965 208.224 232.16 209.695 232.16H269.838C271.31 232.16 272.503 230.965 272.503 229.492C272.503 228.019 271.31 226.825 269.838 226.825Z" fill="#CCCCCC"/>
<path d="M310.187 232.16H242.431C241.119 232.158 239.861 231.636 238.933 230.707C238.006 229.778 237.484 228.519 237.482 227.206V189.863C237.484 188.55 238.006 187.291 238.933 186.362C239.861 185.434 241.119 184.911 242.431 184.91H310.187C311.499 184.911 312.757 185.434 313.684 186.362C314.612 187.291 315.134 188.55 315.135 189.863V227.206C315.134 228.519 314.612 229.778 313.684 230.707C312.757 231.636 311.499 232.158 310.187 232.16Z" fill="#00C3F7"/>
<path d="M276.309 213.107C278.832 213.107 280.877 211.06 280.877 208.535C280.877 206.009 278.832 203.962 276.309 203.962C273.786 203.962 271.741 206.009 271.741 208.535C271.741 211.06 273.786 213.107 276.309 213.107Z" fill="white"/>
<path d="M361.895 140.153V6.40562C361.897 4.88592 362.501 3.42896 363.574 2.35436C364.648 1.27977 366.103 0.675313 367.621 0.673584H473.235C474.754 0.675313 476.209 1.27977 477.282 2.35436C478.356 3.42896 478.96 4.88592 478.962 6.40562V140.153C478.96 141.673 478.356 143.13 477.282 144.204C476.209 145.279 474.754 145.884 473.235 145.885H367.621C366.103 145.884 364.648 145.279 363.574 144.204C362.501 143.13 361.897 141.673 361.895 140.153ZM367.621 1.94737C366.44 1.9487 365.308 2.41883 364.473 3.25463C363.638 4.09043 363.169 5.22363 363.167 6.40562V140.153C363.169 141.335 363.638 142.468 364.473 143.304C365.308 144.14 366.44 144.61 367.621 144.611H473.235C474.416 144.61 475.548 144.14 476.383 143.304C477.218 142.468 477.688 141.335 477.689 140.153V6.40562C477.688 5.22363 477.218 4.09043 476.383 3.25463C475.548 2.41883 474.416 1.9487 473.235 1.94737H367.621Z" fill="#E6E6E6"/>
<path d="M426.351 62.0967V34.6341C426.352 33.8742 426.653 33.1457 427.19 32.6084C427.727 32.0711 428.455 31.7689 429.214 31.7681H452.462C453.221 31.7689 453.948 32.0711 454.485 32.6084C455.022 33.1457 455.324 33.8742 455.325 34.6341V62.0967C455.324 62.8566 455.022 63.5851 454.485 64.1224C453.948 64.6597 453.221 64.9619 452.462 64.9627H429.214C428.455 64.9619 427.727 64.6597 427.19 64.1224C426.653 63.5851 426.352 62.8566 426.351 62.0967Z" fill="#00C3F7"/>
<path d="M381.178 74.8345V47.3719C381.179 46.612 381.481 45.8835 382.018 45.3462C382.555 44.8089 383.282 44.5067 384.042 44.5059H407.289C408.048 44.5067 408.776 44.8089 409.313 45.3462C409.85 45.8835 410.151 46.612 410.152 47.3719V74.8345C410.151 75.5944 409.85 76.3229 409.313 76.8602C408.776 77.3975 408.048 77.6997 407.289 77.7005H384.042C383.282 77.6997 382.555 77.3975 382.018 76.8602C381.481 76.3229 381.179 75.5944 381.178 74.8345Z" fill="#CCCCCC"/>
<path d="M417.444 113.685V86.2225C417.445 85.4626 417.747 84.7341 418.283 84.1968C418.82 83.6595 419.548 83.3573 420.307 83.3564H443.555C444.314 83.3573 445.042 83.6595 445.578 84.1968C446.115 84.7341 446.417 85.4626 446.418 86.2225V113.685C446.417 114.445 446.115 115.173 445.578 115.711C445.042 116.248 444.314 116.55 443.555 116.551H420.307C419.548 116.55 418.82 116.248 418.283 115.711C417.747 115.173 417.445 114.445 417.444 113.685Z" fill="#98D800"/>
<path d="M594.742 14.6102C597.461 14.6102 599.665 12.4037 599.665 9.68181C599.665 6.95993 597.461 4.75342 594.742 4.75342C592.022 4.75342 589.818 6.95993 589.818 9.68181C589.818 12.4037 592.022 14.6102 594.742 14.6102Z" fill="#F2F2F2"/>
<path d="M594.742 34.2518C597.461 34.2518 599.665 32.0453 599.665 29.3234C599.665 26.6015 597.461 24.395 594.742 24.395C592.022 24.395 589.818 26.6015 589.818 29.3234C589.818 32.0453 592.022 34.2518 594.742 34.2518Z" fill="#F2F2F2"/>
<path d="M594.742 53.8936C597.461 53.8936 599.665 51.6871 599.665 48.9652C599.665 46.2434 597.461 44.0369 594.742 44.0369C592.022 44.0369 589.818 46.2434 589.818 48.9652C589.818 51.6871 592.022 53.8936 594.742 53.8936Z" fill="#F2F2F2"/>
<path d="M594.742 73.5352C597.461 73.5352 599.665 71.3287 599.665 68.6068C599.665 65.885 597.461 63.6785 594.742 63.6785C592.022 63.6785 589.818 65.885 589.818 68.6068C589.818 71.3287 592.022 73.5352 594.742 73.5352Z" fill="#F2F2F2"/>
<path d="M574.187 14.6102C576.906 14.6102 579.11 12.4037 579.11 9.68181C579.11 6.95993 576.906 4.75342 574.187 4.75342C571.468 4.75342 569.264 6.95993 569.264 9.68181C569.264 12.4037 571.468 14.6102 574.187 14.6102Z" fill="#F2F2F2"/>
<path d="M574.187 34.2518C576.906 34.2518 579.11 32.0453 579.11 29.3234C579.11 26.6015 576.906 24.395 574.187 24.395C571.468 24.395 569.264 26.6015 569.264 29.3234C569.264 32.0453 571.468 34.2518 574.187 34.2518Z" fill="#F2F2F2"/>
<path d="M574.187 53.8936C576.906 53.8936 579.11 51.6871 579.11 48.9652C579.11 46.2434 576.906 44.0369 574.187 44.0369C571.468 44.0369 569.264 46.2434 569.264 48.9652C569.264 51.6871 571.468 53.8936 574.187 53.8936Z" fill="#F2F2F2"/>
<path d="M574.187 73.5352C576.906 73.5352 579.11 71.3287 579.11 68.6068C579.11 65.885 576.906 63.6785 574.187 63.6785C571.468 63.6785 569.264 65.885 569.264 68.6068C569.264 71.3287 571.468 73.5352 574.187 73.5352Z" fill="#F2F2F2"/>
<path d="M553.632 14.6102C556.351 14.6102 558.555 12.4037 558.555 9.68181C558.555 6.95993 556.351 4.75342 553.632 4.75342C550.913 4.75342 548.708 6.95993 548.708 9.68181C548.708 12.4037 550.913 14.6102 553.632 14.6102Z" fill="#F2F2F2"/>
<path d="M553.632 34.2518C556.351 34.2518 558.555 32.0453 558.555 29.3234C558.555 26.6015 556.351 24.395 553.632 24.395C550.913 24.395 548.708 26.6015 548.708 29.3234C548.708 32.0453 550.913 34.2518 553.632 34.2518Z" fill="#F2F2F2"/>
<path d="M553.632 53.8936C556.351 53.8936 558.555 51.6871 558.555 48.9652C558.555 46.2434 556.351 44.0369 553.632 44.0369C550.913 44.0369 548.708 46.2434 548.708 48.9652C548.708 51.6871 550.913 53.8936 553.632 53.8936Z" fill="#F2F2F2"/>
<path d="M553.632 73.5352C556.351 73.5352 558.555 71.3287 558.555 68.6068C558.555 65.885 556.351 63.6785 553.632 63.6785C550.913 63.6785 548.708 65.885 548.708 68.6068C548.708 71.3287 550.913 73.5352 553.632 73.5352Z" fill="#F2F2F2"/>
<path d="M533.076 14.6102C535.795 14.6102 537.999 12.4037 537.999 9.68181C537.999 6.95993 535.795 4.75342 533.076 4.75342C530.357 4.75342 528.153 6.95993 528.153 9.68181C528.153 12.4037 530.357 14.6102 533.076 14.6102Z" fill="#F2F2F2"/>
<path d="M533.076 34.2518C535.795 34.2518 537.999 32.0453 537.999 29.3234C537.999 26.6015 535.795 24.395 533.076 24.395C530.357 24.395 528.153 26.6015 528.153 29.3234C528.153 32.0453 530.357 34.2518 533.076 34.2518Z" fill="#F2F2F2"/>
<path d="M533.076 53.8936C535.795 53.8936 537.999 51.6871 537.999 48.9652C537.999 46.2434 535.795 44.0369 533.076 44.0369C530.357 44.0369 528.153 46.2434 528.153 48.9652C528.153 51.6871 530.357 53.8936 533.076 53.8936Z" fill="#F2F2F2"/>
<path d="M533.076 73.5352C535.795 73.5352 537.999 71.3287 537.999 68.6068C537.999 65.885 535.795 63.6785 533.076 63.6785C530.357 63.6785 528.153 65.885 528.153 68.6068C528.153 71.3287 530.357 73.5352 533.076 73.5352Z" fill="#F2F2F2"/>
<path d="M512.521 14.6102C515.24 14.6102 517.444 12.4037 517.444 9.68181C517.444 6.95993 515.24 4.75342 512.521 4.75342C509.802 4.75342 507.598 6.95993 507.598 9.68181C507.598 12.4037 509.802 14.6102 512.521 14.6102Z" fill="#F2F2F2"/>
<path d="M512.521 34.2518C515.24 34.2518 517.444 32.0453 517.444 29.3234C517.444 26.6015 515.24 24.395 512.521 24.395C509.802 24.395 507.598 26.6015 507.598 29.3234C507.598 32.0453 509.802 34.2518 512.521 34.2518Z" fill="#F2F2F2"/>
<path d="M512.521 53.8936C515.24 53.8936 517.444 51.6871 517.444 48.9652C517.444 46.2434 515.24 44.0369 512.521 44.0369C509.802 44.0369 507.598 46.2434 507.598 48.9652C507.598 51.6871 509.802 53.8936 512.521 53.8936Z" fill="#F2F2F2"/>
<path d="M512.521 73.5352C515.24 73.5352 517.444 71.3287 517.444 68.6068C517.444 65.885 515.24 63.6785 512.521 63.6785C509.802 63.6785 507.598 65.885 507.598 68.6068C507.598 71.3287 509.802 73.5352 512.521 73.5352Z" fill="#F2F2F2"/>
<path d="M491.966 14.6102C494.685 14.6102 496.89 12.4037 496.89 9.68181C496.89 6.95993 494.685 4.75342 491.966 4.75342C489.247 4.75342 487.043 6.95993 487.043 9.68181C487.043 12.4037 489.247 14.6102 491.966 14.6102Z" fill="#F2F2F2"/>
<path d="M491.966 34.2518C494.685 34.2518 496.89 32.0453 496.89 29.3234C496.89 26.6015 494.685 24.395 491.966 24.395C489.247 24.395 487.043 26.6015 487.043 29.3234C487.043 32.0453 489.247 34.2518 491.966 34.2518Z" fill="#F2F2F2"/>
<path d="M491.966 53.8936C494.685 53.8936 496.89 51.6871 496.89 48.9652C496.89 46.2434 494.685 44.0369 491.966 44.0369C489.247 44.0369 487.043 46.2434 487.043 48.9652C487.043 51.6871 489.247 53.8936 491.966 53.8936Z" fill="#F2F2F2"/>
<path d="M491.966 73.5352C494.685 73.5352 496.89 71.3287 496.89 68.6068C496.89 65.885 494.685 63.6785 491.966 63.6785C489.247 63.6785 487.043 65.885 487.043 68.6068C487.043 71.3287 489.247 73.5352 491.966 73.5352Z" fill="#F2F2F2"/>
<path d="M511.801 184.531C511.397 183.421 511.232 182.238 511.316 181.06C511.401 179.882 511.733 178.735 512.292 177.694C512.85 176.653 513.622 175.742 514.556 175.021C515.491 174.3 516.567 173.784 517.714 173.508C518.078 173.423 518.447 173.362 518.819 173.328L537.321 140.864L532.649 132.829L544.278 123.848L553.175 136.219C554.236 137.706 554.79 139.496 554.754 141.323C554.718 143.15 554.095 144.917 552.977 146.361L527.577 178.913C527.669 179.172 527.748 179.435 527.813 179.702C528.088 180.85 528.118 182.044 527.901 183.206C527.683 184.367 527.223 185.469 526.55 186.439C525.877 187.41 525.007 188.227 523.997 188.838C522.986 189.448 521.859 189.838 520.687 189.982C520.347 190.025 520.005 190.047 519.662 190.046C517.946 190.041 516.272 189.509 514.867 188.523C513.462 187.537 512.391 186.144 511.801 184.531Z" fill="#FFB8B8"/>
<path d="M475.704 344.293L466.37 344.292L461.93 308.254L475.705 308.255L475.704 344.293Z" fill="#FFB8B8"/>
<path d="M459.703 341.623H477.703V352.968H448.37C448.37 351.478 448.663 350.003 449.233 348.626C449.802 347.25 450.637 345.999 451.689 344.945C452.742 343.892 453.991 343.056 455.366 342.486C456.741 341.916 458.215 341.623 459.703 341.623Z" fill="#2F2E41"/>
<path d="M552.595 344.293L543.262 344.292L538.822 308.254L552.597 308.255L552.595 344.293Z" fill="#FFB8B8"/>
<path d="M536.595 341.623H554.595V352.968H525.262C525.262 351.478 525.555 350.003 526.125 348.626C526.694 347.25 527.529 345.999 528.581 344.945C529.634 343.892 530.883 343.056 532.258 342.486C533.633 341.916 535.107 341.623 536.595 341.623Z" fill="#2F2E41"/>
<path d="M546.867 125.603L525.912 133.574L520.797 119.349C520.117 117.46 520.127 115.391 520.824 113.508C521.52 111.626 522.86 110.05 524.605 109.061C526.37 108.059 528.434 107.723 530.426 108.112C532.417 108.501 534.203 109.59 535.463 111.183L546.867 125.603Z" fill="#FF6363"/>
<path d="M476.51 315.105L458.935 311.093C458.001 310.878 457.182 310.317 456.644 309.522C456.105 308.728 455.887 307.759 456.033 306.81C463.085 262.068 469.869 235.866 487.353 202.592C487.597 201.972 490.327 189.379 492.109 181.036C492.089 180.117 492.403 179.222 492.993 178.517C493.583 177.813 494.409 177.347 495.317 177.207L528.087 172.159C528.581 171.987 529.103 171.909 529.626 171.927L529.953 171.989L529.949 172.312C529.945 172.645 529.614 172.696 529.489 172.715L529.054 172.782C529.55 173.014 530.007 173.325 530.405 173.702C544.763 190.989 552.229 247.655 561.712 310.258C561.764 310.766 561.703 311.279 561.531 311.76C561.359 312.241 561.082 312.678 560.719 313.037C560.376 313.412 559.961 313.714 559.498 313.924C559.035 314.133 558.534 314.247 558.026 314.257L537.089 314.768C536.169 314.789 535.274 314.474 534.568 313.883C533.863 313.291 533.397 312.463 533.256 311.553L519.154 229.972C519.056 229.335 518.759 228.745 518.304 228.289C517.849 227.833 517.26 227.534 516.624 227.435C515.987 227.337 515.336 227.445 514.765 227.743C514.194 228.04 513.732 228.513 513.448 229.091C502.071 252.285 491.461 272.344 481.012 312.362C480.804 313.174 480.333 313.893 479.673 314.407C479.012 314.921 478.2 315.201 477.363 315.202C477.076 315.202 476.789 315.169 476.51 315.105Z" fill="#2F2E41"/>
<path d="M493.568 181.968C493.127 181.655 492.758 181.253 492.484 180.786C492.211 180.32 492.039 179.801 491.982 179.263C489.298 154.183 491.168 134.556 497.696 119.26C498.846 116.622 500.578 114.279 502.763 112.407C504.947 110.535 507.527 109.184 510.309 108.454L527.247 107.598L527.335 107.64C531.157 109.514 534.274 112.572 536.224 116.359C538.174 120.146 538.853 124.461 538.16 128.665C532.712 143.041 528.15 158.008 531.629 170.082C531.775 170.587 531.818 171.116 531.754 171.637C531.691 172.159 531.523 172.663 531.261 173.118C531.006 173.558 530.665 173.941 530.257 174.243C529.849 174.546 529.383 174.762 528.889 174.877L496.626 182.56C496.104 182.685 495.561 182.696 495.033 182.594C494.506 182.492 494.007 182.278 493.568 181.968Z" fill="#F41971"/>
<path d="M486.276 145.976L453.788 120.319C453.53 120.41 453.266 120.488 453 120.552C451.853 120.821 450.663 120.845 449.506 120.623C448.35 120.401 447.253 119.937 446.287 119.263C445.314 118.589 444.497 117.714 443.889 116.697C443.282 115.681 442.898 114.546 442.764 113.37C442.547 111.488 442.97 109.589 443.966 107.979C444.963 106.369 446.473 105.143 448.253 104.5C449.363 104.101 450.546 103.942 451.722 104.032C452.899 104.123 454.043 104.461 455.08 105.025C456.117 105.589 457.023 106.366 457.739 107.305C458.455 108.243 458.965 109.323 459.235 110.473C459.319 110.837 459.377 111.207 459.41 111.58L491.751 130.257L499.799 125.618L508.715 137.303L496.219 146.219C494.756 147.254 492.999 147.789 491.208 147.745C489.417 147.702 487.687 147.081 486.277 145.976H486.276Z" fill="#FFB8B8"/>
<path d="M512.679 140.941L494.142 128.323L502.854 115.972C504.011 114.332 505.709 113.154 507.65 112.646C509.59 112.139 511.647 112.334 513.458 113.198C515.289 114.072 516.748 115.572 517.571 117.429C518.394 119.285 518.527 121.375 517.945 123.321L512.679 140.941Z" fill="#E6166A"/>
<path d="M521.594 101.264C531.921 101.264 540.292 92.884 540.292 82.5464C540.292 72.2089 531.921 63.8286 521.594 63.8286C511.267 63.8286 502.896 72.2089 502.896 82.5464C502.896 92.884 511.267 101.264 521.594 101.264Z" fill="#FFB8B8"/>
<path d="M514.739 79.7588C509.933 83.0514 503.623 86.436 498.714 82.9296C495.491 80.6273 494.476 76.3638 495.783 72.6224C498.133 65.8942 504.591 62.9321 510.766 60.6616C518.793 57.71 527.534 55.3619 535.821 57.4757C544.108 59.5895 551.432 67.6214 549.936 76.0502C548.733 82.8284 542.346 88.4684 543.252 95.2927C544.165 102.161 551.881 105.776 558.693 107.004C565.505 108.231 573.127 108.625 578.023 113.523C584.268 119.772 582.708 130.94 576.832 137.537C570.956 144.134 562.088 147.124 553.495 149.157C542.11 151.85 529.797 153.266 518.984 148.796C508.171 144.326 499.757 132.293 502.889 121.01C504.212 116.244 507.329 112.216 510.341 108.295C513.353 104.373 516.403 100.273 517.552 95.4619C518.51 91.4527 517.801 86.7979 515.145 83.7905C514.662 83.2641 514.358 82.5981 514.277 81.8879C514.195 81.1778 514.341 80.4601 514.693 79.838L514.739 79.7588Z" fill="#2F2E41"/>
</svg>
