<svg width="363" height="294" viewBox="0 0 363 294" fill="none" xmlns="http://www.w3.org/2000/svg">
<path d="M244.628 269.785C227.748 269.829 210.884 268.728 194.155 266.488C193.609 266.418 193.055 266.34 192.505 266.259C188.399 265.677 184.29 265.011 180.296 264.281C162.322 261.004 145.371 256.218 129.917 250.055C78.487 229.547 46.1508 233.912 28.0809 241.184C8.52522 249.055 1.00793 261.932 0.934253 262.061L0.291016 261.697C0.365594 261.566 7.97986 248.497 27.7491 240.523C39.3402 235.847 52.7869 233.804 67.7187 234.448C86.3573 235.252 107.376 240.273 130.192 249.37C145.6 255.515 162.503 260.288 180.429 263.556C184.413 264.284 188.512 264.948 192.612 265.529C193.159 265.61 193.708 265.687 194.252 265.757C239.601 271.975 283.349 268.225 312.065 263.985C335.734 260.489 350.966 256.403 351.117 256.362L351.311 257.073C351.16 257.114 335.889 261.212 312.173 264.714C289.811 268.034 267.236 269.729 244.628 269.785Z" fill="#3F3D56"/>
<path d="M244.678 58.1758C231.64 58.176 218.947 57.5677 206.7 56.3519C178.559 53.558 152.726 47.5299 129.917 38.4351C78.487 17.927 46.1508 22.2914 28.0809 29.5643C8.52522 37.4347 1.00793 50.3119 0.934253 50.441L0.291016 50.077C0.365594 49.946 7.97986 36.8774 27.7491 28.9027C39.3404 24.227 52.7869 22.1827 67.7187 22.8275C86.3573 23.632 107.376 28.6527 130.192 37.7503C181.702 58.2903 239.022 59.0975 278.036 56.1602C320.323 52.9749 350.814 44.8237 351.117 44.7418L351.311 45.4533C351.008 45.5355 320.461 53.7026 278.108 56.8941C266.767 57.7487 255.601 58.1758 244.678 58.1758Z" fill="#3F3D56"/>
<path d="M242.763 4.05224C242.763 4.05224 228.222 -1.12456 218.875 19.5827C209.527 40.2899 194.987 63.0678 194.987 63.0678L203.296 65.1385C203.296 65.1385 205.373 50.6435 210.566 48.5728L208.489 67.2093C208.489 67.2093 270.805 88.9519 298.848 65.1385L297.809 57.891C297.809 57.891 301.963 58.9264 301.963 65.1385L305.079 62.0325C305.079 62.0325 301.963 55.8203 292.616 47.5374C286.481 42.1009 284.372 31.7579 283.648 25.2914C283.105 19.8917 280.938 14.7817 277.431 10.6314C271.219 3.45468 259.9 -4.17313 242.763 4.05224Z" fill="#2F2E41"/>
<path d="M331.013 121.227C331.013 121.227 358.376 144.492 362.399 158.13C366.423 171.769 347.109 173.373 347.109 173.373L305.261 177.384C305.261 177.384 304.456 196.638 297.213 199.045C289.97 201.452 295.743 167.206 295.743 167.206L336.647 155.723L318.137 136.469L331.013 121.227Z" fill="#FEC39F"/>
<path d="M203.055 145.294L199.836 187.814L182.131 260.017C182.131 260.017 166.036 292.909 179.717 293.711C193.398 294.513 192.593 262.423 192.593 262.423L218.346 194.232L220.76 147.701L203.055 145.294Z" fill="#FEC39F"/>
<path d="M248.122 70.6846C262.79 70.6846 274.68 58.8316 274.68 44.2102C274.68 29.5888 262.79 17.7358 248.122 17.7358C233.455 17.7358 221.565 29.5888 221.565 44.2102C221.565 58.8316 233.455 70.6846 248.122 70.6846Z" fill="#FEC39F"/>
<path d="M236.051 57.0464C236.051 57.0464 245.708 91.5433 230.417 100.368C215.127 109.193 269.046 115.611 283.532 89.1365C283.532 89.1365 257.779 80.3117 265.022 57.0464H236.051Z" fill="#FEC39F"/>
<path d="M217.541 104.379L212.712 102.774C212.712 102.774 203.055 106.786 203.055 114.006C203.055 121.226 201.446 150.107 201.446 150.107L223.174 152.514L217.541 104.379Z" fill="#98D800"/>
<path d="M312.119 264.349C282.41 268.737 239.11 272.28 194.205 266.123C194.202 265.68 194.202 265.249 194.202 264.829C194.202 262.325 194.298 259.85 194.49 257.404C196.79 227.275 212.36 202.157 218.385 193.453C218.688 193.01 218.969 192.612 219.221 192.258C220.193 190.898 220.759 190.179 220.759 190.179C220.759 190.179 267.436 189.419 291.579 199.046C292.743 199.533 293.808 200.227 294.722 201.095C303.724 209.376 309.012 236.26 312.119 264.349Z" fill="#2F2E41"/>
<path d="M294.799 93.1477C294.799 93.1477 305.261 87.5319 315.723 99.5657L336.647 123.633L320.551 141.283L289.97 122.831L294.799 93.1477Z" fill="#98D800"/>
<path d="M219.425 44.3779C228.826 37.5952 236.437 29.7828 241.471 20.4897C241.471 20.4897 258.724 39.6003 269.268 40.5558C279.812 41.5113 270.227 17.6231 270.227 17.6231L251.056 12.8455L232.844 14.7565L218.466 24.3118L219.425 44.3779Z" fill="#2F2E41"/>
<path d="M279.508 87.5317C279.508 87.5317 268.246 105.283 234.444 96.8084L215.262 102.075L212.713 102.775C212.713 102.775 215.127 150.91 221.565 159.735C228.003 168.559 226.394 173.373 224.784 174.175C223.175 174.977 219.151 173.373 221.565 177.384C223.979 181.395 227.199 178.989 223.979 181.395C220.76 183.802 219.151 192.627 219.151 192.627L294.799 202.254C294.799 202.254 292.385 170.966 298.823 154.921C305.261 138.876 306.871 132.458 306.871 132.458L302.042 92.3453L279.508 87.5317Z" fill="#98D800"/>
<path d="M122.288 71.8264H18.7346V200.863H122.288V71.8264Z" fill="#00C3F7"/>
<path d="M48.1363 82.7021H25.9463V97.4492H48.1363V82.7021Z" fill="white"/>
<path d="M111.932 111.459H26.1311V116.621H111.932V111.459Z" fill="white"/>
<path d="M111.932 125.1H26.1311V130.262H111.932V125.1Z" fill="white"/>
<path d="M111.932 138.741H26.1311V143.903H111.932V138.741Z" fill="white"/>
<path d="M111.932 152.382H26.1311V157.544H111.932V152.382Z" fill="white"/>
<path d="M111.932 166.023H26.1311V171.185H111.932V166.023Z" fill="white"/>
<path d="M142.629 200.679C142.624 205.548 140.857 210.253 137.652 213.927C134.447 217.602 130.019 220 125.182 220.681C120.346 221.362 115.425 220.281 111.324 217.635C107.223 214.989 104.218 210.957 102.86 206.279C101.503 201.602 101.884 196.593 103.934 192.173C105.985 187.753 109.566 184.219 114.02 182.221C118.475 180.222 123.503 179.893 128.181 181.294C132.859 182.696 136.873 185.732 139.485 189.847C141.539 193.089 142.629 196.845 142.629 200.679Z" fill="#F41971"/>
<path d="M139.485 189.847L119.462 209.804C118.204 207.862 111.193 198.836 111.193 198.836C112.091 197.93 113.05 197.087 114.063 196.31L119.876 204.038L137.14 186.828C138.016 187.758 138.801 188.769 139.485 189.847Z" fill="white"/>
</svg>
