<svg width="476" height="324" viewBox="0 0 476 324" fill="none" xmlns="http://www.w3.org/2000/svg">
<path d="M235.3 118.476H81.6409V154.057H235.3V118.476Z" fill="#565661"/>
<path opacity="0.1" d="M235.3 118.476H81.6409V154.057H235.3V118.476Z" fill="black"/>
<path d="M100.025 155.228L101.104 250.217L86.3251 287.527L85.1812 155.228H100.025Z" fill="#BCBEC9"/>
<path d="M83.262 125.307L232.866 126.207V152.707H83.262V125.307Z" fill="#565661"/>
<path d="M220.066 155.228L232.866 157.033V286.085L220.066 246.612V155.228Z" fill="#BCBEC9"/>
<path d="M309.828 119.902H237.729V273.111H309.828V119.902Z" fill="#EFEFF0"/>
<path d="M304.06 124.158H243.497V241.927H304.06V124.158Z" fill="#565661"/>
<path opacity="0.1" d="M304.06 124.158H243.497V241.927H304.06V124.158Z" fill="black"/>
<path d="M304.06 126.571H243.497V152.707H304.06V126.571Z" fill="#565661"/>
<path d="M304.06 155.228H243.497V210.743H304.06V155.228Z" fill="#565661"/>
<path d="M304.06 214.17H243.497V269.685H304.06V214.17Z" fill="#565661"/>
<path opacity="0.1" d="M304.06 214.17H243.497V269.685H304.06V214.17Z" fill="black"/>
<path d="M246.024 283.087C248.179 283.087 249.927 280.854 249.927 278.099C249.927 275.344 248.179 273.111 246.024 273.111C243.868 273.111 242.12 275.344 242.12 278.099C242.12 280.854 243.868 283.087 246.024 283.087Z" fill="#565661"/>
<path d="M300.157 283.325C302.313 283.325 304.06 281.092 304.06 278.337C304.06 275.583 302.313 273.35 300.157 273.35C298.001 273.35 296.253 275.583 296.253 278.337C296.253 281.092 298.001 283.325 300.157 283.325Z" fill="#565661"/>
<path d="M81.0985 287.527H86.3248L84.8881 121.23H76.9512L81.0985 287.527Z" fill="#EFEFF0"/>
<path d="M232.866 119.902V286.085H237.729V121.231L232.866 119.902Z" fill="#EFEFF0"/>
<path d="M85.1433 151.081V157.033H232.866V152.707L85.1433 151.081Z" fill="#EFEFF0"/>
<path d="M95.1568 108.729H282.434L309.65 117.739V122.965L76.0518 121.165V115.847L95.1568 108.729Z" fill="white"/>
<path d="M76.0518 115.847L309.65 117.739V122.965L76.0518 121.165V115.847Z" fill="#BCBEC9"/>
<path d="M97.2113 177.825L96.127 177.662C96.127 177.613 96.127 177.57 96.127 177.526C96.0944 177.272 96.0565 177.022 96.0186 176.767C96.4631 177.12 96.886 177.472 97.2763 177.825H97.2113Z" fill="url(#paint0_linear)"/>
<path d="M73.6499 261.537C74.3547 261.374 75.0703 261.239 75.7859 261.141C80.7008 260.441 85.7132 261.179 90.2177 263.266C89.7623 266.617 89.3123 270.081 90.2774 273.318C90.9496 275.594 92.2995 277.655 92.5869 280.029C93.3109 280.154 93.986 280.477 94.5365 280.964C95.0871 281.45 95.4914 282.08 95.7042 282.783C95.9122 283.405 96.0166 284.057 96.0132 284.713C96.0072 285.525 95.9053 286.333 95.7096 287.12C95.6437 287.75 95.3349 288.328 94.8489 288.733C94.3629 289.138 93.7381 289.338 93.1073 289.289C88.9111 289.766 84.7963 288.113 80.8929 286.492L73.3029 283.336C72.4138 282.968 71.5193 282.594 70.6681 282.138C69.0537 281.266 67.6203 280.094 66.4448 278.685C66.1963 278.433 66.0218 278.118 65.9406 277.774C65.7997 276.82 66.9165 276.25 67.6267 275.605C67.8347 275.409 68.0169 275.186 68.1688 274.944C69.0091 273.675 69.0905 271.924 69.5947 270.428C70.7874 266.877 74.4739 264.589 75.7751 261.125C75.8456 260.935 75.9106 260.745 75.9648 260.55" fill="#A26565"/>
<path opacity="0.1" d="M96.0132 284.713C96.0072 285.525 95.9053 286.333 95.7096 287.12C95.6437 287.75 95.3349 288.328 94.8489 288.733C94.3629 289.138 93.7381 289.338 93.1073 289.289C88.9111 289.766 84.7963 288.112 80.8929 286.491L73.3029 283.336C72.4138 282.968 71.5193 282.593 70.6681 282.138C69.0537 281.266 67.6203 280.094 66.4448 278.685C66.1963 278.433 66.0218 278.118 65.9406 277.774C65.7997 276.82 66.9165 276.25 67.6267 275.605C67.8347 275.409 68.0169 275.186 68.1688 274.944C70.2615 275.394 72.8583 276.711 74.4577 277.221C76.0596 277.657 77.5978 278.3 79.0333 279.135C81.0284 280.414 82.4651 282.387 84.1566 284.014C85.8481 285.64 88.0329 287.12 90.3912 286.92C91.6381 286.732 92.8399 286.316 93.9368 285.694L96.0132 284.713Z" fill="black"/>
<path d="M87.1275 207.67C87.2685 208.161 87.2558 208.685 87.0911 209.169C86.9263 209.654 86.6175 210.076 86.2059 210.38C85.4957 210.819 84.5794 210.76 83.8747 211.237C83.0018 211.849 82.8771 213.064 82.7253 214.116C82.1832 217.732 80.3887 221.012 78.8544 224.335C77.3202 227.658 76.0245 231.285 76.5883 234.896C76.9732 237.346 78.1768 239.959 77.0491 242.166C76.7726 242.708 76.3606 243.191 76.0461 243.716C74.501 246.297 75.3793 249.566 75.3197 252.57C75.3422 252.903 75.2689 253.236 75.1082 253.529C74.8712 253.806 74.5796 254.031 74.2516 254.191C73.7012 254.595 73.2492 255.119 72.9291 255.722C72.609 256.326 72.4292 256.994 72.403 257.677C72.3573 259.042 72.5218 260.406 72.8909 261.721C72.9506 262.252 73.1852 262.748 73.5577 263.131C73.9893 263.416 74.499 263.56 75.0161 263.543C78.4221 263.819 81.7631 264.631 84.9156 265.95C86.9703 266.806 88.9654 267.88 91.1502 268.292C91.3615 268.357 91.5839 268.379 91.8039 268.356C92.0239 268.333 92.2368 268.265 92.4296 268.156C92.7044 267.908 92.894 267.58 92.9718 267.218C93.8121 264.453 94.6633 261.602 94.3759 258.728C94.2513 257.492 93.9205 256.283 93.8338 255.047C93.4543 250.168 96.7559 245.766 97.8023 240.952C98.2739 238.783 98.2739 236.539 98.6101 234.348C99.5209 228.347 102.828 222.963 104.102 217.027C104.279 215.92 104.555 214.832 104.926 213.774C105.875 211.475 108.07 209.61 108.119 207.122C108.149 206.575 108.005 206.032 107.707 205.571C107.196 205.01 106.517 204.63 105.772 204.487C102.826 203.677 99.8284 203.072 96.7993 202.676C95.411 202.404 93.9941 202.305 92.5815 202.384C90.747 202.599 88.9837 203.222 87.4203 204.205C85.3276 205.496 86.6721 205.805 87.1275 207.67Z" fill="#454B69"/>
<path opacity="0.05" d="M87.1275 207.67C87.2685 208.161 87.2558 208.685 87.0911 209.169C86.9263 209.654 86.6175 210.076 86.2059 210.38C85.4957 210.819 84.5794 210.76 83.8747 211.237C83.0018 211.849 82.8771 213.064 82.7253 214.116C82.1832 217.732 80.3887 221.012 78.8544 224.335C77.3202 227.658 76.0245 231.285 76.5883 234.896C76.9732 237.346 78.1768 239.959 77.0491 242.166C76.7726 242.708 76.3606 243.191 76.0461 243.716C74.501 246.297 75.3793 249.566 75.3197 252.57C75.3422 252.903 75.2689 253.236 75.1082 253.529C74.8712 253.806 74.5796 254.031 74.2516 254.191C73.7012 254.595 73.2492 255.119 72.9291 255.722C72.609 256.326 72.4292 256.994 72.403 257.677C72.3573 259.042 72.5218 260.406 72.8909 261.721C72.9506 262.252 73.1852 262.748 73.5577 263.131C73.9893 263.416 74.499 263.56 75.0161 263.543C78.4221 263.819 81.7631 264.631 84.9156 265.95C86.9703 266.806 88.9654 267.88 91.1502 268.292C91.3615 268.357 91.5839 268.379 91.8039 268.356C92.0239 268.333 92.2368 268.265 92.4296 268.156C92.7044 267.908 92.894 267.58 92.9718 267.218C93.8121 264.453 94.6633 261.602 94.3759 258.728C94.2513 257.492 93.9205 256.283 93.8338 255.047C93.4543 250.168 96.7559 245.766 97.8023 240.952C98.2739 238.783 98.2739 236.539 98.6101 234.348C99.5209 228.347 102.828 222.963 104.102 217.027C104.279 215.92 104.555 214.832 104.926 213.774C105.875 211.475 108.07 209.61 108.119 207.122C108.149 206.575 108.005 206.032 107.707 205.571C107.196 205.01 106.517 204.63 105.772 204.487C102.826 203.677 99.8284 203.072 96.7993 202.676C95.411 202.404 93.9941 202.305 92.5815 202.384C90.747 202.599 88.9837 203.222 87.4203 204.205C85.3276 205.496 86.6721 205.805 87.1275 207.67Z" fill="black"/>
<path d="M76.5178 289.376H71.8933L68.8682 227.224L68.6567 223.69L72.5873 222.307L72.8529 226.064L76.5178 289.376Z" fill="#565661"/>
<path opacity="0.1" d="M72.8529 226.064L68.8682 227.224L68.6567 223.69L72.5873 222.307L72.8529 226.064Z" fill="black"/>
<path d="M134.543 302.522L126.915 303.444L91.7737 223.69L82.297 222.996L65.6533 227.853L62.4167 322.809H54.7888L57.7923 224.384L39.5275 224.85L6.93398 305.987H0L34.2796 211.161L35.6024 207.507L86.6884 205.756L99.4233 212.896L99.5859 213.308L134.543 302.522Z" fill="#565661"/>
<path opacity="0.1" d="M99.5859 213.308C88.6075 216.615 77.2117 220.225 77.2117 220.225C77.2117 220.225 66.8189 223.852 62.4167 220.225C61.8616 219.792 61.2412 219.45 60.5788 219.212C61.15 219.62 61.7668 219.96 62.4167 220.225L34.2795 211.155L35.5969 207.507L86.6883 205.756L99.4232 212.896L99.5859 213.308Z" fill="black"/>
<path d="M47.6216 197.569L68.4236 192.945C68.4236 192.945 118.127 202.194 121.825 205.891C121.825 205.891 82.0639 213.98 77.6725 216.734C73.2812 219.488 47.1554 222.535 47.6216 197.569Z" fill="white"/>
<path d="M38.6761 145.583C37.0497 150.739 32.6095 155.385 27.2044 155.608C26.8111 155.654 26.413 155.582 26.0605 155.401C25.3828 154.979 25.3665 153.987 25.643 153.233C25.9195 152.479 26.402 151.802 26.4779 151.01C26.4941 150.849 26.4831 150.686 26.4454 150.528C26.3044 149.882 25.7786 149.308 25.1605 149.443C25.5814 149.107 25.8617 148.625 25.9469 148.093C26.0321 147.561 25.916 147.016 25.6214 146.565C25.376 146.288 25.1547 145.99 24.9599 145.675C24.51 144.754 25.2093 143.718 25.5021 142.732C26.1039 140.563 24.575 138.395 24.4503 136.134C24.3419 134.112 25.3665 132.209 25.6214 130.203C26.028 126.95 24.4124 123.833 24.2226 120.585C24.0925 118.319 24.6509 116.075 25.2744 113.89C25.8165 111.938 26.4291 109.965 26.4671 107.926C26.4671 106.446 26.2123 104.982 26.1418 103.508C26.0293 102.16 26.2743 100.806 26.852 99.5826C27.2274 98.8634 27.8666 98.3175 28.6357 98.0592C30.4139 97.4629 31.5795 98.3899 31.8397 100.076C32.2734 102.944 32.024 105.871 32.5933 108.75C33.1196 111.442 33.917 114.074 34.9733 116.606C35.9329 118.894 37.0985 121.106 37.8358 123.475C38.3909 125.428 38.7879 127.422 39.0231 129.438C39.7496 134.854 40.3188 140.428 38.6761 145.583Z" fill="#98D800"/>
<path d="M162.154 276.803C161.469 277.77 160.586 278.581 159.565 279.182C158.544 279.784 157.407 280.163 156.229 280.295C153.876 280.587 151.431 279.996 149.148 280.642C148.795 280.7 148.461 280.845 148.178 281.063C147.894 281.282 147.669 281.567 147.522 281.894C147.465 282.335 147.431 282.778 147.419 283.222C147.153 284.67 145.25 284.995 143.77 284.984L137.666 284.946C136.397 284.946 134.993 284.876 134.082 283.997C133.649 283.518 133.405 282.897 133.395 282.251C133.385 281.605 133.61 280.977 134.028 280.484C134.217 280.26 134.45 280.076 134.711 279.942C134.33 279.816 133.991 279.587 133.733 279.279C133.474 278.972 133.306 278.599 133.247 278.202C133.136 277.405 133.175 276.594 133.361 275.811C133.361 273.545 133.903 269.75 135.497 267.977C137.454 265.771 140.848 262.919 143.803 262.328C144.801 262.137 145.829 262.182 146.807 262.459C147.784 262.737 148.682 263.24 149.43 263.927C150.829 265.229 151.848 267.267 153.767 267.495C154.814 267.625 155.822 267.131 156.858 266.953C158.035 266.801 159.229 267.017 160.279 267.571C161.328 268.126 162.18 268.991 162.718 270.048C162.981 270.584 163.164 271.156 163.26 271.745C163.547 273.51 163.151 275.319 162.154 276.803Z" fill="#A26565"/>
<path opacity="0.1" d="M162.154 276.803C161.469 277.77 160.586 278.581 159.565 279.182C158.544 279.784 157.407 280.163 156.229 280.295C153.876 280.587 151.431 279.996 149.148 280.642C148.795 280.7 148.462 280.845 148.178 281.063C147.894 281.282 147.669 281.567 147.522 281.894C147.466 282.335 147.431 282.778 147.419 283.222C147.153 284.67 145.25 284.995 143.77 284.984L137.666 284.946C136.397 284.946 134.993 284.876 134.082 283.997C133.649 283.518 133.405 282.897 133.395 282.251C133.385 281.605 133.61 280.977 134.028 280.484C137.552 280.338 141.016 280.484 144.529 279.758C145.955 279.471 147.359 279.091 148.801 278.89C151.924 278.446 155.248 278.825 158.115 277.503C160.506 276.418 162.219 274.212 163.233 271.75C163.526 273.511 163.141 275.316 162.154 276.803Z" fill="black"/>
<path d="M146.048 268.232C143.879 269.913 141.336 271.225 138.604 271.366C135.872 271.506 132.971 270.281 131.632 267.907C129.675 264.421 131.41 259.574 129.014 256.375C128.265 255.372 127.187 254.662 126.395 253.692C125.604 252.721 125.148 251.263 125.853 250.233C125.002 250.558 124.102 249.734 123.852 248.856C123.603 247.978 123.76 247.034 123.608 246.145C123.213 243.787 120.898 242.274 119.786 240.182C118.675 238.089 118.827 235.373 118.702 232.895C118.425 226.859 116.178 221.079 112.305 216.441C111.568 215.563 110.624 214.668 109.475 214.712C109.675 212.728 108.353 210.83 106.639 209.833C104.926 208.835 102.888 208.499 100.904 208.304C80.8823 206.33 60.0207 213.774 40.9048 207.512C35.5864 205.772 30.4577 202.861 27.2049 198.296C25.9378 196.558 25.0313 194.585 24.5388 192.492C24.0462 190.399 23.9776 188.228 24.337 186.108V186.033C25.0906 182.183 27.1236 181.235 30.4903 179.478C34.3769 177.423 38.4392 175.72 42.6288 174.387C50.7609 171.845 59.5165 170.928 67.9089 172.793C71.8286 173.672 75.6073 175.125 79.5324 175.976C81.0775 176.312 82.6334 176.55 84.2002 176.751C86.6344 177.055 89.0795 177.255 91.53 177.537C99.3654 178.439 107.082 180.175 114.549 182.715C117.33 183.658 120.112 184.737 122.502 186.445C124.394 187.818 125.993 189.554 127.206 191.551C128.42 193.549 129.224 195.768 129.572 198.079C129.8 199.673 129.805 201.332 130.152 202.877C130.481 204.175 130.916 205.445 131.453 206.672C136.086 218.125 139.871 229.903 142.779 241.911C142.943 242.803 143.249 243.663 143.684 244.459C144.378 245.581 145.571 246.335 146.27 247.457C147.896 250.103 146.33 253.795 147.772 256.549C148.27 257.503 149.1 258.257 149.599 259.211C151.225 262.339 148.823 266.08 146.048 268.232Z" fill="#454B69"/>
<path opacity="0.1" d="M118.344 205.94C119.115 205.33 119.78 204.597 120.312 203.771C120.846 202.941 121.058 201.944 120.908 200.969C121.12 202.203 121.039 203.469 120.673 204.667C120.307 205.864 119.665 206.96 118.799 207.865C117.439 209.258 114.885 210.624 112.896 210.147C113.177 208.553 117.081 207.013 118.344 205.94Z" fill="black"/>
<path opacity="0.1" d="M84.4711 178.92C84.3074 179.501 84.0017 180.032 83.5814 180.465C83.1612 180.899 82.6397 181.221 82.064 181.403C80.908 181.756 79.6976 181.897 78.4913 181.82H77.407C63.1812 181.506 48.8036 178.35 34.9085 181.359C33.2339 181.704 31.5909 182.189 29.9967 182.807C27.9656 183.607 26.0639 184.703 24.353 186.06V185.984C25.1066 182.135 27.1396 181.186 30.5063 179.429C34.3894 177.392 38.4462 175.705 42.6286 174.387C50.7607 171.845 59.5163 170.928 67.9087 172.793C71.8283 173.672 75.6071 175.125 79.5322 175.976C81.0773 176.312 82.6332 176.55 84.2 176.751C84.5039 177.431 84.5983 178.186 84.4711 178.92Z" fill="black"/>
<path d="M84.4709 178.144C84.3085 178.727 84.0033 179.259 83.5829 179.694C83.1626 180.128 82.6404 180.451 82.0638 180.633C80.908 180.987 79.6972 181.127 78.4911 181.045H77.4068C63.181 180.73 48.8034 177.575 34.9084 180.584C33.2345 180.93 31.5917 181.412 29.9966 182.026C27.8696 182.874 25.8856 184.044 24.1143 185.496C23.6987 184.354 23.2848 183.21 22.8728 182.064C22.374 180.698 23.9571 180.394 24.2607 179.169C24.4613 178.339 24.1197 177.396 23.9463 176.512C23.9018 176.296 23.8728 176.077 23.8595 175.856C23.7619 173.899 24.4613 172.772 26.066 171.715C30.826 168.57 36.6324 166.412 42.0646 164.791C44.9526 163.878 47.9358 163.3 50.9557 163.067C55.2278 162.818 59.4945 163.61 63.6527 164.612C68.7651 165.876 73.8233 167.545 78.3556 170.218C80.5783 171.514 82.7469 173.14 83.945 175.45C84.4232 176.261 84.6088 177.212 84.4709 178.144Z" fill="#A26565"/>
<path opacity="0.1" d="M38.6763 145.583C37.0499 150.739 32.6098 155.385 27.2046 155.608C26.8113 155.654 26.4132 155.582 26.0607 155.402C25.383 154.979 25.3668 153.987 25.6433 153.233C25.9197 152.48 26.4022 151.802 26.4781 151.01C26.4943 150.849 26.4833 150.686 26.4456 150.528C29.3135 146.483 32.0947 142.396 33.1953 137.609C33.4181 136.784 33.4861 135.926 33.3959 135.077C33.2495 134.101 32.7561 133.217 32.4851 132.274C32.008 130.604 32.2303 128.837 32.3658 127.107C32.9303 119.492 31.6586 111.852 28.6576 104.831C27.9257 103.139 27.0908 101.426 26.836 99.6207C27.2113 98.9015 27.8505 98.3555 28.6196 98.0973C30.3978 97.5009 31.5634 98.428 31.8237 100.114C32.2574 102.982 32.008 105.91 32.5772 108.788C33.1035 111.48 33.901 114.112 34.9572 116.644C35.9168 118.932 37.0824 121.144 37.8197 123.513C38.3748 125.466 38.7719 127.46 39.007 129.476C39.7498 134.854 40.319 140.428 38.6763 145.583Z" fill="black"/>
<path opacity="0.1" d="M84.471 178.144C84.3086 178.727 84.0033 179.259 83.583 179.694C83.1627 180.128 82.6405 180.451 82.0639 180.633C80.9081 180.987 79.6973 181.127 78.4912 181.045H77.4069C72.7761 177.969 67.2088 176.625 61.6848 177.25C59.9174 177.461 58.15 177.873 56.3827 177.711C52.81 177.385 49.9149 174.816 46.7326 173.173C43.1113 171.385 39.0383 170.72 35.0363 171.262C31.0343 171.805 27.2857 173.532 24.2716 176.22L23.9626 176.491C23.9181 176.275 23.8891 176.055 23.8759 175.835C23.7783 173.878 24.4777 172.75 26.0824 171.693C30.8424 168.548 36.6487 166.391 42.081 164.77C44.9689 163.857 47.9522 163.278 50.9721 163.046C55.2442 162.796 59.5108 163.588 63.669 164.591C68.7814 165.854 73.8396 167.524 78.3719 170.197C80.5784 171.514 82.747 173.14 83.9451 175.45C84.4233 176.262 84.6089 177.213 84.471 178.144Z" fill="black"/>
<path d="M96.6313 118.758L96.5554 118.953C95.341 122.103 93.1074 124.765 91.6761 127.834C89.8708 131.721 89.4262 136.08 89.0251 140.352C88.6781 144.011 88.3366 147.692 88.613 151.363C89.307 160.406 93.7254 168.982 94.9073 177.852C95.1985 179.9 95.273 181.974 95.1296 184.038C95.032 185.344 94.7934 186.748 93.926 187.713C93.0586 188.678 91.3725 189.058 90.4401 188.131C90.8575 187.334 91.2804 186.542 91.7032 185.745C89.2257 183.821 85.4957 185.203 82.6007 184C81.3267 183.457 80.3074 182.482 79.2394 181.609C76.8019 179.627 73.9928 178.152 70.9772 177.272C67.9617 176.391 64.8005 176.122 61.6795 176.48C59.9121 176.697 58.1447 177.109 56.3773 176.946C52.8046 176.616 49.9096 174.051 46.7272 172.409C43.1061 170.621 39.0338 169.956 35.0321 170.498C31.0304 171.04 27.2817 172.764 24.2663 175.45C23.5073 176.155 22.4881 176.979 21.5556 176.534C21.1952 176.314 20.904 175.996 20.7153 175.618C17.1642 169.552 19.7774 161.728 23.5724 155.819C27.3673 149.91 32.393 144.461 33.9544 137.614C34.1798 136.79 34.2478 135.931 34.155 135.082C34.0086 134.106 33.5152 133.223 33.2442 132.279C32.7671 130.61 32.9893 128.842 33.1249 127.113C33.6937 119.497 32.4257 111.855 29.4275 104.831C28.5601 102.809 27.53 100.759 27.53 98.5636C27.53 95.1047 30.0076 92.2368 32.0569 89.4556C34.4152 86.257 36.394 82.7168 39.3812 80.0874C42.2112 77.5881 46.3098 76.0593 49.812 77.3279C55.763 75.8831 61.8883 75.2863 68.0063 75.5551C70.1206 75.6527 72.3054 75.875 74.1596 76.8996C76.1438 77.9839 77.5696 79.9139 79.5213 81.0687C80.9472 81.9198 82.5899 82.321 84.1404 82.9174C88.4218 84.5895 91.9561 87.7504 94.0941 91.8193C96.2626 96.0209 96.8048 100.851 97.2819 105.557C97.7373 109.986 98.171 114.589 96.6313 118.758Z" fill="#98D800"/>
<path opacity="0.1" d="M88.6131 151.363C89.307 160.406 93.7255 168.982 94.9073 177.852C92.5436 175.851 89.2528 173.84 88.8137 171.514C88.3257 168.998 86.7644 165.702 86.5041 163.16C86.2439 160.617 88.0276 157.511 86.1572 155.765C85.2464 154.914 87.6697 155.152 86.7806 154.279C84.7801 152.333 84.2868 149.335 84.1621 146.554C83.9506 141.631 84.5741 136.654 83.6687 131.813C83.1266 128.826 81.9935 125.98 81.0881 123.079C80.0364 119.702 79.2774 116.243 78.5184 112.778C77.7714 109.698 77.2281 106.573 76.892 103.421C76.6589 100.71 76.7673 97.837 77.9763 95.3649C79.1852 92.8927 81.6303 90.8868 84.3735 90.9247C93.5466 91.044 91.9635 103.481 93.9803 109.227C94.7881 111.515 95.8778 113.727 96.3169 116.113C96.4771 117.048 96.5641 117.994 96.5771 118.943C95.3627 122.092 93.1291 124.754 91.6979 127.823C89.8925 131.71 89.448 136.069 89.0468 140.341C88.6781 144.011 88.3366 147.692 88.6131 151.363Z" fill="black"/>
<path d="M94.5766 109.086C95.3843 111.374 96.4741 113.586 96.9132 115.972C97.6451 119.967 96.512 124.212 97.7427 128.083C98.063 128.909 98.331 129.755 98.545 130.615C98.7565 131.845 98.5125 133.103 98.5125 134.356C98.5125 136.372 99.1468 138.324 99.7106 140.26C101.617 146.837 102.879 153.584 103.479 160.405C103.568 162.239 103.857 164.056 104.341 165.827C104.568 166.427 104.764 167.039 104.926 167.659C105.072 168.488 105.106 169.332 105.029 170.169C104.883 172.826 104.584 175.493 104.883 178.139C105.181 180.785 106.146 183.468 108.136 185.241C106.357 185.626 104.476 186.011 102.741 185.442C100.302 184.645 98.8378 182.189 97.5963 179.955C96.0241 177.103 90.0497 174.534 89.4316 171.33C88.9491 168.819 87.3878 165.523 87.1275 162.975C86.8673 160.427 88.6455 157.332 86.7751 155.586C85.8698 154.735 88.2931 154.968 87.3986 154.1C85.4035 152.154 84.9102 149.156 84.7855 146.369C84.5741 141.452 85.1921 136.475 84.2921 131.634C83.75 128.647 82.6169 125.801 81.7115 122.895C80.6598 119.523 79.9008 116.064 79.1418 112.594C78.3926 109.514 77.8493 106.388 77.5154 103.237C77.2823 100.526 77.3853 97.6472 78.5997 95.175C79.8141 92.7029 82.2591 90.7024 84.9969 90.7349C94.132 90.8975 92.5598 103.34 94.5766 109.086Z" fill="#98D800"/>
<path opacity="0.1" d="M68.4344 111.206C69.291 112.209 70.3916 113.31 71.6873 113.115C71.5889 113.27 71.4333 113.382 71.2539 113.424C71.0745 113.467 70.8856 113.437 70.7277 113.342C70.4166 113.136 70.1674 112.849 70.0066 112.513L68.1525 109.385C67.9085 108.978 66.2279 106.609 65.8159 107.975C65.6532 108.555 68.017 110.718 68.4344 111.206Z" fill="black"/>
<path opacity="0.1" d="M67.437 119.008C67.3837 117.985 66.9529 117.02 66.228 116.297C65.5763 115.706 64.8158 115.247 63.9889 114.947C61.9559 114.112 59.5488 113.44 57.3423 113.548C58.1447 114.719 60.7198 115.419 62.0101 116.08C63.8389 117.023 65.6479 117.999 67.437 119.008Z" fill="black"/>
<path opacity="0.1" d="M73.2108 141.214C72.8367 143.989 70.5652 146.093 68.2665 147.719C65.9678 149.346 63.3872 150.744 61.8855 153.097C60.8446 154.724 60.3783 156.61 59.4946 158.307C58.5188 160.178 57.0604 161.75 55.8948 163.506C54.7292 165.263 53.8184 167.361 54.1762 169.443C54.1814 169.539 54.2061 169.632 54.249 169.718C54.292 169.804 54.3521 169.88 54.4256 169.942C54.5373 169.989 54.6592 170.007 54.7798 169.993C54.9003 169.98 55.0154 169.936 55.1141 169.866C57.4779 168.63 58.4103 165.805 59.4025 163.36C60.444 160.892 61.6167 158.482 62.9155 156.139C63.5011 155.055 64.1462 153.873 65.2359 153.271C65.982 152.96 66.746 152.694 67.5238 152.474C68.627 151.968 69.5949 151.208 70.3483 150.257C73.3078 146.726 74.8531 142.223 74.6854 137.619C74.6529 136.649 74.5987 131.976 73.1403 133.418C71.682 134.86 73.4602 139.327 73.2108 141.214Z" fill="black"/>
<path d="M76.7833 34.7533C81.4457 36.7864 85.4576 41.259 85.3112 46.3281C85.1865 51.6519 80.7301 56.6667 82.2643 61.7682C83.1535 64.7283 85.8316 66.7126 87.9514 68.9625C96.0239 77.5066 96.0076 92.4209 87.908 100.949C84.807 104.202 80.8223 106.517 77.5423 109.623C65.9784 120.52 65.4851 139.37 71.6763 154.003C66.9326 155.029 62.0976 155.574 57.2445 155.629C54.973 155.629 52.1918 155.244 51.3677 153.124C50.6087 151.167 51.9099 148.522 50.4135 147.074C49.7088 146.397 48.6516 146.304 47.7028 146.147C41.5983 145.16 36.589 140.287 34.3011 134.545C32.0133 128.804 32.1325 122.342 33.4445 116.302C34.377 111.938 35.8354 107.135 33.6722 103.231C30.9615 98.3194 23.1655 96.2484 23.2848 90.6318C23.3824 86.0291 28.8092 83.79 31.8886 80.3691C37.5702 74.0694 34.8649 64.2946 34.8541 55.8047C34.8541 48.334 37.4672 40.6247 43.0296 35.6479C51.3027 28.1826 67.2362 30.606 76.7833 34.7533Z" fill="#2F2E41"/>
<g opacity="0.1">
<path opacity="0.1" d="M34.5611 97.6635C32.1811 93.3697 25.9303 91.2445 24.4773 87.0212C23.7504 88.0068 23.3419 89.1909 23.3063 90.4151C23.187 96.0316 30.9722 98.1026 33.6937 103.02C34.5874 104.761 34.9637 106.721 34.778 108.669C35.6346 104.896 36.3882 100.96 34.5611 97.6635Z" fill="black"/>
<path opacity="0.1" d="M82.8875 54.818C83.8633 51.9718 85.2783 49.0985 85.3488 46.1438C85.3587 45.8237 85.3496 45.5033 85.3217 45.1842C84.232 48.4479 82.5622 51.614 82.8875 54.818Z" fill="black"/>
<path opacity="0.1" d="M35.4938 69.9818C37.3588 64.0887 35.7486 56.7806 35.7432 50.2424C35.7432 49.4509 35.7757 48.654 35.8354 47.8624C35.193 50.3892 34.8688 52.9862 34.8704 55.5934C34.8812 60.2612 35.6998 65.3248 35.4938 69.9818Z" fill="black"/>
<path opacity="0.1" d="M88.8134 95.4028C85.7124 98.6556 81.7276 100.971 78.4477 104.077C72.5926 109.591 69.5837 117.143 68.8301 125.15C70.2288 119.187 73.0534 113.695 77.5802 109.428C80.8331 106.338 84.8449 104.034 87.946 100.754C91.6347 96.7338 93.7768 91.535 93.9909 86.0834C93.0546 89.5671 91.2767 92.7674 88.8134 95.4028Z" fill="black"/>
<path opacity="0.1" d="M58.15 150.067C55.8784 150.067 53.0972 149.677 52.2732 147.557C51.5142 145.605 52.8153 142.959 51.319 141.507C50.6142 140.829 49.5516 140.737 48.6083 140.579C42.5092 139.598 37.4998 134.719 35.212 128.983C33.5259 124.743 33.1627 120.119 33.5856 115.554C33.5422 115.733 33.5043 115.912 33.4663 116.096C32.176 122.136 32.0405 128.604 34.3229 134.345C36.6053 140.086 41.6201 144.96 47.7192 145.941C48.6842 146.098 49.7468 146.196 50.4299 146.868C51.9425 148.321 50.6251 150.967 51.3841 152.919C52.2081 155.038 54.9893 155.456 57.2609 155.429C62.1139 155.373 66.9489 154.828 71.6927 153.802C71.0236 152.221 70.4391 150.605 69.9416 148.961C66.0481 149.653 62.1042 150.023 58.15 150.067Z" fill="black"/>
</g>
<path opacity="0.1" d="M75.9051 126.424C77.2442 127.433 78.6972 123.589 77.8677 122.629C77.6454 122.879 75.6991 126.283 75.9051 126.424Z" fill="black"/>
<path opacity="0.1" d="M81.6138 196.003C83.1914 195.46 84.8666 194.918 85.8967 193.617C86.7478 192.571 87.4472 188.418 85.6473 190.408C84.1185 192.115 83.3974 194.365 81.6138 196.003Z" fill="black"/>
<path opacity="0.1" d="M97.6774 191.649C97.4876 192.929 97.1352 194.257 96.2298 195.178C96.0618 195.352 95.6877 195.46 95.6389 195.227C96.6502 194.689 97.59 194.026 98.4364 193.254C100.269 191.438 100.518 186.965 97.7262 185.778C97.6991 187.74 97.9756 189.654 97.6774 191.649Z" fill="black"/>
<path d="M116.962 183.587C116.962 183.587 101.576 177.543 96.0134 178.166C90.451 178.79 102.313 187.556 102.313 187.556L109.404 192.338C109.404 192.338 113.741 190.711 114.029 190.587C114.316 190.462 116.962 183.587 116.962 183.587Z" fill="#454B69"/>
<path d="M11.0977 118.737C11.0977 118.737 22.6561 112.036 37.912 120.363C53.1678 128.69 55.7105 177.695 55.7105 177.695C55.7105 177.695 49.4704 227.62 73.5307 216.512C73.5307 216.512 117.444 202.877 121.841 205.88C121.841 205.88 126.005 205.88 117.683 207.729C109.361 209.578 77.2118 219.765 77.2118 219.765C77.2118 219.765 66.8189 223.397 62.4168 219.765C58.0146 216.132 45.5399 220.231 43.9189 195.26C42.8461 179.524 40.9169 163.858 38.1397 148.332L33.8513 135.619L11.0977 118.737Z" fill="#565661"/>
<path d="M9.70989 195.948C9.70989 195.948 14.7952 145.323 6.45704 127.058C-0.796808 111.141 27.2536 118.585 34.5725 120.753C35.7052 121.092 36.6931 121.798 37.3808 122.759C41.7179 128.858 57.2774 153.303 52.6909 186.011C52.6909 186.011 50.8422 215.14 62.4006 219.759L26.7873 208.287C23.8977 207.355 20.9647 206.58 18.0046 205.907C14.2313 205.051 8.08347 202.617 9.70989 195.948Z" fill="#D9D9DE"/>
<path d="M263.003 290.46H267.628L270.658 228.309L270.864 224.774L266.934 223.391L266.674 227.149L263.003 290.46Z" fill="#565661"/>
<path opacity="0.1" d="M266.674 227.149L270.659 228.309L270.865 224.774L266.934 223.391L266.674 227.149Z" fill="black"/>
<path d="M224.392 266.459C224.278 267.31 224.06 268.144 223.742 268.942C223.413 269.984 222.707 270.865 221.763 271.414C221.128 271.676 220.449 271.811 219.762 271.81C217.209 271.962 214.509 271.924 212.313 270.623C211.378 270.02 210.52 269.304 209.76 268.492C204.826 263.59 200.34 258.255 196.358 252.553C195.691 251.594 195.003 250.46 195.301 249.3C200.46 247.869 205.359 245.628 209.814 242.659C210.429 242.187 211.118 241.821 211.852 241.575C213.11 241.306 214.406 241.258 215.68 241.434C216.911 241.634 216.965 241.672 217.436 243.06C218.217 245.408 218.087 247.94 218.965 250.287C219.523 251.584 220.202 252.826 220.993 253.995C223.259 257.785 224.999 262.257 224.392 266.459Z" fill="#A26565"/>
<path opacity="0.1" d="M224.392 266.459C224.278 267.311 224.06 268.145 223.742 268.942C223.413 269.984 222.707 270.866 221.763 271.414C221.128 271.676 220.449 271.811 219.762 271.81C217.209 271.962 214.509 271.924 212.313 270.623C211.378 270.02 210.52 269.305 209.76 268.492C204.826 263.59 200.34 258.256 196.358 252.553C195.691 251.594 195.003 250.461 195.301 249.3C196.984 248.834 198.641 248.28 200.267 247.641L200.348 247.701C202.012 248.888 203.221 250.591 204.398 252.261L208.193 257.601C208.869 258.649 209.668 259.614 210.573 260.474C211.694 261.374 212.933 262.118 214.254 262.686C216.038 263.548 217.821 264.41 219.675 265.104C220.874 265.586 222.901 265.776 224.392 266.459Z" fill="black"/>
<path d="M227.895 208.564C227.521 209.465 227.067 210.33 226.539 211.15C221.5 219.611 217.613 228.707 214.981 238.197C214.233 238.029 213.81 239.048 213.815 239.824C213.821 240.599 213.815 241.575 213.099 241.857C212.888 241.938 212.65 241.938 212.443 242.03C211.988 242.236 211.858 242.816 211.793 243.315L211.153 248.01C210.931 249.636 210.736 251.398 211.533 252.835C212.083 253.689 212.796 254.426 213.631 255.004L224.213 263.353C224.647 263.694 225.184 264.057 225.704 263.868C226.892 263.434 225.84 261.309 226.789 260.447C227.417 259.856 228.415 260.3 229.288 260.23C230.426 260.143 231.288 259.097 231.576 257.996C231.777 256.876 231.798 255.73 231.635 254.603C231.564 254.088 231.623 253.564 231.809 253.079C232.132 252.565 232.577 252.139 233.105 251.838C234.941 250.497 236.42 248.726 237.414 246.681C238.407 244.635 238.884 242.378 238.802 240.106C238.716 239.414 238.742 238.713 238.878 238.029C239.099 237.403 239.431 236.823 239.86 236.316C243.703 231.117 246.907 225.473 250.09 219.84C251.922 216.588 253.787 213.286 254.427 209.621C254.482 209.485 254.505 209.337 254.494 209.191C254.483 209.044 254.437 208.902 254.362 208.775C254.286 208.649 254.182 208.542 254.058 208.463C253.934 208.384 253.793 208.335 253.646 208.32C252.059 207.824 250.439 207.437 248.799 207.16C243.817 206.151 239.008 204.595 234.162 203.099C229.315 201.603 229.353 204.65 227.895 208.564Z" fill="#454B69"/>
<path d="M204.978 303.607L212.611 304.528L247.748 224.774L257.224 224.08L273.873 228.938L277.104 323.894H284.732L281.729 225.468L299.994 225.934L332.587 307.071H339.521L305.242 212.245L303.924 208.591L252.833 206.84L240.098 213.98L239.935 214.392L204.978 303.607Z" fill="#565661"/>
<path opacity="0.1" d="M239.936 214.392C250.914 217.699 262.31 221.31 262.31 221.31C262.31 221.31 272.703 224.937 277.105 221.31C277.66 220.877 278.28 220.534 278.943 220.296C278.371 220.704 277.755 221.044 277.105 221.31L305.242 212.24L303.941 208.591L252.849 206.84L240.114 213.98L239.936 214.392Z" fill="black"/>
<path d="M291.899 198.654L271.097 194.029C271.097 194.029 221.394 203.278 217.697 206.975C217.697 206.975 257.457 215.064 261.849 217.818C266.24 220.572 292.366 223.619 291.899 198.654Z" fill="white"/>
<path d="M214.71 272.97C213.457 275.356 210.373 276.028 207.662 276.066C203.898 276.113 200.16 275.445 196.646 274.098C194.64 273.328 192.715 272.336 190.644 271.772C187.559 270.927 184.138 270.997 181.428 269.3C179.99 268.342 178.802 267.054 177.963 265.543C177.806 265.277 177.654 265.001 177.513 264.719C176.218 262.198 175.616 259.265 176.337 256.544C177.058 253.822 179.677 250.824 182.713 250.867C186.318 250.922 190.617 252.629 194.098 253.513C198.435 254.597 202.772 255.85 206.605 258.143C209.814 260.073 212.65 262.843 214.162 266.226C214.453 266.879 214.692 267.553 214.878 268.243C215.349 269.804 215.458 271.545 214.71 272.97Z" fill="#A26565"/>
<path opacity="0.1" d="M214.71 272.97C213.457 275.356 210.373 276.028 207.662 276.066C203.898 276.112 200.16 275.445 196.646 274.098C194.64 273.328 192.715 272.336 190.644 271.772C187.559 270.926 184.138 270.997 181.428 269.3C179.99 268.342 178.802 267.053 177.963 265.543C177.806 265.277 177.654 265.001 177.513 264.719C178.056 264.762 178.554 264.816 178.825 264.844C182.154 265.163 185.331 266.378 188.508 267.294C192.919 268.568 197.473 269.278 202.062 269.408C205.314 269.501 208.708 269.262 211.549 267.674C212.397 267.138 213.277 266.655 214.184 266.226C214.475 266.879 214.714 267.553 214.9 268.243C215.349 269.804 215.458 271.544 214.71 272.97Z" fill="black"/>
<path d="M238.005 169.888C230.958 168.733 223.78 168.451 216.634 168.169L207.895 167.822C207.273 167.75 206.644 167.826 206.057 168.044C205.552 168.369 205.071 168.732 204.62 169.129C203.742 169.725 202.62 169.79 201.563 169.85C194.063 170.263 186.605 171.23 179.248 172.745C175.453 173.52 171.512 174.534 168.66 177.152C165.646 179.923 164.323 184.146 164.22 188.234C164.117 192.321 165.19 196.339 166.323 200.264C167.766 204.989 168.563 209.887 168.693 214.826C168.642 216.196 168.694 217.568 168.85 218.93C169.102 220.23 169.485 221.501 169.994 222.725L173.984 233.378C174.336 234.31 174.683 235.237 175.068 236.148C175.453 237.059 175.822 237.774 176.152 238.631C176.64 239.802 177.025 241.017 177.41 242.225L180.067 250.569L180.414 251.653C181.373 254.657 182.355 257.714 184.165 260.295C185.976 262.876 188.779 264.957 191.929 265.115C192.945 265.077 193.963 265.104 194.976 265.196C195.839 265.407 196.677 265.71 197.475 266.101C199.84 267.084 202.379 267.58 204.94 267.56C207.299 267.56 209.917 266.904 211.197 264.92C211.901 263.835 212.086 262.502 212.281 261.222C212.622 258.652 212.953 255.969 212.08 253.529C211.538 252.071 210.627 250.818 209.998 249.382C209.12 247.425 208.833 245.261 208.264 243.196C207.032 238.75 204.525 234.762 201.053 231.724C199.82 226.842 198.914 221.883 198.342 216.88C198.263 215.773 198.042 214.68 197.686 213.628C197.052 212.001 195.767 210.684 195.23 209.025C194.726 207.485 194.878 205.707 193.962 204.379C201.59 206.477 209.142 206.005 217.062 205.88C219.599 205.888 222.133 205.744 224.652 205.447C225.827 205.231 227.016 205.104 228.209 205.067C230.659 205.067 232.958 206.151 235.208 207.106C241.567 209.816 248.268 211.947 255.175 212.24C262.304 212.538 269.352 210.863 276.319 209.204C279.382 208.472 282.564 207.68 284.993 205.669C287.422 203.658 288.788 200.031 287.291 197.271C286.153 195.195 283.795 194.176 281.594 193.308C275.5 190.901 269.374 188.553 263.502 185.642C254.535 181.273 247.829 171.514 238.005 169.888Z" fill="#454B69"/>
<path d="M225.438 145.361C224.587 147.205 223.156 148.712 222.099 150.447C220.33 153.302 219.747 156.736 220.472 160.015C220.853 161.637 221.602 163.149 222.659 164.435C223.716 165.722 225.055 166.749 226.571 167.437C227.925 167.977 229.349 168.32 230.8 168.456C232.708 168.69 234.741 168.738 236.428 167.817C237.689 167.059 238.725 165.977 239.426 164.683C240.884 162.244 241.713 159.495 242.472 156.757C243.877 151.704 245.075 146.521 244.901 141.279C244.842 139.474 244.484 137.441 242.987 136.4C242.215 135.954 241.358 135.673 240.472 135.576L233.321 134.296C231.939 134.047 229.526 133.033 228.328 134.03C227.13 135.028 227.038 137.977 226.832 139.36C226.506 141.404 226.306 143.48 225.438 145.361Z" fill="#F8BBC4"/>
<path d="M312.36 124.391L310.49 140.07C310.102 142.866 309.88 145.683 309.823 148.505C309.823 150.078 309.872 151.823 308.831 153C308.321 153.535 307.677 153.923 306.966 154.122C304.694 154.827 302.217 154.198 300.048 153.227C298.779 152.685 297.484 151.899 296.909 150.636C296.575 149.76 296.436 148.822 296.502 147.887C296.502 138.535 297.386 128.782 302.271 120.813C302.687 120.031 303.275 119.353 303.989 118.829C305.345 117.961 307.117 118.205 308.652 118.677C309.595 118.964 312.143 119.284 312.745 120.124C313.347 120.965 312.49 123.312 312.36 124.391Z" fill="#A1616A"/>
<path d="M262.738 67.6938C273.517 67.6938 282.255 58.9557 282.255 48.1768C282.255 37.3978 273.517 28.6597 262.738 28.6597C251.959 28.6597 243.221 37.3978 243.221 48.1768C243.221 58.9557 251.959 67.6938 262.738 67.6938Z" fill="#F8BBC4"/>
<path d="M257.517 77.2627C257.447 78.7812 257.033 80.264 256.308 81.5999C266.273 80.0819 276.212 78.3904 286.126 76.5254C282.837 74.8346 280.35 71.9112 279.208 68.3933C278.669 66.5069 278.374 64.5592 278.33 62.5978C278.173 59.4874 278.232 56.3697 278.509 53.2676C275.039 53.6308 271.754 54.9319 268.447 56.0487C265.122 57.1724 261.739 58.1189 258.314 58.8842C256.66 59.2528 254.996 59.5672 253.326 59.86C251.375 60.207 250.437 60.2016 251.792 61.9147C255.43 66.4904 258.027 71.142 257.517 77.2627Z" fill="#F8BBC4"/>
<path d="M263.513 74.655C260.938 75.0399 258.238 75.4737 256.183 77.0676C255.401 77.7393 254.657 78.4542 253.955 79.209C249.873 83.1721 244.11 84.766 239.155 87.5634C238.346 87.9629 237.63 88.526 237.051 89.2169C236.509 89.9705 236.232 90.9301 235.663 91.6783C235.002 92.5457 233.955 93.0878 233.44 94.0474C232.925 95.007 233.039 96.0262 232.985 97.0455C232.86 99.2845 232.015 101.41 231.359 103.551C228.35 113.803 229.998 125.237 225.444 134.919C225.653 135.477 225.974 135.987 226.385 136.417C226.797 136.848 227.292 137.19 227.84 137.424C228.986 137.837 230.182 138.094 231.397 138.189L241.486 139.441C242.928 139.62 244.457 139.788 245.774 139.186C244.569 142.508 243.717 145.948 243.232 149.449C242.986 151.589 242.606 153.711 242.093 155.803C240.705 160.574 237.214 164.547 233.077 167.264C232.556 167.536 232.117 167.942 231.803 168.44C231.261 169.524 232.063 170.739 232.633 171.801C234.286 174.881 234.058 178.578 234.037 182.069C234.015 185.561 234.367 189.394 236.807 191.898C238.249 193.379 240.223 194.181 242.142 194.945L257.924 201.25C260.528 202.359 263.214 203.266 265.958 203.961C270.116 204.91 274.437 204.872 278.704 204.688C281.523 204.568 284.338 204.388 287.15 204.145C288.269 204.142 289.368 203.852 290.344 203.305C291.183 202.642 291.829 201.766 292.214 200.768C294.41 195.992 295.147 190.418 298.552 186.417C300.888 183.669 304.515 181.473 304.781 177.879C304.905 176.09 304.109 174.349 304.098 172.555C304.098 170.348 305.252 168.25 305.182 166.049C305.036 162.466 301.658 159.733 301.121 156.188C299.755 147.199 304.32 138.221 307.123 129.574C307.627 128.029 308.278 126.321 309.763 125.66C311.249 124.998 313.341 125.345 313.872 123.881C315.212 120.206 315.531 115.896 315.358 111.987C315.26 109.726 314.458 107.514 314.55 105.248C314.615 103.654 315.125 102.104 315.26 100.515C315.466 98.1135 314.832 95.7281 314.176 93.4077C313.987 92.5793 313.703 91.7753 313.33 91.0114C312.93 90.3185 312.457 89.6698 311.921 89.076L309.281 85.937C308.044 84.4678 306.738 82.9444 304.943 82.2016C304.363 80.765 302.509 79.7728 301.181 78.9813C299.842 78.2216 298.459 77.5427 297.039 76.9483L282.108 70.3559C281.55 70.0748 280.952 69.881 280.336 69.7812C279.427 69.7507 278.524 69.9365 277.701 70.3233C273.147 72.1287 268.392 73.9286 263.513 74.655Z" fill="#00C3F7"/>
<path d="M247.699 51.5707C247.124 49.5485 245.655 47.8028 245.433 45.7101C245.232 43.8506 246.051 42.0507 246.517 40.2399C246.983 38.4292 246.967 36.2172 245.53 35.0137C245.292 34.8077 244.988 34.6233 244.901 34.3197C244.728 33.7776 245.275 33.2842 245.444 32.7367C245.753 31.6524 244.413 30.4543 244.901 29.4134C245.178 28.8441 245.872 28.6435 246.479 28.4646C248.799 27.7761 251.152 26.2473 251.656 23.8781C253.473 24.6371 255.408 23.2113 256.801 21.8288C258.195 20.4463 259.908 18.8687 261.827 19.2862L261.399 20.159C264.358 19.0847 267.595 19.0483 270.577 20.056H269.666C272.283 20.1003 274.82 20.9587 276.926 22.5119C276.693 22.5119 276.671 22.8589 276.763 23.054C277.522 24.8268 279.474 25.7648 281.355 26.2039C282.488 26.475 283.719 26.6701 284.548 27.4833C285.378 28.2965 285.394 29.9935 284.299 30.3838C286.532 31.2533 288.647 32.4008 290.593 33.7993C291.135 34.1951 291.748 34.7318 291.677 35.4257C291.6 35.7741 291.487 36.1138 291.341 36.4395C291.233 37.0182 291.272 37.6148 291.455 38.1744L292.057 40.6574C292.718 43.4169 293.239 46.7402 291.227 48.7407C291.98 50.1475 292.26 51.7594 292.024 53.3375C291.789 54.9156 291.051 56.3758 289.921 57.5017C290.08 57.9861 290.135 58.4987 290.082 59.0059C290.03 59.5131 289.87 60.0034 289.614 60.4444C289.358 60.8853 289.011 61.2671 288.597 61.5644C288.182 61.8618 287.71 62.068 287.21 62.1695C287.877 63.2105 287.264 64.6959 286.213 65.3465C285.161 65.9971 283.838 66.0025 282.613 65.8886C281.387 65.7748 280.146 65.4983 278.921 65.6826C277.137 65.9591 275.391 67.1735 273.673 66.6314C273.032 66.3575 272.417 66.0273 271.835 65.6447C270.631 64.9995 269.233 64.8531 267.899 64.5604C265.625 64.0718 263.467 63.1516 261.54 61.8497C260.262 61.0819 259.245 59.9488 258.618 58.5968C257.425 55.5825 259.431 51.6303 257.322 49.1744C256.086 47.7432 253.635 47.7215 252.253 48.9467C251.564 49.5593 251.472 50.8496 250.757 51.3104C249.758 51.563 248.725 51.6509 247.699 51.5707Z" fill="#464353"/>
<path opacity="0.1" d="M221.177 207.024C220.407 206.414 219.742 205.682 219.209 204.856C218.675 204.026 218.463 203.029 218.613 202.053C218.402 203.287 218.482 204.554 218.849 205.751C219.215 206.949 219.856 208.044 220.722 208.949C222.083 210.342 224.636 211.708 226.626 211.231C226.344 209.637 222.441 208.098 221.177 207.024Z" fill="black"/>
<path d="M328.424 119.821C328.424 119.821 316.865 113.12 301.609 121.447C286.354 129.775 283.811 178.779 283.811 178.779C283.811 178.779 290.051 228.705 265.991 217.596C265.991 217.596 222.077 203.961 217.681 206.965C217.681 206.965 213.517 206.965 221.839 208.813C230.161 210.662 262.31 220.849 262.31 220.849C262.31 220.849 272.702 224.481 277.105 220.849C281.507 217.217 293.981 221.315 295.602 196.344C296.675 180.608 298.605 164.942 301.382 149.416L305.67 136.703L328.424 119.821Z" fill="#565661"/>
<path d="M329.812 197.033C329.812 197.033 324.726 146.408 333.064 128.143C340.318 112.225 312.268 119.669 304.949 121.838C303.816 122.176 302.828 122.882 302.141 123.844C297.804 129.943 282.244 154.388 286.831 187.095C286.831 187.095 288.679 216.224 277.121 220.844L312.734 209.372C315.624 208.439 318.557 207.664 321.517 206.992C325.29 206.135 331.438 203.701 329.812 197.033Z" fill="#D9D9DE"/>
<path opacity="0.1" d="M423.174 295.475C452.349 295.475 476 291.676 476 286.99C476 282.304 452.349 278.506 423.174 278.506C393.998 278.506 370.347 282.304 370.347 286.99C370.347 291.676 393.998 295.475 423.174 295.475Z" fill="#6C63FF"/>
<path d="M424.87 124.451H421.471V200.985H424.87V124.451Z" fill="#535461"/>
<path d="M446.237 200.752L446.025 204.2L445.722 209.079L445.597 211.107L445.299 215.986L445.169 218.013L444.865 222.893L441.439 278.229C441.282 280.604 440.228 282.831 438.49 284.458C436.753 286.084 434.461 286.99 432.081 286.99H414.261C411.877 286.989 409.582 286.079 407.846 284.445C406.109 282.811 405.061 280.576 404.915 278.196L401.477 222.855L401.179 217.975L401.054 215.948L400.745 211.069L400.621 209.041L400.323 204.162L400.106 200.714C400.068 200.053 400.166 199.391 400.392 198.769C400.618 198.147 400.969 197.577 401.422 197.095C401.876 196.613 402.422 196.228 403.029 195.964C403.636 195.699 404.291 195.561 404.952 195.558H441.395C442.06 195.562 442.717 195.701 443.326 195.968C443.935 196.235 444.483 196.624 444.937 197.11C445.39 197.596 445.739 198.17 445.963 198.797C446.186 199.423 446.279 200.088 446.237 200.752Z" fill="#F41971"/>
<path d="M446.025 204.2L445.722 209.063H400.626L400.323 204.2H446.025Z" fill="#CB165F"/>
<path d="M445.597 211.096L445.299 215.964H401.054L400.751 211.096H445.597Z" fill="#CB165F"/>
<path d="M445.169 217.992L444.865 222.855H401.483L401.179 217.992H445.169Z" fill="#CB165F"/>
<path d="M395.129 153.135C414.928 167.459 423.174 189.86 423.174 189.86C423.174 189.86 399.32 189.041 379.515 174.718C359.711 160.395 351.476 137.999 351.476 137.999C351.476 137.999 375.335 138.817 395.129 153.135Z" fill="#98D800"/>
<path d="M351.476 137.999C351.476 137.999 376.235 151.742 384.183 163.122C392.131 174.501 423.174 189.86 423.174 189.86" stroke="#535461" stroke-width="1.08428" stroke-miterlimit="10"/>
<path d="M407.907 124.283C418.685 132.073 423.174 144.271 423.174 144.271C423.174 144.271 410.162 143.821 399.412 136.031C388.661 128.24 384.177 116.042 384.177 116.042C384.177 116.042 397.135 116.487 407.907 124.283Z" fill="#98D800"/>
<path d="M384.177 116.042C384.177 116.042 397.655 123.524 401.976 129.715C406.297 135.906 423.201 144.271 423.201 144.271" stroke="#535461" stroke-width="1.08428" stroke-miterlimit="10"/>
<path d="M438.831 143.648C426.454 157.25 423.835 175.027 423.835 175.027C423.835 175.027 441.287 170.744 453.653 157.136C466.019 143.529 468.649 125.757 468.649 125.757C468.649 125.757 451.208 130.046 438.831 143.648Z" fill="#98D800"/>
<path d="M468.659 125.763C468.659 125.763 452.536 139.707 448.438 149.313C444.339 158.92 423.835 175.027 423.835 175.027" stroke="#535461" stroke-width="1.08428" stroke-miterlimit="10"/>
<path d="M188.432 110.903V112.139H151.778V111.136C152.783 110.759 153.734 110.252 154.608 109.629C156.164 108.514 157.433 107.045 158.308 105.342C159.183 103.639 159.639 101.752 159.639 99.8376C159.639 98.8373 159.514 97.8409 159.265 96.8721C158.822 95.1285 157.993 93.5062 156.841 92.1244C155.689 90.7425 154.243 89.6361 152.607 88.8864H188.183C186.547 89.6361 185.1 90.7425 183.948 92.1244C182.796 93.5062 181.968 95.1285 181.525 96.8721C181.278 97.8412 181.154 98.8375 181.156 99.8376C181.155 101.752 181.611 103.638 182.485 105.341C183.359 107.044 184.626 108.514 186.182 109.629C186.886 110.131 187.64 110.558 188.432 110.903Z" fill="#DFE6F5"/>
<path opacity="0.1" d="M188.182 88.8864C186.547 89.6361 185.1 90.7425 183.948 92.1244C182.796 93.5062 181.968 95.1285 181.525 96.8721H159.265C158.821 95.1285 157.993 93.5062 156.841 92.1244C155.689 90.7425 154.243 89.6361 152.607 88.8864H188.182Z" fill="black"/>
<path d="M109.811 82.5703V89.5314C109.811 93.3698 112.619 96.4871 116.089 96.4871H223.926C227.396 96.4871 230.21 93.3698 230.21 89.5314V82.5703H109.811Z" fill="#DFE6F5"/>
<path opacity="0.1" d="M188.432 110.903V112.139H151.778V111.136C152.783 110.759 153.734 110.252 154.608 109.629H186.182C186.886 110.13 187.64 110.557 188.432 110.903Z" fill="black"/>
<path d="M198.706 110.014H141.504C140.489 110.014 139.667 110.835 139.667 111.849C139.667 112.862 140.489 113.684 141.504 113.684H198.706C199.721 113.684 200.544 112.862 200.544 111.849C200.544 110.835 199.721 110.014 198.706 110.014Z" fill="#DFE6F5"/>
<path d="M230.21 6.32902C230.21 5.50413 230.047 4.68733 229.731 3.92529C229.415 3.16326 228.952 2.47093 228.369 1.88789C227.785 1.30486 227.093 0.842534 226.33 0.527354C225.568 0.212174 224.751 0.0503154 223.926 0.0510277H116.089C115.264 0.0503147 114.447 0.212215 113.685 0.527461C112.923 0.842707 112.231 1.30512 111.648 1.88822C111.065 2.47133 110.602 3.16369 110.287 3.9257C109.972 4.6877 109.81 5.50439 109.811 6.32902V83.9257H230.21V6.32902Z" fill="#474157"/>
<path d="M226.924 9.13183V75.8152C226.925 76.2215 226.845 76.6239 226.69 76.9994C226.535 77.375 226.308 77.7163 226.021 78.0038C225.734 78.2913 225.393 78.5194 225.018 78.6751C224.642 78.8307 224.24 78.9108 223.834 78.9108H116.186C115.78 78.9108 115.378 78.8307 115.002 78.6751C114.627 78.5194 114.286 78.2913 113.999 78.0038C113.712 77.7163 113.485 77.375 113.33 76.9994C113.175 76.6239 113.095 76.2215 113.096 75.8152V9.13183C113.093 8.5893 113.236 8.0559 113.508 7.58673C113.779 7.11667 114.17 6.72638 114.64 6.45514C115.11 6.1839 115.643 6.04128 116.186 6.04163H223.834C224.653 6.04163 225.439 6.3672 226.019 6.94673C226.598 7.52625 226.924 8.31226 226.924 9.13183Z" fill="#ABEBFC"/>
<path d="M170.01 4.49099C170.809 4.49099 171.458 3.84291 171.458 3.04347C171.458 2.24403 170.809 1.59595 170.01 1.59595C169.211 1.59595 168.562 2.24403 168.562 3.04347C168.562 3.84291 169.211 4.49099 170.01 4.49099Z" fill="white"/>
<path d="M170.01 93.3915C171.983 93.3915 173.583 91.792 173.583 89.8188C173.583 87.8456 171.983 86.2461 170.01 86.2461C168.037 86.2461 166.437 87.8456 166.437 89.8188C166.437 91.792 168.037 93.3915 170.01 93.3915Z" fill="white"/>
<path d="M226.924 9.13183H113.107C113.107 8.31226 113.433 7.52625 114.012 6.94673C114.592 6.3672 115.378 6.04163 116.197 6.04163H223.834C224.653 6.04163 225.439 6.3672 226.019 6.94673C226.599 7.52625 226.924 8.31226 226.924 9.13183Z" fill="#C8CAD7"/>
<path d="M116.186 8.36205C116.614 8.36205 116.961 8.01495 116.961 7.58678C116.961 7.15862 116.614 6.81152 116.186 6.81152C115.758 6.81152 115.411 7.15862 115.411 7.58678C115.411 8.01495 115.758 8.36205 116.186 8.36205Z" fill="#EDEDF4"/>
<path d="M118.507 8.36205C118.935 8.36205 119.282 8.01495 119.282 7.58678C119.282 7.15862 118.935 6.81152 118.507 6.81152C118.079 6.81152 117.731 7.15862 117.731 7.58678C117.731 8.01495 118.079 8.36205 118.507 8.36205Z" fill="#EDEDF4"/>
<path d="M120.827 8.36205C121.255 8.36205 121.602 8.01495 121.602 7.58678C121.602 7.15862 121.255 6.81152 120.827 6.81152C120.399 6.81152 120.052 7.15862 120.052 7.58678C120.052 8.01495 120.399 8.36205 120.827 8.36205Z" fill="#EDEDF4"/>
<defs>
<linearGradient id="paint0_linear" x1="95.9806" y1="177.299" x2="97.2384" y2="177.299" gradientUnits="userSpaceOnUse">
<stop stop-color="#808080" stop-opacity="0.25"/>
<stop offset="0.54" stop-color="#808080" stop-opacity="0.12"/>
<stop offset="1" stop-color="#808080" stop-opacity="0.1"/>
</linearGradient>
</defs>
</svg>
