<svg width="479" height="308" viewBox="0 0 479 308" fill="none" xmlns="http://www.w3.org/2000/svg">
<path d="M479 0.643799H149.121V211.913H479V0.643799Z" fill="#93D100" fill-opacity="0.2"/>
<path d="M469.567 27.1422H158.554V199.414H469.567V27.1422Z" fill="white"/>
<path d="M478.859 0.456787H148.981V14.4712H478.859V0.456787Z" fill="#98D800"/>
<path d="M159.395 10.2191C160.83 10.2191 161.993 9.05618 161.993 7.62164C161.993 6.1871 160.83 5.02417 159.395 5.02417C157.961 5.02417 156.798 6.1871 156.798 7.62164C156.798 9.05618 157.961 10.2191 159.395 10.2191Z" fill="white"/>
<path d="M169.254 10.2191C170.689 10.2191 171.852 9.05618 171.852 7.62164C171.852 6.1871 170.689 5.02417 169.254 5.02417C167.82 5.02417 166.657 6.1871 166.657 7.62164C166.657 9.05618 167.82 10.2191 169.254 10.2191Z" fill="white"/>
<path d="M179.114 10.2191C180.548 10.2191 181.711 9.05618 181.711 7.62164C181.711 6.1871 180.548 5.02417 179.114 5.02417C177.679 5.02417 176.516 6.1871 176.516 7.62164C176.516 9.05618 177.679 10.2191 179.114 10.2191Z" fill="white"/>
<path d="M381.565 43.2776H280.309C280.093 43.2492 279.894 43.1431 279.751 42.9791C279.607 42.8152 279.528 42.6046 279.528 42.3866C279.528 42.1686 279.607 41.958 279.751 41.7941C279.894 41.6302 280.093 41.5241 280.309 41.4956H381.565C381.781 41.5241 381.979 41.6302 382.123 41.7941C382.267 41.958 382.346 42.1686 382.346 42.3866C382.346 42.6046 382.267 42.8152 382.123 42.9791C381.979 43.1431 381.781 43.2492 381.565 43.2776Z" fill="#CCCCCC"/>
<path d="M311.404 53.0788H247.026C246.81 53.0503 246.611 52.9442 246.468 52.7803C246.324 52.6164 246.245 52.4058 246.245 52.1878C246.245 51.9698 246.324 51.7592 246.468 51.5953C246.611 51.4313 246.81 51.3252 247.026 51.2968H311.404C311.621 51.3252 311.819 51.4313 311.963 51.5953C312.107 51.7592 312.186 51.9698 312.186 52.1878C312.186 52.4058 312.107 52.6164 311.963 52.7803C311.819 52.9442 311.621 53.0503 311.404 53.0788Z" fill="#CCCCCC"/>
<path d="M381.565 53.2571H317.186C316.97 53.2286 316.772 53.1225 316.628 52.9586C316.484 52.7947 316.405 52.5841 316.405 52.3661C316.405 52.1481 316.484 51.9375 316.628 51.7736C316.772 51.6097 316.97 51.5036 317.186 51.4751H381.565C381.781 51.5036 381.979 51.6097 382.123 51.7736C382.267 51.9375 382.346 52.1481 382.346 52.3661C382.346 52.5841 382.267 52.7947 382.123 52.9586C381.979 53.1225 381.781 53.2286 381.565 53.2571H381.565Z" fill="#CCCCCC"/>
<path d="M311.561 62.8802H247.182C246.966 62.8517 246.768 62.7456 246.624 62.5817C246.48 62.4178 246.401 62.2072 246.401 61.9892C246.401 61.7711 246.48 61.5606 246.624 61.3966C246.768 61.2327 246.966 61.1266 247.182 61.0981H311.561C311.777 61.1266 311.975 61.2327 312.119 61.3966C312.263 61.5606 312.342 61.7711 312.342 61.9892C312.342 62.2072 312.263 62.4178 312.119 62.5817C311.975 62.7456 311.777 62.8517 311.561 62.8802Z" fill="#CCCCCC"/>
<path d="M311.717 72.6813H247.338C247.122 72.6528 246.924 72.5468 246.78 72.3828C246.636 72.2189 246.557 72.0083 246.557 71.7903C246.557 71.5723 246.636 71.3617 246.78 71.1978C246.924 71.0339 247.122 70.9278 247.338 70.8993H311.717C311.933 70.9278 312.131 71.0339 312.275 71.1978C312.419 71.3617 312.498 71.5723 312.498 71.7903C312.498 72.0083 312.419 72.2189 312.275 72.3828C312.131 72.5468 311.933 72.6528 311.717 72.6813Z" fill="#CCCCCC"/>
<path d="M340.937 62.8802H322.499C322.283 62.8517 322.084 62.7456 321.94 62.5817C321.797 62.4178 321.718 62.2072 321.718 61.9892C321.718 61.7711 321.797 61.5606 321.94 61.3966C322.084 61.2327 322.283 61.1266 322.499 61.0981H340.937C341.153 61.1266 341.352 61.2327 341.496 61.3966C341.639 61.5606 341.719 61.7711 341.719 61.9892C341.719 62.2072 341.639 62.4178 341.496 62.5817C341.352 62.7456 341.153 62.8517 340.937 62.8802Z" fill="#CCCCCC"/>
<path d="M340.937 72.503H322.499C322.283 72.4745 322.084 72.3684 321.94 72.2045C321.797 72.0406 321.718 71.83 321.718 71.612C321.718 71.394 321.797 71.1834 321.94 71.0195C322.084 70.8555 322.283 70.7494 322.499 70.7209H340.937C341.153 70.7494 341.352 70.8555 341.496 71.0195C341.639 71.1834 341.719 71.394 341.719 71.612C341.719 71.83 341.639 72.0406 341.496 72.2045C341.352 72.3684 341.153 72.4745 340.937 72.503Z" fill="#CCCCCC"/>
<path d="M371.877 72.503H353.438C353.222 72.4745 353.023 72.3684 352.88 72.2045C352.736 72.0406 352.657 71.83 352.657 71.612C352.657 71.394 352.736 71.1834 352.88 71.0195C353.023 70.8555 353.222 70.7494 353.438 70.7209H371.877C372.093 70.7494 372.291 70.8555 372.435 71.0195C372.579 71.1834 372.658 71.394 372.658 71.612C372.658 71.83 372.579 72.0406 372.435 72.2045C372.291 72.3684 372.093 72.4745 371.877 72.503Z" fill="#CCCCCC"/>
<path d="M264.995 43.2776H246.557C246.341 43.2492 246.142 43.1431 245.999 42.9791C245.855 42.8152 245.776 42.6046 245.776 42.3866C245.776 42.1686 245.855 41.958 245.999 41.7941C246.142 41.6302 246.341 41.5241 246.557 41.4956H264.995C265.212 41.5241 265.41 41.6302 265.554 41.7941C265.698 41.958 265.777 42.1686 265.777 42.3866C265.777 42.6046 265.698 42.8152 265.554 42.9791C265.41 43.1431 265.212 43.2492 264.995 43.2776Z" fill="#CCCCCC"/>
<path d="M311.17 155.657H246.792C246.575 155.628 246.377 155.522 246.233 155.358C246.09 155.194 246.01 154.984 246.01 154.766C246.01 154.548 246.09 154.337 246.233 154.173C246.377 154.009 246.575 153.903 246.792 153.875H311.17C311.386 153.903 311.585 154.009 311.728 154.173C311.872 154.337 311.951 154.548 311.951 154.766C311.951 154.984 311.872 155.194 311.728 155.358C311.585 155.522 311.386 155.628 311.17 155.657H311.17Z" fill="#CCCCCC"/>
<path d="M310.857 175.259H246.479C246.263 175.231 246.064 175.125 245.92 174.961C245.777 174.797 245.698 174.586 245.698 174.368C245.698 174.15 245.777 173.94 245.92 173.776C246.064 173.612 246.263 173.506 246.479 173.477H310.857C311.074 173.506 311.272 173.612 311.416 173.776C311.559 173.94 311.639 174.15 311.639 174.368C311.639 174.586 311.559 174.797 311.416 174.961C311.272 175.125 311.074 175.231 310.857 175.259H310.857Z" fill="#CCCCCC"/>
<path d="M311.014 185.06H246.635C246.419 185.032 246.22 184.926 246.077 184.762C245.933 184.598 245.854 184.387 245.854 184.169C245.854 183.951 245.933 183.741 246.077 183.577C246.22 183.413 246.419 183.307 246.635 183.278H311.014C311.23 183.307 311.428 183.413 311.572 183.577C311.716 183.741 311.795 183.951 311.795 184.169C311.795 184.387 311.716 184.598 311.572 184.762C311.428 184.926 311.23 185.032 311.014 185.06H311.014Z" fill="#CCCCCC"/>
<path d="M338.515 175.437H320.077C319.861 175.409 319.662 175.303 319.519 175.139C319.375 174.975 319.296 174.764 319.296 174.546C319.296 174.328 319.375 174.118 319.519 173.954C319.662 173.79 319.861 173.684 320.077 173.655H338.515C338.732 173.684 338.93 173.79 339.074 173.954C339.218 174.118 339.297 174.328 339.297 174.546C339.297 174.764 339.218 174.975 339.074 175.139C338.93 175.303 338.732 175.409 338.515 175.437Z" fill="#CCCCCC"/>
<path d="M338.515 185.06H320.077C319.861 185.032 319.662 184.926 319.519 184.762C319.375 184.598 319.296 184.387 319.296 184.169C319.296 183.951 319.375 183.741 319.519 183.577C319.662 183.413 319.861 183.307 320.077 183.278H338.515C338.732 183.307 338.93 183.413 339.074 183.577C339.218 183.741 339.297 183.951 339.297 184.169C339.297 184.387 339.218 184.598 339.074 184.762C338.93 184.926 338.732 185.032 338.515 185.06Z" fill="#CCCCCC"/>
<path d="M369.455 175.437H351.016C350.8 175.409 350.602 175.303 350.458 175.139C350.314 174.975 350.235 174.764 350.235 174.546C350.235 174.328 350.314 174.118 350.458 173.954C350.602 173.79 350.8 173.684 351.016 173.655H369.455C369.671 173.684 369.869 173.79 370.013 173.954C370.157 174.118 370.236 174.328 370.236 174.546C370.236 174.764 370.157 174.975 370.013 175.139C369.869 175.303 369.671 175.409 369.455 175.437Z" fill="#CCCCCC"/>
<path d="M381.643 165.458H280.387C280.171 165.43 279.973 165.323 279.829 165.16C279.685 164.996 279.606 164.785 279.606 164.567C279.606 164.349 279.685 164.138 279.829 163.975C279.973 163.811 280.171 163.705 280.387 163.676H381.643C381.859 163.705 382.057 163.811 382.201 163.975C382.345 164.138 382.424 164.349 382.424 164.567C382.424 164.785 382.345 164.996 382.201 165.16C382.057 165.323 381.859 165.43 381.643 165.458Z" fill="#CCCCCC"/>
<path d="M265.074 165.458H246.635C246.419 165.43 246.22 165.323 246.077 165.16C245.933 164.996 245.854 164.785 245.854 164.567C245.854 164.349 245.933 164.138 246.077 163.975C246.22 163.811 246.419 163.705 246.635 163.676H265.074C265.29 163.705 265.488 163.811 265.632 163.975C265.776 164.138 265.855 164.349 265.855 164.567C265.855 164.785 265.776 164.996 265.632 165.16C265.488 165.323 265.29 165.43 265.074 165.458Z" fill="#CCCCCC"/>
<path d="M295.623 88.5132L270.621 113.202L295.623 137.891L301.248 132.266L282.34 113.358L301.404 94.2949L295.623 88.5132Z" fill="#E6E6E6"/>
<path d="M332.499 88.5132L357.501 113.202L332.499 137.891L326.874 132.266L345.781 113.358L326.718 94.2949L332.499 88.5132Z" fill="#E6E6E6"/>
<path d="M295.623 88.5132L270.621 113.202L295.623 137.891L301.248 132.266L282.34 113.358L301.404 94.2949L295.623 88.5132Z" fill="#00C3F7"/>
<path d="M332.499 88.5132L357.501 113.202L332.499 137.891L326.874 132.266L345.781 113.358L326.718 94.2949L332.499 88.5132Z" fill="#00C3F7"/>
<path d="M253.886 295.038C261.666 305.457 277.814 306.553 277.814 306.553C277.814 306.553 281.349 290.758 273.57 280.34C265.791 269.922 249.643 268.826 249.643 268.826C249.643 268.826 246.107 284.62 253.886 295.038Z" fill="#E6E6E6"/>
<path d="M293.516 298.955C288.382 305.829 277.727 306.553 277.727 306.553C277.727 306.553 275.394 296.131 280.527 289.256C285.66 282.381 296.316 281.658 296.316 281.658C296.316 281.658 298.649 292.08 293.516 298.955Z" fill="#E6E6E6"/>
<path d="M80.8295 249.159V276.202H73.1029L67.9524 247.872L80.8295 249.159Z" fill="#FFB9B9"/>
<path d="M19.6615 249.159V276.202H11.9355L6.78442 247.872L19.6615 249.159Z" fill="#FFB9B9"/>
<path d="M60.4218 49.8107C60.4218 49.8107 48.006 40.8868 46.454 45.1548C44.902 49.4227 55.7659 57.1826 55.7659 57.1826L60.4218 49.8107Z" fill="#FFB9B9"/>
<path d="M16.3845 61.2565C16.3845 76.685 23.0272 77.1643 33.8485 77.1643C44.6699 77.1643 55.5721 76.685 55.5721 61.2565C55.5721 45.828 46.7997 33.3208 35.9783 33.3208C25.1569 33.3208 16.3845 45.828 16.3845 61.2565Z" fill="#2F2E41"/>
<path d="M42.9624 61.0626C42.9624 61.0626 41.4104 72.7025 48.7823 73.4785C56.1542 74.2545 24.7266 76.5824 24.7266 76.5824C24.7266 76.5824 32.8745 69.2105 28.6065 63.3906C24.3386 57.5706 42.9624 61.0626 42.9624 61.0626Z" fill="#FFB9B9"/>
<path d="M82.1495 269.028L84.8655 291.92C84.8655 291.92 98.4454 308.604 89.9095 307.44C81.3735 306.276 75.9416 307.687 75.9416 306.135C75.9416 304.583 75.7409 299.038 74.5769 299.038C73.4129 299.038 72.4496 307.794 72.4496 307.794C72.4496 307.794 68.9577 307.53 68.5697 307.142C68.1817 306.754 67.7937 284.548 67.7937 284.548C67.7937 284.548 66.6297 277.952 68.9577 274.848C71.2856 271.744 70.8977 269.028 70.8977 269.028L82.1495 269.028Z" fill="#2F2E41"/>
<path d="M20.3382 268.777L23.0542 291.668C23.0542 291.668 36.6341 308.352 28.0982 307.188C19.5623 306.024 14.1303 307.436 14.1303 305.884C14.1303 304.332 13.9296 298.787 12.7656 298.787C11.6016 298.787 10.6383 307.543 10.6383 307.543C10.6383 307.543 7.14639 307.279 6.75839 306.891C6.37039 306.503 5.9824 284.297 5.9824 284.297C5.9824 284.297 4.81842 277.701 7.14639 274.597C9.47436 271.493 9.08636 268.777 9.08636 268.777H20.3382Z" fill="#2F2E41"/>
<path d="M61.9739 132.842C61.9739 132.842 74.3898 168.149 75.1658 175.909C75.9418 183.669 74.3898 210.053 74.3898 210.053C74.3898 210.053 85.6417 255.639 83.3137 256.027C80.9857 256.415 68.0215 258.255 67.6335 256.315C67.2455 254.375 65.8623 251.371 66.2503 250.207C66.6382 249.043 65.0863 244.775 65.0863 242.447C65.0863 240.119 59.646 227.901 60.0339 225.961C60.4219 224.021 53.438 195.309 52.274 192.981C51.11 190.653 48.0061 174.357 48.0061 174.357C48.0061 174.357 30.5462 222.081 30.1582 223.245C29.7703 224.409 28.2183 226.349 28.9943 226.737C29.7703 227.125 27.8303 229.841 27.8303 229.841C27.8303 229.841 23.8098 245.939 23.8098 246.715C23.8098 247.491 24.5858 256.275 23.0338 256.663C21.4818 257.051 5.62906 257.026 4.85306 254.31C4.07707 251.594 13.0864 220.141 13.0864 220.141C13.0864 220.141 19.6824 200.353 17.7424 195.309C15.8024 190.265 19.6824 160.001 21.2343 157.673C22.7863 155.345 23.1743 141.378 23.1743 141.378L61.9739 132.842Z" fill="#2F2E41"/>
<path d="M36.1722 67.4645C43.0293 67.4645 48.5881 61.9058 48.5881 55.0487C48.5881 48.1916 43.0293 42.6328 36.1722 42.6328C29.3151 42.6328 23.7563 48.1916 23.7563 55.0487C23.7563 61.9058 29.3151 67.4645 36.1722 67.4645Z" fill="#FFB9B9"/>
<path d="M42.9621 70.7625C42.9621 70.7625 28.9943 71.1505 28.2183 69.9865C27.4423 68.8225 8.04248 72.7024 8.04248 80.4624C8.04248 88.2223 19.2944 118.486 19.2944 118.486C19.2944 118.486 23.5623 140.214 22.3983 142.542C21.2343 144.87 65.4659 137.498 64.3019 133.618C63.1379 129.738 56.542 121.202 65.0779 113.83C73.6138 106.458 77.1057 98.6982 77.1057 98.6982L67.0178 71.9264C67.0178 71.9264 56.93 70.3744 54.602 71.9264C52.274 73.4784 42.9621 70.7625 42.9621 70.7625Z" fill="#F41971"/>
<path d="M74.3895 100.638L77.1055 98.6981C77.1055 98.6981 102.325 72.3144 95.7293 67.2705C89.1333 62.2265 79.4334 57.5706 74.7775 57.1826C70.1215 56.7946 66.2416 53.3026 66.2416 53.3026C66.2416 53.3026 61.1976 44.3787 57.3177 50.1986C53.4377 56.0186 49.1698 57.9585 54.6017 59.8985C60.0337 61.8385 63.5256 61.0625 66.2416 63.0025C68.9576 64.9425 79.4334 68.0465 74.7775 69.2104C72.1076 69.8576 69.5083 70.7673 67.0176 71.9264L61.9736 80.8503L74.3895 100.638Z" fill="#F41971"/>
<path d="M30.5461 166.209C30.5461 166.209 40.634 180.953 33.2621 180.177C25.8902 179.401 22.3982 169.313 22.3982 169.313L30.5461 166.209Z" fill="#FFB9B9"/>
<path d="M10.7583 78.5226L8.04235 80.4626C8.04235 80.4626 -0.881552 129.35 8.04235 142.154C16.9663 154.958 17.7423 154.182 17.7423 154.182C17.7423 154.182 19.2942 153.018 20.0702 160.778C20.8462 168.538 19.6822 171.642 22.0102 171.642C24.3382 171.642 34.8141 169.314 34.0381 167.374C33.2621 165.434 28.2181 154.182 27.8301 151.466C27.4422 148.75 25.5022 142.542 24.7262 139.05C23.9502 135.558 28.2181 133.618 26.2782 126.246C24.3382 118.874 21.6222 105.682 21.6222 102.966C21.6222 100.25 10.7583 78.5226 10.7583 78.5226Z" fill="#F41971"/>
<path d="M24.1443 43.9907C24.1443 48.1693 29.8768 51.5566 36.9481 51.5566C44.0195 51.5566 50.528 53.7952 50.528 49.6167C50.528 45.4381 44.0195 36.4248 36.9481 36.4248C29.8768 36.4248 24.1443 39.8122 24.1443 43.9907Z" fill="#2F2E41"/>
<path d="M55.4555 63.8751C55.4555 63.8751 55.9781 77.9404 42.0011 77.1644C28.0241 76.3884 43.89 65.1416 43.89 65.1416L55.4555 63.8751Z" fill="#2F2E41"/>
<path d="M379.212 306.553H0V307.762H379.212V306.553Z" fill="#3F3D56"/>
</svg>
