<svg width="866" height="529" viewBox="0 0 866 529" fill="none" xmlns="http://www.w3.org/2000/svg">
<path d="M918.1 418.295C916.993 420.682 915.889 423.037 914.788 425.36C913.069 428.968 911.373 432.507 909.699 435.975C908.955 437.512 908.21 439.02 907.485 440.529C899.275 457.302 891.609 472.137 885.099 484.337C879.191 495.391 870.419 504.654 859.702 511.154C848.985 517.653 836.717 521.151 824.184 521.281L679.414 522.856H677.886L665.476 522.99L654.861 523.104L622.308 523.458H620.991L604.418 523.639H603.912L501.767 524.746L410.59 525.701L399.984 525.816L334.114 526.532H334.038L291.318 526.99H290.86L155.78 528.45L115.37 528.889C111.93 528.929 108.49 528.757 105.07 528.374C103.905 528.24 102.741 528.088 101.586 527.906C82.7392 524.997 65.4586 515.718 52.6225 501.616C35.2387 482.494 22.5898 460.185 14.0936 435.975C12.8653 432.481 11.7198 428.943 10.657 425.36C-18.7552 325.935 17.1007 197.661 81.6338 111.821C84.3385 108.231 87.0879 104.731 89.8818 101.32L89.9486 101.243C109.795 76.8813 132.048 56.5286 155.751 42.0564C197.755 16.3672 244.293 9.13113 290.068 30.6962C328.797 48.9488 364.959 57.5309 400.013 59.8602C403.554 60.0893 407.096 60.2612 410.619 60.3662C491.027 62.8959 566.386 33.9229 654.88 15.2217C658.403 14.4771 661.935 13.742 665.495 13.0451C728.625 0.482173 798.657 -6.14296 881.939 7.7851C890.591 9.19859 899.129 11.2405 907.485 13.8947C911.157 15.0785 914.695 16.3513 918.1 17.7133C957.851 33.8847 979.531 63.7646 988.743 101.205C989.615 104.68 990.369 108.215 991.005 111.811C1007.34 201.871 959.503 329.62 918.1 418.295Z" fill="#F2F2F2"/>
<path opacity="0.1" d="M474.712 425.36C474.327 428.93 473.731 432.475 472.927 435.975H562.375V425.36H474.712ZM400.012 485.32L410.618 485.234V459.01C406.981 458.848 403.439 458.686 400.012 458.514V485.32ZM177.659 425.36V435.975H367.153V425.36H177.659ZM988.79 101.243H918.147V17.7228C914.742 16.3418 911.204 15.0689 907.532 13.9043V101.243H665.495V13.0165C661.934 13.7134 658.402 14.4484 654.879 15.193V101.243H410.618V60.3375C407.095 60.2325 403.553 60.0607 400.012 59.8316V101.243H155.75V42.0563C132.047 56.5286 109.795 76.8813 89.9478 101.243H89.881V101.32C87.0807 104.756 84.3314 108.257 81.6329 111.821H89.881V425.36H10.6466C11.7031 428.943 12.8486 432.481 14.0833 435.975H89.8714V525.348C93.6846 526.514 97.5768 527.404 101.518 528.011C102.673 528.193 103.838 528.345 105.002 528.479C108.422 528.862 111.862 529.034 115.303 528.994L155.712 528.555V435.956H400.012V525.892L410.618 525.777V435.975H654.879V523.19L665.495 523.076V435.975H907.484V440.529C908.209 439.02 908.954 437.512 909.699 435.975C911.372 432.507 913.069 428.968 914.787 425.36C915.888 423.043 916.992 420.688 918.099 418.295V111.859H991.052C990.41 108.238 989.655 104.699 988.79 101.243ZM155.75 425.36V111.821H400.012V425.36H155.75ZM410.637 425.36V111.821H654.879V425.36H410.637ZM907.503 425.36H665.495V111.821H907.484L907.503 425.36Z" fill="black"/>
<path d="M824.174 509.405V521.816L679.146 523.152L677.6 523.181L622.48 523.687L621.162 523.706L604.409 523.849H603.912L501.786 524.794L334.143 526.35H334L291.376 526.751L290.917 526.761L101.519 528.498V514.179L146.052 487.449L235.406 486.704L237.315 486.695L237.945 486.685L239.854 486.657L282.755 486.303L284.674 486.294L285.285 486.284L287.194 486.275L300.95 486.16L301.313 486.151L335.25 485.864H335.527L600.342 483.63L606.824 483.583H607.473L612.418 483.535L648.36 483.239L650.269 483.21L652.035 483.191H652.951L664.13 483.105L666.345 483.077L669.314 483.058L678.622 482.972L693.39 482.848L695.299 482.829L698.621 482.809H699.242L770.562 482.198L824.174 509.405Z" fill="#65617D"/>
<path opacity="0.2" d="M824.174 509.405V521.816L679.146 523.152L677.6 523.181L622.48 523.687L621.162 523.706L604.409 523.849H603.912L501.786 524.794L334.143 526.35H334L291.376 526.751L290.917 526.761L101.519 528.498V514.179L146.052 487.449L235.406 486.704L237.315 486.695L237.945 486.685L239.854 486.657L282.755 486.303L284.674 486.294L285.285 486.284L287.194 486.275L300.95 486.16L301.313 486.151L335.25 485.864H335.527L600.342 483.63L606.824 483.583H607.473L612.418 483.535L648.36 483.239L650.269 483.21L652.035 483.191H652.951L664.13 483.105L666.345 483.077L669.314 483.058L678.622 482.972L693.39 482.848L695.299 482.829L698.621 482.809H699.242L770.562 482.198L824.174 509.405Z" fill="black"/>
<path d="M282.908 461.684V485.063C282.909 486.17 282.595 487.255 282.004 488.191C281.412 489.127 280.567 489.876 279.567 490.351C278.822 490.712 278.008 490.908 277.18 490.924L243.864 491.63C242.974 491.652 242.092 491.465 241.286 491.086C240.268 490.62 239.406 489.87 238.802 488.928C238.198 487.985 237.877 486.889 237.878 485.769V461.684H282.908Z" fill="#3F3D56"/>
<path opacity="0.1" d="M282.908 461.684V485.063C282.909 486.17 282.595 487.255 282.004 488.191C281.412 489.127 280.567 489.876 279.567 490.351C278.822 490.712 278.008 490.908 277.18 490.924L243.864 491.63C242.974 491.652 242.092 491.465 241.286 491.086C240.268 490.62 239.406 489.87 238.802 488.928C238.198 487.985 237.877 486.889 237.878 485.769V461.684H282.908Z" fill="black"/>
<path d="M284.817 461.684V485.063C284.818 486.17 284.504 487.255 283.913 488.191C283.321 489.127 282.476 489.876 281.476 490.351C280.731 490.712 279.917 490.908 279.089 490.924L245.773 491.63C244.883 491.652 244.001 491.465 243.195 491.086C242.178 490.62 241.315 489.87 240.711 488.928C240.107 487.985 239.786 486.889 239.787 485.769V461.684H284.817Z" fill="#3F3D56"/>
<path d="M695.299 461.674H650.269V491.745H695.299V461.674Z" fill="#3F3D56"/>
<path opacity="0.1" d="M695.299 461.674H650.269V491.745H695.299V461.674Z" fill="black"/>
<path d="M693.39 461.674H648.36V491.745H693.39V461.674Z" fill="#3F3D56"/>
<path opacity="0.1" d="M284.808 461.674V466.418L239.778 467.621V461.674H284.808Z" fill="black"/>
<path d="M364.29 298.155V458.724C364.279 459.704 363.891 460.642 363.206 461.344C362.522 462.046 361.594 462.458 360.615 462.495L177.66 467.363H177.612C176.616 467.351 175.664 466.95 174.959 466.245C174.255 465.541 173.854 464.589 173.841 463.593V298.155C173.854 297.159 174.255 296.207 174.959 295.502C175.664 294.798 176.616 294.397 177.612 294.384H360.519C361.516 294.397 362.467 294.798 363.172 295.502C363.876 296.207 364.278 297.159 364.29 298.155Z" fill="#65617D"/>
<path opacity="0.1" d="M177.66 294.384V467.363H177.612C176.616 467.351 175.664 466.95 174.959 466.245C174.255 465.541 173.854 464.589 173.841 463.593V298.155C173.854 297.159 174.255 296.207 174.959 295.502C175.664 294.798 176.616 294.397 177.612 294.384H177.66Z" fill="black"/>
<path d="M186.003 304.637H355.451V446.161L186.003 449.98V304.637Z" fill="#00C3F7"/>
<path opacity="0.1" d="M693.39 461.674V467.793L648.36 466.59V461.674H693.39Z" fill="black"/>
<path d="M752.825 298.155V463.593C752.812 464.597 752.404 465.556 751.689 466.262C750.975 466.968 750.011 467.363 749.006 467.363L566.013 462.495C565.033 462.458 564.106 462.046 563.421 461.344C562.737 460.642 562.349 459.704 562.338 458.724V298.155C562.35 297.159 562.751 296.207 563.456 295.502C564.16 294.798 565.112 294.397 566.108 294.384H749.016C750.018 294.387 750.98 294.784 751.693 295.489C752.406 296.195 752.812 297.152 752.825 298.155Z" fill="#65617D"/>
<path opacity="0.1" d="M752.824 298.155V463.593C752.812 464.597 752.404 465.556 751.689 466.262C750.974 466.968 750.01 467.363 749.006 467.363V294.384C750.01 294.384 750.974 294.78 751.689 295.486C752.404 296.192 752.812 297.151 752.824 298.155Z" fill="black"/>
<path d="M740.644 304.637H571.197V446.161L740.644 449.98V304.637Z" fill="#00C3F7"/>
<path d="M557.603 298.155V458.724C557.592 459.704 557.204 460.642 556.52 461.344C555.836 462.046 554.908 462.458 553.928 462.495L370.973 467.363C369.969 467.363 369.004 466.968 368.29 466.262C367.575 465.556 367.167 464.597 367.155 463.593V298.155C367.167 297.159 367.568 296.207 368.273 295.502C368.977 294.798 369.929 294.397 370.925 294.384H553.833C554.829 294.397 555.781 294.798 556.485 295.502C557.19 296.207 557.591 297.159 557.603 298.155Z" fill="#65617D"/>
<path d="M379.316 304.637H548.763V446.161L379.316 449.98V304.637Z" fill="#00C3F7"/>
<path opacity="0.1" d="M824.174 509.405V521.815L679.146 523.152L677.6 523.181L622.48 523.687L621.162 523.706L604.409 523.849H603.912L501.786 524.794L334.143 526.35H334L291.376 526.751L290.917 526.76L101.519 528.498V514.178L294.841 512.909H295.299L334.429 512.641H334.611L604.848 510.856H605.124L605.287 510.847H605.735L610.308 510.818H611.702L682.812 510.341L687.013 510.322L687.948 510.312L824.174 509.405Z" fill="black"/>
<path d="M465.395 333.591C492.458 333.591 514.396 311.653 514.396 284.59C514.396 257.527 492.458 235.589 465.395 235.589C438.332 235.589 416.394 257.527 416.394 284.59C416.394 311.653 438.332 333.591 465.395 333.591Z" fill="#FBBEBE"/>
<path d="M514.406 360.015C514.406 360.015 419.42 371.471 428.489 360.015C431.773 355.872 432.68 343.596 432.499 329.61C432.441 325.362 432.289 320.961 432.069 316.58C431.019 295.578 428.489 275.053 428.489 275.053C428.489 275.053 511.542 235.913 501.996 266.939C498.177 279.473 499.428 297.077 502.33 313.601C503.18 318.422 504.163 323.148 505.194 327.634C507.71 338.578 510.785 349.386 514.406 360.015Z" fill="#FBBEBE"/>
<path d="M483.409 356.13C494.397 354.096 506.034 350.402 516.372 354.66C519.093 355.777 521.594 357.409 524.382 358.345C527.169 359.28 530.224 359.509 533.126 360.168C543.322 362.478 551.589 370.239 556.897 379.26C562.204 388.282 564.954 398.487 567.646 408.587L574.233 433.245C579.96 454.676 585.688 476.289 587.015 498.446C507.272 503.011 427.346 503.466 347.556 499.811C352.749 489.94 358.056 479.468 357.617 468.308C357.178 457.149 350.754 446.142 353.073 435.145C354.553 428.138 359.345 422.362 362.276 415.842C370.629 397.208 364.128 372.129 378.81 357.944C385.416 351.567 395.039 349.151 404.232 349.457C415.955 349.848 427.955 353.505 439.553 355.29C454.407 357.543 468.44 358.879 483.409 356.13Z" fill="#F41971"/>
<path opacity="0.1" d="M608.37 462.256L608.274 463.621V463.717L608.112 465.913L606.842 483.583L605.306 504.871L604.866 510.866L603.912 523.696V523.859L501.766 524.813L334.143 526.627V527.429H334.009V526.627V526.36L334.439 512.651L335.259 485.864L335.966 463.154L336.033 460.891C336.074 459.526 336.394 458.183 336.972 456.945C337.55 455.707 338.375 454.6 339.395 453.691C340.415 452.783 341.61 452.092 342.906 451.66C344.203 451.229 345.573 451.067 346.935 451.183C351.44 451.564 357.292 452.032 364.29 452.529L367.154 452.739C407.563 455.545 482.244 459.173 557.603 454.648C559.187 454.562 560.782 454.467 562.376 454.352C574.06 453.617 585.736 452.672 597.296 451.488C598.758 451.335 600.235 451.504 601.624 451.984C603.013 452.463 604.28 453.241 605.336 454.263C606.391 455.285 607.21 456.526 607.734 457.899C608.259 459.272 608.476 460.743 608.37 462.209V462.256Z" fill="black"/>
<path d="M334.115 527.429V526.627L501.767 524.804L603.912 523.849H604.199V523.687L605.153 510.856L605.564 505.129L607.13 483.544L608.361 466.457V466.036C608.418 465.249 608.383 464.458 608.256 463.679C608.261 463.647 608.261 463.615 608.256 463.583C607.994 461.972 607.338 460.45 606.347 459.154C605.296 457.806 603.918 456.748 602.345 456.08C600.772 455.412 599.054 455.155 597.354 455.335C585.794 456.519 574.118 457.464 562.434 458.199C560.839 458.313 559.245 458.409 557.661 458.495C482.302 462.972 407.621 459.344 367.212 456.586L364.348 456.376C357.35 455.879 351.498 455.421 346.993 455.03C344.514 454.82 342.045 455.537 340.064 457.041C338.082 458.544 336.728 460.729 336.263 463.173C336.166 463.689 336.109 464.213 336.091 464.738L335.442 485.893L334.554 512.689L334.134 526.398V526.665V527.467L334.115 527.429Z" fill="#3F3D56"/>
<path opacity="0.1" d="M608.656 468.948L607.482 483.583L605.735 505.396L605.296 510.857L604.342 523.085L604.284 523.696V523.859L604.141 525.272L604.246 523.859H603.969L501.824 524.813L334.143 526.627V526.36L334.611 512.651L335.565 485.864L336.176 468.061C336.206 467.048 336.489 466.059 336.999 465.183C337.51 464.308 338.231 463.574 339.097 463.049C340.178 462.386 341.442 462.085 342.706 462.19C344.711 462.352 347.174 462.543 350.047 462.753C354.715 463.096 360.472 463.497 367.173 463.917C379.583 464.7 395.153 465.54 412.995 466.228C462.636 468.137 529.651 468.776 593.306 463.201C596.17 462.953 599.129 462.676 602.022 462.4C603.167 462.285 604.32 462.504 605.344 463.03C605.634 463.174 605.909 463.347 606.165 463.545C606.996 464.147 607.654 464.957 608.074 465.894C608.171 466.08 608.251 466.275 608.313 466.476C608.6 467.267 608.717 468.109 608.656 468.948Z" fill="#98D800"/>
<path opacity="0.1" d="M284.817 482.017V485.062C284.818 486.17 284.504 487.254 283.913 488.191C283.321 489.127 282.476 489.876 281.476 490.351L243.195 491.086C242.178 490.62 241.315 489.87 240.711 488.928C240.107 487.985 239.786 486.888 239.787 485.769V482.905L284.817 482.017Z" fill="black"/>
<path d="M285.285 492.146L235.406 493.101V484.824L285.285 483.869V492.146Z" fill="#3F3D56"/>
<path opacity="0.1" d="M285.285 492.146L235.406 493.101V484.824L285.285 483.869V492.146Z" fill="black"/>
<path d="M287.194 492.146L237.315 493.101V484.824L287.194 483.869V492.146Z" fill="#3F3D56"/>
<path opacity="0.1" d="M648.646 483.926V486.972C648.646 488.079 648.96 489.164 649.551 490.1C650.142 491.036 650.987 491.785 651.988 492.26L690.268 492.995C691.286 492.529 692.148 491.78 692.753 490.837C693.357 489.894 693.677 488.798 693.676 487.678V484.814L648.646 483.926Z" fill="black"/>
<path opacity="0.1" d="M648.169 494.055L698.048 495.01V486.733L648.169 485.778V494.055Z" fill="black"/>
<path d="M646.259 494.055L696.139 495.01V486.733L646.259 485.778V494.055Z" fill="#3F3D56"/>
<path d="M434.398 299.606C434.474 306.289 431.381 312.589 428.756 318.766C419.198 341.265 415.058 365.694 416.67 390.086C417.367 400.587 419.133 411.088 417.367 421.494C415.601 431.899 409.32 442.276 399.229 445.264C415.964 455.24 438.617 454.19 454.369 442.725C462.76 436.615 469.013 428.09 475.132 419.708C474.405 434.765 470.046 449.422 462.426 462.428C476.199 461.209 489.563 457.11 501.652 450.397C513.74 443.684 524.284 434.507 532.601 423.46C536.715 417.914 540.295 411.823 541.88 405.103C544.83 392.692 540.715 379.795 537.574 367.395C534.95 357.028 532.983 346.506 531.684 335.892C531.274 332.493 530.94 328.999 531.78 325.677C532.734 321.792 535.283 318.508 537.164 314.966C542.51 304.905 542.634 292.724 539.894 281.669C537.154 270.614 531.789 260.419 526.472 250.347C522.214 242.271 517.594 233.823 509.804 229.078C504.936 226.119 499.303 224.887 493.69 223.694L469.471 218.511C464.173 217.375 458.722 216.239 453.366 217.069C444.326 218.482 437.959 225.012 432.365 231.713C427.983 236.925 417.272 246.71 416.518 253.536C415.83 259.827 421.386 270.366 422.331 277.001C423.572 285.592 424.451 282.729 429.3 287.998C432.365 291.263 434.341 295.034 434.398 299.606Z" fill="#3F3D56"/>
<path d="M286.879 318.422H191.798C191.672 318.422 191.55 318.372 191.461 318.282C191.371 318.193 191.321 318.071 191.321 317.945C191.321 317.818 191.371 317.697 191.461 317.607C191.55 317.518 191.672 317.467 191.798 317.467H286.879C287.006 317.467 287.127 317.518 287.217 317.607C287.306 317.697 287.357 317.818 287.357 317.945C287.357 318.071 287.306 318.193 287.217 318.282C287.127 318.372 287.006 318.422 286.879 318.422Z" fill="#F2F2F2"/>
<path d="M286.879 327.014H191.798C191.672 327.014 191.55 326.963 191.461 326.874C191.371 326.784 191.321 326.663 191.321 326.536C191.321 326.41 191.371 326.288 191.461 326.199C191.55 326.109 191.672 326.059 191.798 326.059H286.879C287.006 326.059 287.127 326.109 287.217 326.199C287.306 326.288 287.357 326.41 287.357 326.536C287.357 326.663 287.306 326.784 287.217 326.874C287.127 326.963 287.006 327.014 286.879 327.014Z" fill="#F2F2F2"/>
<path d="M286.879 335.605H191.798C191.672 335.605 191.55 335.555 191.461 335.466C191.371 335.376 191.321 335.255 191.321 335.128C191.321 335.001 191.371 334.88 191.461 334.791C191.55 334.701 191.672 334.651 191.798 334.651H286.879C287.006 334.651 287.127 334.701 287.217 334.791C287.306 334.88 287.357 335.001 287.357 335.128C287.357 335.255 287.306 335.376 287.217 335.466C287.127 335.555 287.006 335.605 286.879 335.605Z" fill="#F2F2F2"/>
</svg>
