<svg width="558" height="468" viewBox="0 0 558 468" fill="none" xmlns="http://www.w3.org/2000/svg">
<path d="M380.678 0.544925L0.210022 227.123L11.6523 246.529L392.12 19.9514L380.678 0.544925Z" fill="#F2F2F2"/>
<path d="M463.372 19.5407L82.9037 246.118L94.346 265.525L474.814 38.9472L463.372 19.5407Z" fill="#F2F2F2"/>
<path d="M536.615 40.3176L156.147 266.895L167.589 286.302L548.057 59.7241L536.615 40.3176Z" fill="#F2F2F2"/>
<path d="M248.029 266.149C313.817 266.149 367.149 212.55 367.149 146.433C367.149 80.3158 313.817 26.7173 248.029 26.7173C182.24 26.7173 128.908 80.3158 128.908 146.433C128.908 212.55 182.24 266.149 248.029 266.149Z" fill="white"/>
<path d="M128.023 146.433C128.023 79.9309 181.857 25.8271 248.029 25.8271C314.201 25.8271 368.035 79.9309 368.035 146.433C368.035 212.936 314.201 267.039 248.029 267.039C181.857 267.039 128.023 212.936 128.023 146.433ZM129.795 146.433C129.795 211.953 182.834 265.258 248.029 265.258C313.223 265.258 366.263 211.953 366.263 146.433C366.263 80.9129 313.223 27.608 248.029 27.608C182.834 27.608 129.795 80.9129 129.795 146.433H129.795Z" fill="#3F3D56"/>
<path d="M226.794 146.953C226.794 142.733 228.04 138.607 230.373 135.097C232.706 131.588 236.023 128.852 239.903 127.237C243.783 125.622 248.052 125.199 252.171 126.023C256.29 126.846 260.074 128.879 263.044 131.863C266.013 134.848 268.036 138.65 268.855 142.79C269.675 146.93 269.254 151.221 267.647 155.12C266.04 159.02 263.318 162.353 259.826 164.698C256.334 167.042 252.229 168.294 248.029 168.294C242.397 168.294 236.996 166.046 233.014 162.044C229.031 158.041 226.794 152.613 226.794 146.953V146.953ZM248.029 126.654C242.674 126.66 237.539 128.801 233.753 132.606C229.966 136.412 227.836 141.572 227.83 146.953C227.83 150.968 229.015 154.893 231.234 158.231C233.454 161.57 236.608 164.171 240.299 165.708C243.99 167.244 248.051 167.646 251.969 166.863C255.887 166.08 259.486 164.146 262.311 161.307C265.136 158.469 267.06 154.851 267.839 150.914C268.619 146.976 268.219 142.894 266.69 139.185C265.161 135.476 262.572 132.305 259.25 130.075C255.929 127.844 252.024 126.654 248.029 126.654Z" fill="#3F3D56"/>
<path d="M207.632 146.954C207.632 138.924 210.001 131.075 214.44 124.398C218.879 117.721 225.188 112.518 232.57 109.445C239.951 106.372 248.074 105.568 255.91 107.135C263.746 108.701 270.944 112.568 276.594 118.246C282.244 123.924 286.091 131.158 287.65 139.033C289.209 146.909 288.409 155.072 285.351 162.49C282.294 169.909 277.116 176.25 270.472 180.711C263.829 185.172 256.019 187.553 248.029 187.553C242.724 187.553 237.471 186.503 232.57 184.463C227.668 182.422 223.215 179.432 219.464 175.662C215.712 171.892 212.737 167.416 210.707 162.49C208.677 157.565 207.632 152.285 207.632 146.954V146.954ZM248.029 107.395C240.244 107.395 232.634 109.716 226.161 114.062C219.688 118.409 214.643 124.587 211.664 131.815C208.684 139.044 207.905 146.998 209.424 154.671C210.943 162.345 214.691 169.393 220.196 174.926C225.701 180.458 232.714 184.225 240.35 185.752C247.985 187.278 255.899 186.495 263.092 183.501C270.284 180.507 276.432 175.436 280.757 168.931C285.082 162.426 287.39 154.778 287.39 146.954C287.379 136.466 283.228 126.411 275.849 118.995C268.469 111.579 258.465 107.407 248.029 107.395Z" fill="#CCCCCC"/>
<path d="M169.306 146.954C169.306 131.306 173.923 116.01 182.573 102.999C191.223 89.9883 203.518 79.8477 217.903 73.8596C232.288 67.8714 248.116 66.3047 263.387 69.3574C278.658 72.4101 292.685 79.9452 303.694 91.0099C314.704 102.075 322.201 116.172 325.239 131.519C328.276 146.866 326.717 162.774 320.759 177.23C314.801 191.687 304.711 204.043 291.765 212.737C278.819 221.43 263.599 226.07 248.029 226.07C227.157 226.046 207.148 217.703 192.389 202.871C177.631 188.039 169.329 167.929 169.306 146.954ZM248.029 68.8782C232.664 68.8782 217.644 73.4573 204.868 82.0363C192.093 90.6154 182.135 102.809 176.255 117.076C170.375 131.342 168.837 147.04 171.835 162.185C174.832 177.331 182.231 191.242 193.096 202.161C203.96 213.08 217.803 220.516 232.873 223.529C247.943 226.542 263.563 224.995 277.758 219.086C291.954 213.177 304.087 203.17 312.623 190.33C321.159 177.491 325.716 162.396 325.716 146.954C325.692 126.254 317.5 106.409 302.936 91.7719C288.372 77.135 268.625 68.9016 248.029 68.8782Z" fill="#CCCCCC"/>
<path d="M248.029 156.323C253.464 156.323 257.869 151.895 257.869 146.433C257.869 140.971 253.464 136.543 248.029 136.543C242.594 136.543 238.188 140.971 238.188 146.433C238.188 151.895 242.594 156.323 248.029 156.323Z" fill="#F41971"/>
<path d="M222.651 184.95C228.086 184.95 232.491 180.523 232.491 175.061C232.491 169.599 228.086 165.171 222.651 165.171C217.216 165.171 212.811 169.599 212.811 175.061C212.811 180.523 217.216 184.95 222.651 184.95Z" fill="#98D800"/>
<path d="M321.658 180.786C327.093 180.786 331.498 176.358 331.498 170.897C331.498 165.435 327.093 161.007 321.658 161.007C316.223 161.007 311.817 165.435 311.817 170.897C311.817 176.358 316.223 180.786 321.658 180.786Z" fill="#00C3F7"/>
<path d="M248.029 151.118C250.603 151.118 252.69 149.02 252.69 146.433C252.69 143.846 250.603 141.749 248.029 141.749C245.454 141.749 243.368 143.846 243.368 146.433C243.368 149.02 245.454 151.118 248.029 151.118Z" fill="#2F2E41"/>
<path d="M321.658 175.581C324.232 175.581 326.319 173.484 326.319 170.897C326.319 168.31 324.232 166.212 321.658 166.212C319.084 166.212 316.997 168.31 316.997 170.897C316.997 173.484 319.084 175.581 321.658 175.581Z" fill="#2F2E41"/>
<path d="M222.651 180.266C225.225 180.266 227.312 178.168 227.312 175.581C227.312 172.994 225.225 170.897 222.651 170.897C220.077 170.897 217.99 172.994 217.99 175.581C217.99 178.168 220.077 180.266 222.651 180.266Z" fill="#2F2E41"/>
<path d="M30.5052 98.5467C33.0796 98.5467 35.1665 96.4494 35.1665 93.8622C35.1665 91.2751 33.0796 89.1777 30.5052 89.1777C27.9309 89.1777 25.844 91.2751 25.844 93.8622C25.844 96.4494 27.9309 98.5467 30.5052 98.5467Z" fill="#F41971"/>
<path d="M247.77 94.1228H43.1935V93.0818H248.806V146.693H247.77V94.1228Z" fill="#2F2E41"/>
<path d="M17.0392 93.8622C17.0392 91.1856 17.829 88.5691 19.3086 86.3436C20.7883 84.1181 22.8913 82.3836 25.3519 81.3593C27.8124 80.335 30.52 80.067 33.1321 80.5891C35.7442 81.1113 38.1436 82.4002 40.0268 84.2928C41.91 86.1855 43.1925 88.5968 43.7121 91.222C44.2317 93.8472 43.965 96.5682 42.9458 99.0411C41.9267 101.514 40.2007 103.627 37.9863 105.115C35.7718 106.602 33.1684 107.395 30.5051 107.395C28.7367 107.395 26.9857 107.045 25.3519 106.365C23.7182 105.685 22.2337 104.688 20.9833 103.432C19.7329 102.175 18.741 100.683 18.0643 99.0411C17.3875 97.3992 17.0392 95.6394 17.0392 93.8622ZM30.5051 81.3701C28.0467 81.3701 25.6434 82.1028 23.5993 83.4754C21.5552 84.8481 19.9621 86.7991 19.0213 89.0817C18.0805 91.3643 17.8343 93.8761 18.3139 96.2993C18.7935 98.7225 19.9774 100.948 21.7157 102.695C23.4541 104.442 25.6689 105.632 28.0801 106.114C30.4913 106.596 32.9905 106.349 35.2618 105.403C37.5331 104.458 39.4744 102.857 40.8402 100.802C42.206 98.7481 42.935 96.3329 42.935 93.8622C42.9312 90.5503 41.6205 87.3751 39.2902 85.0332C36.96 82.6913 33.8005 81.3739 30.5051 81.3701Z" fill="#2F2E41"/>
<path d="M61.5799 233.357C64.1542 233.357 66.2411 231.26 66.2411 228.673C66.2411 226.085 64.1542 223.988 61.5799 223.988C59.0056 223.988 56.9187 226.085 56.9187 228.673C56.9187 231.26 59.0056 233.357 61.5799 233.357Z" fill="#98D800"/>
<path d="M48.1141 228.672C48.1141 225.996 48.9038 223.379 50.3835 221.154C51.8631 218.928 53.9662 217.194 56.4267 216.17C58.8872 215.145 61.5948 214.877 64.2069 215.399C66.819 215.922 69.2183 217.211 71.1015 219.103C72.9848 220.996 74.2673 223.407 74.7868 226.032C75.3064 228.657 75.0397 231.379 74.0205 233.851C73.0014 236.324 71.2754 238.438 69.061 239.925C66.8466 241.412 64.2431 242.206 61.5798 242.206C58.0085 242.206 54.5834 240.78 52.0581 238.242C49.5328 235.704 48.1141 232.262 48.1141 228.672ZM61.5798 216.18C59.1214 216.18 56.7182 216.913 54.6741 218.286C52.63 219.658 51.0369 221.609 50.0961 223.892C49.1553 226.175 48.9091 228.686 49.3887 231.11C49.8683 233.533 51.0522 235.759 52.7905 237.506C54.5289 239.253 56.7437 240.442 59.1548 240.924C61.566 241.407 64.0653 241.159 66.3365 240.214C68.6078 239.268 70.5491 237.667 71.9149 235.613C73.2807 233.558 74.0097 231.143 74.0097 228.672C74.006 225.361 72.6952 222.185 70.3649 219.843C68.0347 217.502 64.8753 216.184 61.5798 216.18Z" fill="#2F2E41"/>
<path d="M466.156 120.408C468.73 120.408 470.817 118.311 470.817 115.723C470.817 113.136 468.73 111.039 466.156 111.039C463.581 111.039 461.495 113.136 461.495 115.723C461.495 118.311 463.581 120.408 466.156 120.408Z" fill="#00C3F7"/>
<path d="M452.69 115.724C452.69 113.047 453.48 110.43 454.959 108.205C456.439 105.979 458.542 104.245 461.002 103.221C463.463 102.196 466.171 101.928 468.783 102.45C471.395 102.973 473.794 104.262 475.677 106.154C477.561 108.047 478.843 110.458 479.363 113.083C479.882 115.708 479.616 118.43 478.596 120.902C477.577 123.375 475.851 125.489 473.637 126.976C471.422 128.463 468.819 129.257 466.156 129.257C464.387 129.257 462.636 128.907 461.002 128.226C459.369 127.546 457.884 126.549 456.634 125.293C455.383 124.036 454.392 122.544 453.715 120.902C453.038 119.26 452.69 117.501 452.69 115.724ZM466.156 103.231C462.86 103.235 459.701 104.553 457.37 106.894C455.04 109.236 453.729 112.412 453.726 115.724C453.726 118.194 454.455 120.609 455.82 122.664C457.186 124.718 459.128 126.319 461.399 127.265C463.67 128.21 466.169 128.458 468.581 127.976C470.992 127.494 473.207 126.304 474.945 124.557C476.683 122.81 477.867 120.584 478.347 118.161C478.826 115.737 478.58 113.226 477.639 110.943C476.699 108.66 475.105 106.709 473.061 105.337C471.017 103.964 468.614 103.231 466.156 103.231V103.231Z" fill="#2F2E41"/>
<path d="M321.14 117.293L453.2 115.203L453.216 116.243L322.176 118.318V170.897H321.14V117.293Z" fill="#2F2E41"/>
<path d="M74.5281 228.152H222.133V175.582H223.169V229.193H74.5281V228.152Z" fill="#2F2E41"/>
<path d="M58.9904 118.326H2.01984V121.969H58.9904V118.326Z" fill="#CCCCCC"/>
<path d="M58.9904 128.736H2.01984V132.38H58.9904V128.736Z" fill="#CCCCCC"/>
<path d="M58.9904 139.146H2.01984V142.79H58.9904V139.146Z" fill="#CCCCCC"/>
<path d="M90.0651 253.136H33.0945V256.78H90.0651V253.136Z" fill="#CCCCCC"/>
<path d="M90.0651 263.546H33.0945V267.19H90.0651V263.546Z" fill="#CCCCCC"/>
<path d="M90.0651 273.956H33.0945V277.6H90.0651V273.956Z" fill="#CCCCCC"/>
<path d="M494.641 140.708H437.671V144.351H494.641V140.708Z" fill="#CCCCCC"/>
<path d="M494.641 151.118H437.671V154.761H494.641V151.118Z" fill="#CCCCCC"/>
<path d="M494.641 161.528H437.671V165.171H494.641V161.528Z" fill="#CCCCCC"/>
<path d="M521.762 451.138L513.66 454.048L498.636 424.026L510.594 419.731L521.762 451.138Z" fill="#FFB8B8"/>
<path d="M500.511 467.671L500.393 467.339C499.432 464.629 499.581 461.646 500.806 459.045C502.031 456.445 504.232 454.439 506.927 453.468L522.883 447.737L526.635 458.288L500.511 467.671Z" fill="#2F2E41"/>
<path d="M469.077 459.191L460.473 459.191L456.38 425.838L469.078 425.839L469.077 459.191Z" fill="#FFB8B8"/>
<path d="M471.271 467.573L443.528 467.572V467.219C443.528 465.794 443.808 464.383 444.35 463.067C444.893 461.75 445.689 460.554 446.691 459.546C447.694 458.538 448.884 457.739 450.195 457.193C451.505 456.648 452.909 456.367 454.327 456.367H454.328L471.272 456.368L471.271 467.573Z" fill="#2F2E41"/>
<path d="M488.685 246.112L484.944 238.681C484.944 238.681 471.004 242.191 469.737 250.31L488.685 246.112Z" fill="#009CC6"/>
<path d="M504.125 331.076L493.949 388.144L520.968 436.167L504.827 442.514L477.457 395.964L473.948 383.269L471.842 449.567L457.285 449.123L450.61 387.216L461.315 329.665L504.125 331.076Z" fill="#2F2E41"/>
<path d="M455.523 341.371C455.207 339.958 454.301 296.815 454.301 296.815C454.301 296.815 469.267 247.437 469.404 247.032L469.458 246.873L480.82 242.592C480.98 242.519 484.765 240.824 487.863 242.236C488.658 242.625 489.358 243.183 489.916 243.872C490.474 244.561 490.875 245.364 491.092 246.224C492.381 247.189 501.668 257.645 501.668 271.827L502.019 305.293L509.805 341.574L509.461 341.648C509.248 341.693 499.757 344.567 484.808 344.567C476.502 344.567 455.523 341.371 455.523 341.371Z" fill="#00C3F7"/>
<path d="M473.322 236.341C481.803 236.341 488.679 229.431 488.679 220.907C488.679 212.383 481.803 205.473 473.322 205.473C464.84 205.473 457.964 212.383 457.964 220.907C457.964 229.431 464.84 236.341 473.322 236.341Z" fill="#FFB8B8"/>
<path opacity="0.2" d="M495.2 288.903L468.333 326.577L464.365 308.984L495.2 288.903Z" fill="black"/>
<path d="M447.515 327.39C448.478 327.352 449.42 327.102 450.276 326.657C451.133 326.213 451.881 325.586 452.47 324.819C453.059 324.053 453.473 323.166 453.684 322.221C453.895 321.276 453.897 320.297 453.69 319.351L473.654 307.044L462.63 301.861L445.363 314.342C443.805 314.797 442.467 315.81 441.602 317.189C440.738 318.568 440.407 320.219 440.672 321.827C440.938 323.435 441.781 324.89 443.042 325.915C444.303 326.94 445.895 327.465 447.515 327.39Z" fill="#FFB8B8"/>
<path d="M461.315 302.158L454.478 306.974L460.277 317.323L468.333 310.622L461.315 302.158Z" fill="#0FA2C9"/>
<path d="M457.736 302.462L473.819 283.727L467.657 257.885C467.02 255.215 467.372 252.402 468.647 249.973C469.922 247.545 472.033 245.665 474.586 244.686C477.139 243.707 479.959 243.695 482.52 244.653C485.081 245.61 487.208 247.472 488.503 249.89L488.643 250.152L494.321 288.526L465.79 317.917L457.736 302.462Z" fill="#00C3F7"/>
<path d="M486.403 234.308L473.656 234.767C472.879 234.795 470.77 226.368 470.494 224.62C470.276 223.482 469.653 222.462 468.742 221.752C467.83 221.042 466.693 220.689 465.542 220.76C464.587 220.851 462.181 219.059 459.699 216.938C454.985 212.91 455.23 205.346 460.408 201.943C460.55 201.85 460.688 201.765 460.825 201.688C464.091 199.851 467.913 199.234 471.656 199.187C475.049 199.144 478.538 199.573 481.528 201.187C486.887 204.081 489.739 210.405 489.99 216.514C490.24 222.623 488.292 228.596 486.08 234.292" fill="#2F2E41"/>
<path d="M556.428 467.785H401.331C401.145 467.785 400.967 467.71 400.835 467.578C400.703 467.446 400.629 467.266 400.629 467.079C400.629 466.892 400.703 466.713 400.835 466.581C400.967 466.448 401.145 466.374 401.331 466.374H556.428C556.614 466.374 556.793 466.448 556.924 466.581C557.056 466.713 557.13 466.892 557.13 467.079C557.13 467.266 557.056 467.446 556.924 467.578C556.793 467.71 556.614 467.785 556.428 467.785Z" fill="#3F3D56"/>
</svg>
