<svg width="460" height="294" viewBox="0 0 460 294" fill="none" xmlns="http://www.w3.org/2000/svg">
<path d="M69.2135 80.9051C69.9791 72.6855 72.0937 64.6471 75.4728 57.1107C76.4145 55.0134 77.4511 52.9623 78.5825 50.9574C78.6392 50.8525 78.6528 50.7298 78.6205 50.6151C78.5883 50.5004 78.5125 50.4027 78.4094 50.3426C78.3062 50.2825 78.1836 50.2646 78.0675 50.2929C77.9515 50.3211 77.8509 50.3932 77.7871 50.4939C73.6728 57.7964 70.7904 65.7234 69.2552 73.9578C68.8282 76.2574 68.5072 78.5731 68.2924 80.9051C68.2378 81.4933 69.1593 81.4896 69.2135 80.9051Z" fill="#E6E6E6"/>
<path d="M80.8136 52.4302C84.0356 52.4302 86.6476 49.8264 86.6476 46.6144C86.6476 43.4024 84.0356 40.7986 80.8136 40.7986C77.5915 40.7986 74.9795 43.4024 74.9795 46.6144C74.9795 49.8264 77.5915 52.4302 80.8136 52.4302Z" fill="#E6E6E6"/>
<path d="M69.8103 81.0597C70.307 75.7273 71.6788 70.5124 73.871 65.6232C74.4819 64.2626 75.1544 62.9319 75.8884 61.6312C75.9252 61.5632 75.934 61.4836 75.9131 61.4092C75.8921 61.3348 75.843 61.2714 75.7761 61.2324C75.7091 61.1934 75.6296 61.1818 75.5543 61.2001C75.479 61.2185 75.4138 61.2652 75.3724 61.3306C72.7032 66.068 70.8333 71.2106 69.8373 76.5527C69.5603 78.0445 69.3521 79.5468 69.2127 81.0597C69.1773 81.4413 69.7751 81.4389 69.8103 81.0597Z" fill="#E6E6E6"/>
<path d="M77.336 62.5867C79.4263 62.5867 81.1207 60.8975 81.1207 58.8138C81.1207 56.73 79.4263 55.0408 77.336 55.0408C75.2458 55.0408 73.5513 56.73 73.5513 58.8138C73.5513 60.8975 75.2458 62.5867 77.336 62.5867Z" fill="#E6E6E6"/>
<path d="M69.0564 80.7034C66.158 76.1944 64.0221 71.2414 62.734 66.0423C62.3763 64.5948 62.0855 63.1333 61.8617 61.6577C61.8487 61.5815 61.8066 61.5133 61.7442 61.4675C61.6818 61.4217 61.6039 61.4018 61.5271 61.4121C61.4502 61.4224 61.3804 61.462 61.3323 61.5226C61.2842 61.5833 61.2616 61.6601 61.2693 61.737C62.0877 67.109 63.7862 72.3104 66.2969 77.1331C66.9989 78.4793 67.7617 79.7915 68.5852 81.0698C68.7927 81.3924 69.2626 81.024 69.0564 80.7034Z" fill="#E6E6E6"/>
<path d="M61.2643 62.3218C63.3547 62.3218 65.0492 60.6326 65.0492 58.5489C65.0492 56.4651 63.3547 54.7759 61.2643 54.7759C59.174 54.7759 57.4795 56.4651 57.4795 58.5489C57.4795 60.6326 59.174 62.3218 61.2643 62.3218Z" fill="#E6E6E6"/>
<path d="M57.437 84.0417V76.6286C57.4378 75.8915 57.7319 75.1849 58.2547 74.6638C58.7775 74.1426 59.4863 73.8495 60.2256 73.8486H77.577C78.3164 73.8495 79.0252 74.1426 79.548 74.6638C80.0708 75.1849 80.3648 75.8915 80.3656 76.6286V84.0417C80.3648 84.7787 80.0708 85.4853 79.548 86.0064C79.0252 86.5276 78.3164 86.8208 77.577 86.8216H60.2256C59.4863 86.8208 58.7775 86.5276 58.2547 86.0064C57.7319 85.4853 57.4378 84.7787 57.437 84.0417Z" fill="#F2F2F2"/>
<path d="M76.9571 36.7832H69.5208C68.7815 36.7824 68.0727 36.4892 67.5499 35.9681C67.0271 35.4469 66.733 34.7403 66.7322 34.0033V3.73305C66.733 2.99602 67.0271 2.28942 67.5499 1.76826C68.0727 1.24711 68.7815 0.953956 69.5208 0.953125H76.9571C77.6964 0.953956 78.4053 1.24711 78.928 1.76826C79.4508 2.28942 79.7449 2.99602 79.7457 3.73305V34.0033C79.7449 34.7403 79.4508 35.4469 78.928 35.9681C78.4053 36.4892 77.6964 36.7824 76.9571 36.7832Z" fill="#F2F2F2"/>
<path d="M79.4362 6.82178H67.0422V9.29283H79.4362V6.82178Z" fill="#CCCCCC"/>
<path d="M79.4362 25.9724H67.0422V28.4435H79.4362V25.9724Z" fill="#CCCCCC"/>
<path d="M95.5483 36.7832H88.1119C87.3726 36.7824 86.6637 36.4892 86.141 35.9681C85.6182 35.4469 85.3241 34.7403 85.3232 34.0033V3.73305C85.3241 2.99602 85.6182 2.28942 86.141 1.76826C86.6637 1.24711 87.3726 0.953956 88.1119 0.953125H95.5483C96.2877 0.953956 96.9965 1.24711 97.5193 1.76826C98.0421 2.28942 98.3362 2.99602 98.337 3.73305V34.0033C98.3362 34.7403 98.0421 35.4469 97.5193 35.9681C96.9965 36.4892 96.2877 36.7824 95.5483 36.7832Z" fill="#F2F2F2"/>
<path d="M98.0269 6.82178H85.6331V9.29283H98.0269V6.82178Z" fill="#CCCCCC"/>
<path d="M98.0269 25.9724H85.6331V28.4435H98.0269V25.9724Z" fill="#CCCCCC"/>
<path d="M114.139 36.7832H106.703C105.963 36.7824 105.255 36.4892 104.732 35.9681C104.209 35.4469 103.915 34.7403 103.914 34.0033V3.73305C103.915 2.99602 104.209 2.28942 104.732 1.76826C105.255 1.24711 105.963 0.953956 106.703 0.953125H114.139C114.878 0.953956 115.587 1.24711 116.11 1.76826C116.633 2.28942 116.927 2.99602 116.928 3.73305V34.0033C116.927 34.7403 116.633 35.4469 116.11 35.9681C115.587 36.4892 114.878 36.7824 114.139 36.7832Z" fill="#F2F2F2"/>
<path d="M116.618 6.82178H104.224V9.29283H116.618V6.82178Z" fill="#CCCCCC"/>
<path d="M116.618 25.9724H104.224V28.4435H116.618V25.9724Z" fill="#CCCCCC"/>
<path d="M124.054 86.8217H116.618C115.878 86.8209 115.17 86.5277 114.647 86.0066C114.124 85.4854 113.83 84.7788 113.829 84.0418V53.7716C113.83 53.0346 114.124 52.328 114.647 51.8068C115.17 51.2857 115.878 50.9925 116.618 50.9917H124.054C124.793 50.9925 125.502 51.2857 126.025 51.8068C126.548 52.328 126.842 53.0346 126.843 53.7716V84.0418C126.842 84.7788 126.548 85.4854 126.025 86.0066C125.502 86.5277 124.793 86.8209 124.054 86.8217Z" fill="#F2F2F2"/>
<path d="M126.533 56.8604H114.139V59.3314H126.533V56.8604Z" fill="#CCCCCC"/>
<path d="M126.533 76.0107H114.139V78.4818H126.533V76.0107Z" fill="#CCCCCC"/>
<path d="M142.645 86.8217H135.209C134.469 86.8209 133.761 86.5277 133.238 86.0066C132.715 85.4854 132.421 84.7788 132.42 84.0418V53.7716C132.421 53.0346 132.715 52.328 133.238 51.8068C133.761 51.2857 134.469 50.9925 135.209 50.9917H142.645C143.385 50.9925 144.093 51.2857 144.616 51.8068C145.139 52.328 145.433 53.0346 145.434 53.7716V84.0418C145.433 84.7788 145.139 85.4854 144.616 86.0066C144.093 86.5277 143.385 86.8209 142.645 86.8217Z" fill="#F2F2F2"/>
<path d="M145.124 56.8604H132.73V59.3314H145.124V56.8604Z" fill="#CCCCCC"/>
<path d="M145.124 76.0107H132.73V78.4818H145.124V76.0107Z" fill="#CCCCCC"/>
<path d="M161.236 86.8217H153.799C153.06 86.8209 152.351 86.5277 151.828 86.0066C151.306 85.4854 151.012 84.7788 151.011 84.0418V53.7716C151.012 53.0346 151.306 52.328 151.828 51.8068C152.351 51.2857 153.06 50.9925 153.799 50.9917H161.236C161.975 50.9925 162.684 51.2857 163.207 51.8068C163.729 52.328 164.023 53.0346 164.024 53.7716V84.0418C164.023 84.7788 163.729 85.4854 163.207 86.0066C162.684 86.5277 161.975 86.8209 161.236 86.8217Z" fill="#F2F2F2"/>
<path d="M163.715 56.8604H151.321V59.3314H163.715V56.8604Z" fill="#CCCCCC"/>
<path d="M163.715 76.0107H151.321V78.4818H163.715V76.0107Z" fill="#CCCCCC"/>
<path d="M75.0985 136.86H67.6622C66.9228 136.859 66.214 136.566 65.6912 136.045C65.1684 135.524 64.8744 134.817 64.8735 134.08V103.81C64.8744 103.073 65.1684 102.367 65.6912 101.845C66.214 101.324 66.9228 101.031 67.6622 101.03H75.0985C75.8378 101.031 76.5466 101.324 77.0694 101.845C77.5922 102.367 77.8862 103.073 77.8871 103.81V134.08C77.8862 134.817 77.5922 135.524 77.0694 136.045C76.5466 136.566 75.8378 136.859 75.0985 136.86Z" fill="#F2F2F2"/>
<path d="M77.5772 106.899H65.1833V109.37H77.5772V106.899Z" fill="#CCCCCC"/>
<path d="M77.5772 126.049H65.1833V128.52H77.5772V126.049Z" fill="#CCCCCC"/>
<path d="M93.6891 136.86H86.2528C85.5134 136.859 84.8046 136.566 84.2818 136.045C83.759 135.524 83.4649 134.817 83.4641 134.08V103.81C83.4649 103.073 83.759 102.367 84.2818 101.845C84.8046 101.324 85.5134 101.031 86.2528 101.03H93.6891C94.4285 101.031 95.1373 101.324 95.6601 101.845C96.1829 102.367 96.4769 103.073 96.4778 103.81V134.08C96.4769 134.817 96.1829 135.524 95.6601 136.045C95.1373 136.566 94.4285 136.859 93.6891 136.86Z" fill="#F2F2F2"/>
<path d="M96.1679 106.899H83.7739V109.37H96.1679V106.899Z" fill="#CCCCCC"/>
<path d="M96.1679 126.049H83.7739V128.52H96.1679V126.049Z" fill="#CCCCCC"/>
<path d="M112.28 136.86H104.844C104.104 136.859 103.396 136.566 102.873 136.045C102.35 135.524 102.056 134.817 102.055 134.08V103.81C102.056 103.073 102.35 102.367 102.873 101.845C103.396 101.324 104.104 101.031 104.844 101.03H112.28C113.019 101.031 113.728 101.324 114.251 101.845C114.774 102.367 115.068 103.073 115.069 103.81V134.08C115.068 134.817 114.774 135.524 114.251 136.045C113.728 136.566 113.019 136.859 112.28 136.86Z" fill="#F2F2F2"/>
<path d="M114.759 106.899H102.365V109.37H114.759V106.899Z" fill="#CCCCCC"/>
<path d="M114.759 126.049H102.365V128.52H114.759V126.049Z" fill="#CCCCCC"/>
<path d="M132.73 36.7832H125.294C124.554 36.7824 123.846 36.4892 123.323 35.9681C122.8 35.4469 122.506 34.7403 122.505 34.0033V3.73305C122.506 2.99602 122.8 2.28942 123.323 1.76826C123.846 1.24711 124.554 0.953956 125.294 0.953125H132.73C133.47 0.953956 134.178 1.24711 134.701 1.76826C135.224 2.28942 135.518 2.99602 135.519 3.73305V34.0033C135.518 34.7403 135.224 35.4469 134.701 35.9681C134.178 36.4892 133.47 36.7824 132.73 36.7832Z" fill="#F2F2F2"/>
<path d="M135.209 6.82178H122.815V9.29283H135.209V6.82178Z" fill="#CCCCCC"/>
<path d="M135.209 25.9724H122.815V28.4435H135.209V25.9724Z" fill="#CCCCCC"/>
<path d="M151.321 36.7832H143.884C143.145 36.7824 142.436 36.4892 141.913 35.9681C141.391 35.4469 141.097 34.7403 141.096 34.0033V3.73305C141.097 2.99602 141.391 2.28942 141.913 1.76826C142.436 1.24711 143.145 0.953956 143.884 0.953125H151.321C152.06 0.953956 152.769 1.24711 153.292 1.76826C153.814 2.28942 154.109 2.99602 154.109 3.73305V34.0033C154.109 34.7403 153.814 35.4469 153.292 35.9681C152.769 36.4892 152.06 36.7824 151.321 36.7832Z" fill="#F2F2F2"/>
<path d="M153.8 6.82178H141.406V9.29283H153.8V6.82178Z" fill="#CCCCCC"/>
<path d="M153.8 25.9724H141.406V28.4435H153.8V25.9724Z" fill="#CCCCCC"/>
<path d="M169.912 36.7832H162.475C161.736 36.7824 161.027 36.4892 160.504 35.9681C159.981 35.4469 159.687 34.7403 159.687 34.0033V3.73305C159.687 2.99602 159.981 2.28942 160.504 1.76826C161.027 1.24711 161.736 0.953956 162.475 0.953125H169.912C170.651 0.953956 171.36 1.24711 171.883 1.76826C172.405 2.28942 172.699 2.99602 172.7 3.73305V34.0033C172.699 34.7403 172.405 35.4469 171.883 35.9681C171.36 36.4892 170.651 36.7824 169.912 36.7832Z" fill="#F2F2F2"/>
<path d="M172.391 6.82178H159.997V9.29283H172.391V6.82178Z" fill="#CCCCCC"/>
<path d="M172.391 25.9724H159.997V28.4435H172.391V25.9724Z" fill="#CCCCCC"/>
<path d="M188.503 36.7832H181.066C180.327 36.7824 179.618 36.4892 179.095 35.9681C178.572 35.4469 178.278 34.7403 178.278 34.0033V3.73305C178.278 2.99602 178.572 2.28942 179.095 1.76826C179.618 1.24711 180.327 0.953956 181.066 0.953125H188.503C189.242 0.953956 189.951 1.24711 190.474 1.76826C190.996 2.28942 191.29 2.99602 191.291 3.73305V34.0033C191.29 34.7403 190.996 35.4469 190.474 35.9681C189.951 36.4892 189.242 36.7824 188.503 36.7832Z" fill="#F2F2F2"/>
<path d="M190.981 6.82178H178.587V9.29283H190.981V6.82178Z" fill="#CCCCCC"/>
<path d="M190.981 25.9724H178.587V28.4435H190.981V25.9724Z" fill="#CCCCCC"/>
<path d="M216.352 37.7098H39.7391C39.5747 37.7098 39.4171 37.6447 39.3009 37.5288C39.1847 37.413 39.1194 37.2559 39.1194 37.0921C39.1194 36.9282 39.1847 36.7711 39.3009 36.6553C39.4171 36.5394 39.5747 36.4744 39.7391 36.4744H216.352C216.517 36.4744 216.674 36.5394 216.791 36.6553C216.907 36.7711 216.972 36.9282 216.972 37.0921C216.972 37.2559 216.907 37.413 216.791 37.5288C216.674 37.6447 216.517 37.7098 216.352 37.7098Z" fill="#CCCCCC"/>
<path d="M216.352 87.7485H39.7391C39.5747 87.7485 39.4171 87.6834 39.3009 87.5675C39.1847 87.4517 39.1194 87.2945 39.1194 87.1307C39.1194 86.9669 39.1847 86.8097 39.3009 86.6939C39.4171 86.578 39.5747 86.5129 39.7391 86.5129H216.352C216.517 86.5129 216.674 86.578 216.791 86.6939C216.907 86.8097 216.972 86.9669 216.972 87.1307C216.972 87.2945 216.907 87.4517 216.791 87.5675C216.674 87.6834 216.517 87.7485 216.352 87.7485Z" fill="#CCCCCC"/>
<path d="M216.352 137.787H39.7391C39.5747 137.787 39.4171 137.722 39.3009 137.606C39.1847 137.49 39.1194 137.333 39.1194 137.169C39.1194 137.005 39.1847 136.848 39.3009 136.732C39.4171 136.617 39.5747 136.552 39.7391 136.552H216.352C216.517 136.552 216.674 136.617 216.791 136.732C216.907 136.848 216.972 137.005 216.972 137.169C216.972 137.333 216.907 137.49 216.791 137.606C216.674 137.722 216.517 137.787 216.352 137.787Z" fill="#CCCCCC"/>
<path d="M205.893 234.764C205.893 229.988 187.859 226.116 165.613 226.116C143.367 226.116 125.333 229.988 125.333 234.764C125.333 237.826 132.747 240.513 143.923 242.05V289.436C143.923 290.501 144.348 291.522 145.103 292.275C145.859 293.028 146.883 293.451 147.951 293.451C149.02 293.451 150.044 293.028 150.8 292.275C151.555 291.522 151.979 290.501 151.979 289.436V242.904C156.238 243.233 160.827 243.413 165.613 243.413C170.399 243.413 174.988 243.233 179.246 242.904V289.436C179.246 290.501 179.671 291.522 180.426 292.275C181.181 293.028 182.206 293.451 183.274 293.451C184.342 293.451 185.367 293.028 186.122 292.275C186.878 291.522 187.302 290.501 187.302 289.436V242.05C198.479 240.513 205.893 237.826 205.893 234.764Z" fill="#CCCCCC"/>
<path d="M198.143 285.682H205.74L209.354 256.47H198.141L198.143 285.682Z" fill="#A0616A"/>
<path d="M220.392 292.714L196.515 292.715L196.515 283.518L211.167 283.518C213.613 283.518 215.96 284.487 217.69 286.211C219.42 287.936 220.392 290.275 220.392 292.714L220.392 292.714Z" fill="#2F2E41"/>
<path d="M210.002 281.455L217.251 279.188L211.927 250.236L201.228 253.583L210.002 281.455Z" fill="#A0616A"/>
<path d="M233.343 281.524L210.561 288.651L207.799 279.877L221.779 275.503C224.113 274.773 226.643 274.997 228.812 276.126C230.98 277.255 232.61 279.197 233.343 281.524Z" fill="#2F2E41"/>
<path d="M204.92 268.01L191.021 231.642C187.903 232.372 161.755 238.14 152.998 228.844C149.996 225.658 149.411 221.043 151.258 215.125L156.369 208.722L156.528 208.731C158.46 208.832 203.894 211.371 207.009 225.033C209.635 236.551 214.431 258.024 215.838 264.332C215.98 264.985 215.883 265.668 215.563 266.256C215.243 266.843 214.721 267.297 214.094 267.534L208.505 269.623C208.193 269.74 207.863 269.8 207.531 269.8C206.965 269.8 206.412 269.628 205.946 269.309C205.48 268.989 205.122 268.536 204.92 268.01Z" fill="#2F2E41"/>
<path d="M196.863 272.334L182.965 235.966C179.847 236.696 153.699 242.463 144.941 233.169C141.94 229.983 141.355 225.367 143.202 219.449L148.313 213.047L148.471 213.055C150.404 213.157 195.838 215.695 198.953 229.357C201.579 240.875 206.374 262.349 207.782 268.656C207.924 269.31 207.827 269.992 207.507 270.58C207.186 271.168 206.665 271.622 206.038 271.858L200.449 273.948C200.137 274.064 199.807 274.124 199.474 274.124C198.909 274.124 198.356 273.953 197.89 273.633C197.424 273.314 197.066 272.861 196.863 272.334Z" fill="#2F2E41"/>
<path d="M215.645 185.154C215.44 185.428 215.256 185.718 215.097 186.02L184.533 189.23L180.133 183.217L170.162 188.65L178.803 203.242L216.287 193.715C217.233 194.634 218.437 195.244 219.739 195.464C221.041 195.685 222.38 195.505 223.577 194.948C224.774 194.392 225.772 193.485 226.44 192.349C227.107 191.213 227.412 189.901 227.314 188.588C227.215 187.275 226.718 186.024 225.888 184.999C225.059 183.975 223.936 183.226 222.669 182.853C221.403 182.481 220.052 182.501 218.797 182.912C217.542 183.323 216.443 184.105 215.645 185.154V185.154Z" fill="#A0616A"/>
<path d="M143.005 221.369C142.587 221.069 142.26 220.659 142.061 220.185C141.862 219.711 141.799 219.191 141.878 218.683C143.602 207.352 141.618 191.119 139.65 179.497C139.248 177.139 139.404 174.719 140.108 172.433C140.812 170.146 142.043 168.055 143.703 166.328C145.364 164.601 147.406 163.285 149.668 162.486C151.93 161.688 154.348 161.428 156.729 161.729C158.8 162.002 160.852 162.405 162.872 162.936C166.227 163.779 169.195 165.734 171.288 168.481C173.381 171.228 174.474 174.603 174.387 178.051C174.093 189.266 176.377 203.26 177.373 208.755C177.441 209.132 177.43 209.52 177.341 209.893C177.252 210.266 177.087 210.617 176.856 210.924C176.63 211.227 176.342 211.48 176.012 211.666C175.681 211.853 175.316 211.968 174.938 212.005C163.902 213.127 152.002 218.492 145.89 221.59C145.497 221.792 145.062 221.898 144.62 221.9C144.039 221.898 143.474 221.712 143.005 221.369Z" fill="#A3DB1E"/>
<path d="M172.794 192.142C172.453 192.009 172.142 191.809 171.879 191.555C171.616 191.301 171.406 190.997 171.262 190.661L165.107 176.488C164.734 175.632 164.535 174.711 164.519 173.778C164.504 172.844 164.673 171.917 165.017 171.049C165.362 170.181 165.874 169.389 166.526 168.719C167.177 168.048 167.955 167.512 168.814 167.142C169.673 166.771 170.598 166.573 171.534 166.558C172.47 166.543 173.4 166.713 174.27 167.057C175.141 167.401 175.935 167.912 176.607 168.562C177.279 169.212 177.816 169.988 178.187 170.845L184.342 185.018C184.635 185.694 184.646 186.459 184.374 187.144C184.102 187.83 183.568 188.379 182.89 188.673L174.929 192.109C174.593 192.255 174.231 192.333 173.865 192.339C173.499 192.344 173.135 192.278 172.794 192.142H172.794Z" fill="#98D800"/>
<path d="M186.519 183.919C186.314 184.193 186.131 184.482 185.971 184.785L155.408 187.995L151.008 181.981L141.037 187.414L149.678 202.006L187.162 192.479C188.107 193.398 189.311 194.008 190.613 194.229C191.916 194.449 193.254 194.269 194.451 193.713C195.648 193.156 196.647 192.25 197.314 191.114C197.982 189.978 198.287 188.666 198.188 187.353C198.09 186.04 197.592 184.788 196.763 183.763C195.933 182.739 194.81 181.991 193.544 181.618C192.277 181.245 190.926 181.266 189.672 181.677C188.417 182.088 187.317 182.87 186.519 183.919V183.919Z" fill="#A0616A"/>
<path d="M143.669 192.76C143.328 192.627 143.016 192.427 142.753 192.173C142.49 191.918 142.28 191.615 142.136 191.279L135.981 177.106C135.609 176.25 135.409 175.329 135.394 174.395C135.378 173.462 135.547 172.535 135.892 171.667C136.236 170.799 136.748 170.007 137.4 169.337C138.051 168.666 138.829 168.13 139.688 167.759C140.548 167.389 141.472 167.19 142.408 167.176C143.344 167.161 144.274 167.331 145.145 167.675C146.015 168.018 146.809 168.53 147.481 169.18C148.153 169.83 148.69 170.606 149.061 171.462L155.216 185.635C155.509 186.312 155.52 187.077 155.248 187.762C154.976 188.447 154.443 188.997 153.765 189.291L145.803 192.726C145.467 192.872 145.106 192.951 144.739 192.956C144.373 192.962 144.009 192.895 143.669 192.76H143.669Z" fill="#98D800"/>
<path d="M155.596 156.908C164.002 156.908 170.817 150.115 170.817 141.735C170.817 133.355 164.002 126.562 155.596 126.562C147.19 126.562 140.376 133.355 140.376 141.735C140.376 150.115 147.19 156.908 155.596 156.908Z" fill="#A0616A"/>
<path d="M144.714 152.148C144.649 151.958 144.628 151.755 144.654 151.555C144.679 151.356 144.75 151.165 144.861 150.996C144.972 150.828 145.12 150.688 145.294 150.586C145.468 150.483 145.663 150.422 145.865 150.407C146.277 150.429 146.68 150.535 147.05 150.717C147.421 150.899 147.75 151.154 148.019 151.466C148.569 152.099 149.211 152.648 149.922 153.095C150.658 153.465 151.657 153.413 152.076 152.707C152.471 152.045 152.201 151.158 151.962 150.389C151.355 148.431 151.015 146.401 150.952 144.353C150.883 142.067 151.207 139.681 152.476 137.899C154.115 135.598 157.044 134.724 159.817 134.787C162.589 134.851 165.317 135.704 168.063 136.243C169.011 136.429 170.126 136.525 170.76 135.792C171.434 135.013 171.186 133.753 170.9 132.701C170.155 129.972 169.366 127.151 167.637 124.947C165.767 122.657 163.096 121.158 160.163 120.752C157.346 120.404 154.487 120.728 151.82 121.696C147.475 123.061 143.652 125.716 140.862 129.306C137.986 133.124 136.743 137.921 137.405 142.65C138.052 146.768 140.242 150.489 143.532 153.062L144.714 152.148Z" fill="#2F2E41"/>
<path d="M86.5993 188.676C87.3649 180.456 89.4794 172.418 92.8585 164.881C93.8003 162.784 94.8368 160.733 95.9682 158.728C96.0249 158.623 96.0386 158.5 96.0063 158.386C95.974 158.271 95.8983 158.173 95.7951 158.113C95.6919 158.053 95.5694 158.035 95.4533 158.063C95.3372 158.092 95.2366 158.164 95.1728 158.264C91.0585 165.567 88.1761 173.494 86.641 181.728C86.214 184.028 85.893 186.344 85.6781 188.676C85.6235 189.264 86.545 189.26 86.5993 188.676Z" fill="#3F3D56"/>
<path d="M98.1993 160.201C101.421 160.201 104.033 157.597 104.033 154.385C104.033 151.173 101.421 148.569 98.1993 148.569C94.9772 148.569 92.3652 151.173 92.3652 154.385C92.3652 157.597 94.9772 160.201 98.1993 160.201Z" fill="#F12778"/>
<path d="M87.1963 188.83C87.6929 183.498 89.0647 178.283 91.2569 173.394C91.8678 172.033 92.5403 170.702 93.2742 169.402C93.311 169.334 93.3199 169.254 93.2989 169.18C93.278 169.105 93.2289 169.042 93.1619 169.003C93.095 168.964 93.0155 168.952 92.9402 168.971C92.8649 168.989 92.7996 169.036 92.7582 169.101C90.0891 173.839 88.2192 178.981 87.2233 184.323C86.9463 185.815 86.7381 187.317 86.5987 188.83C86.5633 189.212 87.1611 189.209 87.1963 188.83Z" fill="#3F3D56"/>
<path d="M94.7216 170.357C96.8119 170.357 98.5065 168.668 98.5065 166.584C98.5065 164.5 96.8119 162.811 94.7216 162.811C92.6313 162.811 90.9368 164.5 90.9368 166.584C90.9368 168.668 92.6313 170.357 94.7216 170.357Z" fill="#F12778"/>
<path d="M86.4419 188.474C83.5434 183.965 81.4076 179.012 80.1195 173.813C79.7617 172.365 79.471 170.904 79.2472 169.428C79.2342 169.352 79.1921 169.284 79.1297 169.238C79.0672 169.192 78.9894 169.172 78.9125 169.182C78.8357 169.193 78.7659 169.232 78.7178 169.293C78.6697 169.354 78.6471 169.43 78.6548 169.507C79.4732 174.879 81.1717 180.081 83.6824 184.903C84.3844 186.249 85.1471 187.562 85.9707 188.84C86.1782 189.163 86.6481 188.794 86.4419 188.474Z" fill="#3F3D56"/>
<path d="M78.6498 170.092C80.7402 170.092 82.4347 168.403 82.4347 166.319C82.4347 164.235 80.7402 162.546 78.6498 162.546C76.5595 162.546 74.865 164.235 74.865 166.319C74.865 168.403 76.5595 170.092 78.6498 170.092Z" fill="#F12778"/>
<path d="M74.8228 191.812V184.399C74.8236 183.662 75.1177 182.955 75.6405 182.434C76.1632 181.913 76.872 181.62 77.6114 181.619H94.9628C95.7021 181.62 96.4109 181.913 96.9337 182.434C97.4565 182.955 97.7506 183.662 97.7514 184.399V191.812C97.7506 192.549 97.4565 193.256 96.9337 193.777C96.4109 194.298 95.7021 194.591 94.9628 194.592H77.6114C76.872 194.591 76.1632 194.298 75.6405 193.777C75.1177 193.256 74.8236 192.549 74.8228 191.812Z" fill="#CCCCCC"/>
<path d="M230.371 189.667H181.415C180.217 189.667 179.246 190.636 179.246 191.83C179.246 193.024 180.217 193.992 181.415 193.992H230.371C231.569 193.992 232.54 193.024 232.54 191.83C232.54 190.636 231.569 189.667 230.371 189.667Z" fill="#CCCCCC"/>
<path d="M263.215 193.992H208.062C206.994 193.991 205.97 193.567 205.215 192.815C204.46 192.062 204.035 191.041 204.034 189.977V159.706C204.035 158.642 204.46 157.621 205.215 156.868C205.97 156.116 206.994 155.692 208.062 155.691H263.215C264.283 155.692 265.307 156.116 266.062 156.868C266.817 157.621 267.242 158.642 267.243 159.706V189.977C267.242 191.041 266.817 192.062 266.062 192.815C265.307 193.567 264.283 193.991 263.215 193.992Z" fill="#00C3F7"/>
<path d="M235.638 178.548C237.692 178.548 239.356 176.889 239.356 174.842C239.356 172.794 237.692 171.135 235.638 171.135C233.585 171.135 231.92 172.794 231.92 174.842C231.92 176.889 233.585 178.548 235.638 178.548Z" fill="white"/>
<path d="M403.576 234.764C403.576 229.988 385.542 226.116 363.296 226.116C341.05 226.116 323.016 229.988 323.016 234.764C323.016 237.826 330.43 240.513 341.606 242.05V289.436C341.606 290.501 342.031 291.522 342.786 292.275C343.542 293.028 344.566 293.451 345.635 293.451C346.703 293.451 347.727 293.028 348.483 292.275C349.238 291.522 349.663 290.501 349.663 289.436V242.904C353.921 243.233 358.51 243.413 363.296 243.413C368.082 243.413 372.671 243.233 376.929 242.904V289.436C376.929 290.501 377.354 291.522 378.109 292.275C378.864 293.028 379.889 293.451 380.957 293.451C382.025 293.451 383.05 293.028 383.805 292.275C384.561 291.522 384.985 290.501 384.985 289.436V242.05C396.162 240.513 403.576 237.826 403.576 234.764Z" fill="#CCCCCC"/>
<path d="M367.75 155.603C377.333 155.603 385.101 147.859 385.101 138.306C385.101 128.753 377.333 121.008 367.75 121.008C358.167 121.008 350.398 128.753 350.398 138.306C350.398 147.859 358.167 155.603 367.75 155.603Z" fill="#2F2E41"/>
<path d="M324.569 286.3H316.972L313.358 257.087H324.57L324.569 286.3Z" fill="#FFB8B8"/>
<path d="M311.545 284.136H326.197V293.332H302.32C302.32 292.125 302.558 290.929 303.022 289.813C303.486 288.697 304.165 287.683 305.022 286.829C305.879 285.975 306.896 285.298 308.015 284.836C309.134 284.374 310.334 284.136 311.545 284.136Z" fill="#2F2E41"/>
<path d="M312.71 282.073L305.461 279.806L310.785 250.854L321.484 254.201L312.71 282.073Z" fill="#FFB8B8"/>
<path d="M300.933 276.121L314.913 280.494L312.151 289.269L289.369 282.142C289.732 280.99 290.318 279.92 291.096 278.994C291.873 278.067 292.826 277.303 293.9 276.744C294.974 276.185 296.148 275.842 297.354 275.735C298.561 275.628 299.777 275.759 300.933 276.121Z" fill="#2F2E41"/>
<path d="M315.181 270.417C314.849 270.417 314.519 270.358 314.207 270.241L308.618 268.152C307.99 267.915 307.469 267.461 307.149 266.873C306.829 266.286 306.731 265.603 306.874 264.949C308.281 258.642 313.077 237.168 315.703 225.65C318.818 211.988 364.252 209.45 366.184 209.349L366.343 209.34L371.454 215.743C373.301 221.66 372.716 226.276 369.714 229.462C360.956 238.757 334.808 232.989 331.69 232.259L317.792 268.628C317.59 269.154 317.232 269.607 316.766 269.927C316.299 270.246 315.747 270.417 315.181 270.417Z" fill="#2F2E41"/>
<path d="M323.237 274.742C322.905 274.742 322.575 274.682 322.263 274.565L316.674 272.476C316.047 272.239 315.525 271.786 315.205 271.198C314.885 270.61 314.788 269.927 314.93 269.274C316.337 262.966 321.133 241.493 323.759 229.975C326.874 216.313 372.308 213.774 374.24 213.673L374.399 213.665L379.51 220.067C381.357 225.985 380.772 230.6 377.77 233.786C369.013 243.081 342.865 237.314 339.747 236.584L325.848 272.952C325.646 273.478 325.288 273.931 324.822 274.251C324.356 274.571 323.803 274.742 323.237 274.742Z" fill="#2F2E41"/>
<path d="M307.066 185.772C307.272 186.046 307.455 186.335 307.615 186.638L338.178 189.848L342.578 183.835L352.549 189.267L343.908 203.86L306.424 194.332C305.478 195.251 304.274 195.862 302.972 196.082C301.67 196.303 300.332 196.122 299.135 195.566C297.938 195.01 296.939 194.103 296.271 192.967C295.604 191.831 295.299 190.519 295.398 189.206C295.496 187.893 295.993 186.641 296.823 185.617C297.652 184.592 298.775 183.844 300.042 183.471C301.309 183.098 302.659 183.119 303.914 183.53C305.169 183.941 306.268 184.723 307.066 185.772Z" fill="#FFB8B8"/>
<path d="M378.092 222.518C377.65 222.516 377.215 222.41 376.822 222.208C370.71 219.11 358.809 213.745 347.774 212.623C347.396 212.586 347.03 212.47 346.7 212.284C346.37 212.098 346.082 211.845 345.856 211.542C345.625 211.235 345.46 210.884 345.371 210.511C345.282 210.138 345.271 209.75 345.339 209.373C346.335 203.877 348.619 189.884 348.325 178.669C348.238 175.221 349.331 171.846 351.424 169.099C353.517 166.352 356.485 164.397 359.84 163.554C361.86 163.023 363.912 162.62 365.983 162.347C368.364 162.046 370.782 162.306 373.044 163.104C375.305 163.903 377.348 165.218 379.008 166.946C380.669 168.673 381.9 170.764 382.604 173.05C383.308 175.337 383.464 177.757 383.061 180.115C381.093 191.737 379.109 207.969 380.834 219.301C380.913 219.809 380.85 220.329 380.651 220.803C380.452 221.277 380.125 221.687 379.707 221.987C379.238 222.33 378.673 222.516 378.092 222.518Z" fill="#F12778"/>
<path d="M348.891 192.957C348.51 192.956 348.133 192.878 347.783 192.726L339.822 189.291C339.144 188.997 338.61 188.447 338.338 187.762C338.066 187.077 338.078 186.312 338.37 185.635L344.525 171.462C344.896 170.606 345.433 169.83 346.105 169.18C346.777 168.53 347.571 168.018 348.442 167.675C349.312 167.331 350.242 167.161 351.178 167.176C352.115 167.19 353.039 167.389 353.898 167.759C354.757 168.13 355.535 168.666 356.186 169.337C356.838 170.007 357.35 170.799 357.694 171.667C358.039 172.535 358.208 173.462 358.193 174.395C358.177 175.329 357.978 176.25 357.605 177.106L351.451 191.279C351.234 191.777 350.876 192.201 350.422 192.499C349.967 192.797 349.435 192.956 348.891 192.957Z" fill="#F41971"/>
<path d="M367.116 157.526C375.522 157.526 382.336 150.732 382.336 142.353C382.336 133.973 375.522 127.18 367.116 127.18C358.71 127.18 351.895 133.973 351.895 142.353C351.895 150.732 358.71 157.526 367.116 157.526Z" fill="#FFB8B8"/>
<path d="M351.621 134.898C358.831 139.285 366.958 141.955 375.372 142.7L372.868 139.709C374.691 140.381 376.609 140.761 378.551 140.834C380.491 140.804 382.524 140.06 383.625 138.467C384.116 137.676 384.407 136.777 384.475 135.849C384.542 134.921 384.383 133.99 384.012 133.136C383.249 131.433 382.062 129.953 380.563 128.836C377.905 126.741 374.77 125.334 371.435 124.739C368.1 124.145 364.669 124.383 361.448 125.431C359.239 126.089 357.261 127.354 355.74 129.082C354.297 130.856 351.519 132.437 352.258 134.599L351.621 134.898Z" fill="#2F2E41"/>
<path d="M369.675 122.654C364.874 117.801 359.065 114.056 352.656 111.683C348.542 110.163 344.064 109.225 339.763 110.087C335.462 110.95 331.395 113.916 330.195 118.123C329.214 121.563 330.227 125.267 331.749 128.505C333.272 131.743 335.305 134.746 336.536 138.105C337.793 141.532 338.171 145.218 337.635 148.828C337.1 152.438 335.67 155.857 333.473 158.776C331.276 161.695 328.382 164.02 325.055 165.541C321.728 167.063 318.072 167.731 314.42 167.487C318.646 168.052 322.541 170.031 326.672 171.085C330.802 172.139 335.678 172.068 338.747 169.118C341.995 165.996 342.06 160.922 341.903 156.427L341.203 136.384C341.084 132.977 340.982 129.46 342.215 126.28C343.447 123.1 346.377 120.315 349.797 120.344C352.388 120.366 354.682 121.931 356.761 123.475C358.84 125.019 361.04 126.666 363.621 126.895C366.203 127.125 369.151 125.22 368.958 122.644" fill="#2F2E41"/>
<path d="M298.926 174.597L333.972 175.422L339.049 212.769L306.684 213.493L298.926 174.597Z" fill="#44C9ED"/>
<path d="M336.192 184.536C336.398 184.81 336.581 185.1 336.741 185.402L367.304 188.612L371.704 182.599L381.675 188.032L373.034 202.624L335.55 193.097C334.604 194.016 333.4 194.626 332.098 194.847C330.796 195.067 329.458 194.887 328.261 194.33C327.064 193.774 326.065 192.867 325.397 191.731C324.73 190.595 324.425 189.283 324.523 187.97C324.622 186.658 325.119 185.406 325.949 184.381C326.778 183.357 327.901 182.608 329.168 182.236C330.435 181.863 331.785 181.883 333.04 182.294C334.295 182.705 335.394 183.487 336.192 184.536V184.536Z" fill="#FFB8B8"/>
<path d="M378.016 193.575C377.635 193.574 377.258 193.496 376.909 193.344L368.947 189.908C368.269 189.615 367.736 189.065 367.464 188.38C367.191 187.695 367.203 186.93 367.496 186.253L373.65 172.08C374.022 171.223 374.559 170.448 375.231 169.798C375.903 169.148 376.697 168.636 377.567 168.292C378.438 167.949 379.368 167.779 380.304 167.794C381.24 167.808 382.164 168.006 383.024 168.377C383.883 168.748 384.66 169.284 385.312 169.954C385.963 170.625 386.476 171.417 386.82 172.285C387.164 173.153 387.334 174.08 387.318 175.013C387.303 175.947 387.103 176.868 386.731 177.724L380.576 191.897C380.36 192.395 380.002 192.818 379.547 193.116C379.093 193.414 378.56 193.574 378.016 193.575Z" fill="#F41971"/>
<path d="M305.974 193.374H59.3349C58.2666 193.374 57.2421 193.797 56.4867 194.55C55.7313 195.303 55.3069 196.325 55.3069 197.39C55.3069 198.455 55.7313 199.476 56.4867 200.229C57.2421 200.982 58.2666 201.405 59.3349 201.405H66.4614V288.818C66.4614 289.883 66.8858 290.904 67.6412 291.657C68.3966 292.41 69.4211 292.834 70.4894 292.834C71.5577 292.834 72.5823 292.41 73.3377 291.657C74.0931 290.904 74.5175 289.883 74.5175 288.818V209.121L119.675 290.713C120.211 291.633 121.09 292.304 122.121 292.578C123.152 292.853 124.25 292.708 125.174 292.176C126.098 291.644 126.772 290.769 127.049 289.742C127.327 288.715 127.184 287.62 126.652 286.698L79.4463 201.405H295.129V201.457L247.953 286.698C247.418 287.62 247.274 288.716 247.55 289.745C247.827 290.773 248.502 291.65 249.427 292.183C250.352 292.715 251.451 292.86 252.483 292.584C253.515 292.309 254.395 291.636 254.929 290.713L295.129 218.078V288.818C295.129 289.883 295.554 290.904 296.309 291.657C297.064 292.41 298.089 292.834 299.157 292.834C300.226 292.834 301.25 292.41 302.006 291.657C302.761 290.904 303.185 289.883 303.185 288.818V203.522L304.357 201.405H305.974C307.042 201.405 308.067 200.982 308.822 200.229C309.578 199.476 310.002 198.455 310.002 197.39C310.002 196.325 309.578 195.303 308.822 194.55C308.067 193.797 307.042 193.374 305.974 193.374Z" fill="#3F3D56"/>
<path d="M458.366 293.739H0.848521C0.653198 293.739 0.466073 293.661 0.328159 293.523C0.190244 293.385 0.112793 293.198 0.112793 293.004C0.112793 292.809 0.190244 292.622 0.328159 292.484C0.466073 292.346 0.653198 292.269 0.848521 292.268H458.366C458.562 292.268 458.75 292.346 458.888 292.484C459.027 292.621 459.104 292.809 459.104 293.004C459.104 293.199 459.027 293.386 458.888 293.524C458.75 293.662 458.562 293.739 458.366 293.739Z" fill="#3F3D56"/>
</svg>
