<svg width="842" height="710" viewBox="0 0 842 710" fill="none" xmlns="http://www.w3.org/2000/svg">
<path d="M98.7465 575.401C115.685 609.322 137.171 642.127 164.355 671.818C164.959 672.489 165.568 673.142 166.184 673.807L230.591 642.519C230.197 641.847 229.765 641.093 229.301 640.269C201.633 591.694 34.6218 295.383 39.8991 228.272C39.2844 233.807 19.4883 416.853 98.7465 575.401Z" fill="#E6E6E6"/>
<path d="M151.929 677.855C152.831 678.38 153.755 678.895 154.686 679.393L203.003 655.921C202.327 655.429 201.54 654.848 200.636 654.194C185.833 643.288 141.817 610.567 98.7467 575.401C52.4614 537.611 7.26106 497.007 0.548401 477.625C1.91191 482.07 44.2764 617.168 151.929 677.855Z" fill="#E6E6E6"/>
<path d="M592.51 709.912C455.065 709.912 343.644 698.592 343.644 684.627C343.644 670.663 455.065 659.343 592.51 659.343C729.954 659.343 841.375 670.663 841.375 684.627C841.375 698.592 729.954 709.912 592.51 709.912Z" fill="#E6E6E6"/>
<path d="M728.778 696.51C687.596 696.51 654.211 662.253 654.211 619.994C654.211 577.736 687.596 543.479 728.778 543.479C769.96 543.479 803.344 577.736 803.344 619.994C803.344 662.253 769.96 696.51 728.778 696.51Z" fill="#98D800"/>
<path d="M698.909 587.885H758.646C761.286 587.888 763.817 588.965 765.683 590.881C767.55 592.796 768.6 595.393 768.603 598.102V641.887C768.6 644.595 767.55 647.192 765.683 649.107C763.817 651.023 761.286 652.1 758.646 652.103H698.909C696.269 652.1 693.738 651.023 691.872 649.107C690.005 647.192 688.955 644.595 688.952 641.887V598.102C688.955 595.393 690.005 592.796 691.872 590.881C693.738 588.965 696.269 587.888 698.909 587.885ZM698.909 593.723C698.552 593.724 698.197 593.772 697.852 593.864L728.771 619.173L759.508 593.813C759.225 593.753 758.936 593.723 758.646 593.723H698.909ZM698.909 646.265H758.646C759.778 646.264 760.862 645.802 761.662 644.981C762.462 644.16 762.912 643.047 762.913 641.887V598.495L730.56 625.188C730.056 625.604 729.429 625.831 728.783 625.832C728.136 625.833 727.509 625.609 727.003 625.195L694.642 598.705V641.887C694.643 643.048 695.093 644.16 695.893 644.981C696.693 645.802 697.777 646.264 698.909 646.265Z" fill="white"/>
<path d="M524.088 426.055L585.016 430.075L601.359 370.717L547.807 357.839L524.088 426.055Z" fill="#2F2E41"/>
<path d="M441.009 503.786L424.325 503.927C422.636 503.942 420.965 503.578 419.428 502.861C417.891 502.145 416.525 501.093 415.425 499.779C414.324 498.465 413.517 496.92 413.058 495.253C412.599 493.586 412.5 491.836 412.768 490.126C413.057 488.285 413.762 486.539 414.828 485.029C415.894 483.519 417.29 482.287 418.905 481.432C420.519 480.577 422.307 480.122 424.124 480.105C425.941 480.089 427.736 480.51 429.366 481.335L445.1 489.302L498.915 501.616L521.97 477.429L535.213 499.81L504.102 524.475L441.009 503.786Z" fill="#FFB8B8"/>
<path d="M444.136 680.67L463.793 684.549C477.22 641.119 491.767 599.989 491.766 568.179C510.768 589.879 534.331 602.294 562.078 606.193L559.054 558.093L536.373 545.68L501.659 529.24C498.62 527.8 495.341 526.968 491.998 526.788C485.5 526.437 479.104 528.565 474.043 532.763C468.981 536.961 465.612 542.931 464.584 549.526L444.136 680.67Z" fill="#FFB8B8"/>
<path d="M447.16 661.275C447.16 661.275 445.275 660.456 437.748 670.563C437.748 670.563 413.709 675.157 417.685 686.28C421.66 697.402 452.569 697.053 455.506 695.353C458.443 693.654 481.821 693.689 480.205 686.132C478.589 678.575 469.277 670.129 469.277 670.129C469.277 670.129 464.995 679.031 458.34 679.069C449.428 679.119 446.404 671.361 447.916 663.603C447.93 663.53 447.103 661.322 447.16 661.275Z" fill="#2F2E41"/>
<path d="M598.419 634.822C598.419 634.822 595.474 643.083 608.733 648.06C608.733 648.06 621.74 673.328 632.181 665.126C642.622 656.924 631.787 622.554 628.991 619.852C626.196 617.15 618.318 591.052 610.857 595.413C603.396 599.775 597.598 613.026 597.598 613.026C597.598 613.026 621.623 620.942 610.258 639.266C610.258 639.266 605.303 639.61 598.419 634.822Z" fill="#2F2E41"/>
<path d="M570.943 415.715C557.27 415.715 546.186 404.341 546.186 390.311C546.186 376.281 557.27 364.907 570.943 364.907C584.615 364.907 595.699 376.281 595.699 390.311C595.699 404.341 584.615 415.715 570.943 415.715Z" fill="#FFB8B8"/>
<path d="M549.604 457.626H592.698L601.771 430.473C586.043 425.546 589.716 411.556 592.698 397.889H549.604C557.959 414.988 568.338 439.186 548.092 443.661L549.604 457.626Z" fill="#FFB8B8"/>
<path d="M538.263 600.374L546.098 606.484C549.466 609.112 553.446 610.789 557.642 611.351C561.838 611.912 566.104 611.337 570.017 609.684C592.457 592.424 610.759 597.597 625.208 623.649C642.539 603.577 644.455 574.507 628.988 544.516L543.177 546.456L525.788 541.025L538.263 600.374Z" fill="#2F2E41"/>
<path d="M566.841 690.26C571.758 691.813 577.051 691.54 581.792 689.491C586.533 687.441 590.42 683.745 592.771 679.05C600.483 672.08 606.99 662.101 612.633 649.966C616.683 641.064 620.16 631.9 623.042 622.532C626.947 610.155 620.417 596.634 608.264 592.931C607.903 592.821 607.537 592.718 607.167 592.62C590.943 588.346 574.282 597.948 568.736 614.167L552.61 661.327C551.634 664.183 551.229 667.211 551.421 670.231C551.612 673.251 552.396 676.2 553.725 678.902C555.053 681.604 556.9 684.002 559.154 685.954C561.408 687.906 564.022 689.37 566.841 690.26Z" fill="#FFB8B8"/>
<path opacity="0.2" d="M615.379 644.595C615.379 644.595 596.478 666.318 592.698 678.731L615.379 644.595Z" fill="black"/>
<path d="M688.685 542.078L695.011 557.921C695.651 559.524 695.942 561.251 695.865 562.982C695.788 564.712 695.344 566.405 694.564 567.941C693.784 569.478 692.686 570.821 691.348 571.877C690.01 572.934 688.464 573.678 686.817 574.058C685.044 574.467 683.202 574.444 681.44 573.989C679.678 573.535 678.044 572.662 676.671 571.442C675.297 570.221 674.222 568.687 673.532 566.962C672.841 565.238 672.555 563.371 672.697 561.512L674.06 543.562L665.209 487.718L634.759 474.739L650.09 453.807L683.964 474.283L688.685 542.078Z" fill="#FFB8B8"/>
<path d="M537.507 544.516C559.23 581.959 594.166 575.387 631.256 546.068C615.614 534.067 625.208 499.52 638.817 497.192C652.889 494.786 654.581 465.255 659.986 450.644L594.21 425.818L576.443 440.171L558.676 435.904L551.392 438.556C546.652 440.282 542.54 443.456 539.61 447.652C536.681 451.847 535.073 456.863 535.004 462.024C549.931 484.152 560.981 507.757 537.507 544.516Z" fill="#F41971"/>
<path d="M529.19 514.26C529.19 514.26 532.538 496.547 543.528 502.106C554.518 507.666 555.274 492.149 555.274 492.149L546.579 440.558L511.045 479.349L529.19 514.26Z" fill="#F41971"/>
<path d="M547.819 357.616C547.819 357.616 535.272 362.444 535.097 379.584C535.104 382.467 535.504 385.336 536.285 388.106C537.128 391.248 537.842 398.076 532.432 407.235C528.896 413.181 525.707 419.335 522.88 425.667L537.065 426.942L539.201 402.811C540.236 391.112 542.945 379.633 547.239 368.744L547.329 368.516C547.329 368.516 553.931 380.054 566.286 379.584L561.71 375.224C561.71 375.224 577.24 381.065 585.667 382.189C586.629 382.318 587.538 382.713 588.297 383.333C589.056 383.952 589.636 384.773 589.974 385.705C590.313 386.638 590.396 387.648 590.217 388.626C590.037 389.604 589.601 390.513 588.955 391.256C588.907 391.312 588.857 391.368 588.806 391.424C583.707 397.059 573.574 410.139 580.111 419.865C586.648 429.592 581.451 432.51 581.451 432.51L590.962 426.707L595.277 423.823L595.408 427.445L618.254 423.857C618.254 423.857 624.399 422.717 610.606 407.825C610.606 407.825 606.895 401.98 608.238 396.765C609.354 392.799 609.533 388.617 608.763 384.566C605.185 367.702 592.332 334.393 547.819 357.616Z" fill="#2F2E41"/>
<path d="M96.3849 165.581H100.113V60.8077C100.113 44.7253 106.339 29.3016 117.421 17.9297C128.504 6.55771 143.534 0.169022 159.207 0.169022H375.531C391.203 0.169022 406.234 6.55771 417.316 17.9297C428.399 29.3016 434.625 44.7253 434.625 60.8077V635.606C434.625 651.689 428.399 667.113 417.316 678.484C406.234 689.856 391.203 696.245 375.531 696.245H159.208C143.535 696.245 128.505 689.856 117.422 678.484C106.34 667.113 100.114 651.689 100.114 635.606V240.161H96.3859L96.3849 165.581Z" fill="#3F3D56"/>
<path d="M156.823 15.9437H185.061C183.761 19.2108 183.265 22.7556 183.616 26.2659C183.966 29.7762 185.153 33.1441 187.071 36.0729C188.989 39.0017 191.579 41.4014 194.614 43.0607C197.649 44.7199 201.035 45.5878 204.474 45.5877H328.402C331.841 45.5874 335.226 44.7195 338.261 43.0603C341.295 41.4011 343.885 39.0017 345.803 36.0733C347.721 33.1449 348.907 29.7775 349.258 26.2677C349.609 22.7579 349.113 19.2134 347.815 15.9465H374.193C385.897 15.9465 397.122 20.7177 405.399 29.2104C413.675 37.7032 418.325 49.2218 418.325 61.2323V635.185C418.325 647.195 413.675 658.714 405.399 667.207C397.122 675.699 385.897 680.47 374.193 680.47H156.831C145.127 680.47 133.902 675.699 125.625 667.207C117.349 658.714 112.699 647.195 112.699 635.185V635.185V61.2294C112.699 49.2188 117.349 37.7002 125.625 29.2075C133.902 20.7148 145.127 15.9436 156.831 15.9436H156.823V15.9437Z" fill="white"/>
<path d="M265.134 648.396C251.75 648.396 240.9 637.262 240.9 623.528C240.9 609.794 251.75 598.661 265.134 598.661C278.518 598.661 289.368 609.794 289.368 623.528C289.368 637.262 278.518 648.396 265.134 648.396Z" fill="#E6E6E6"/>
<path d="M363.447 393.553C365.738 393.553 367.602 395.737 367.602 398.42C367.602 401.103 365.738 403.286 363.447 403.286H167.577C165.287 403.286 163.422 401.103 163.422 398.42C163.422 395.737 165.287 393.553 167.577 393.553H363.447Z" fill="#E6E6E6"/>
<path d="M363.447 508.327C365.738 508.327 367.602 510.51 367.602 513.193C367.602 515.876 365.738 518.059 363.447 518.059H167.577C165.287 518.059 163.422 515.876 163.422 513.193C163.422 510.51 165.287 508.327 167.577 508.327H363.447Z" fill="#E6E6E6"/>
<path d="M363.447 422.751C365.738 422.751 367.602 424.934 367.602 427.617C367.602 430.3 365.738 432.484 363.447 432.484H279.164C276.873 432.484 275.009 430.3 275.009 427.617C275.009 424.934 276.873 422.751 279.164 422.751H363.447Z" fill="#E6E6E6"/>
<path d="M363.447 450.582C365.738 450.582 367.602 452.765 367.602 455.448C367.602 458.131 365.738 460.315 363.447 460.315H167.577C165.287 460.315 163.422 458.131 163.422 455.448C163.422 452.765 165.287 450.582 167.577 450.582H363.447Z" fill="#E6E6E6"/>
<path d="M363.447 479.78C365.738 479.78 367.602 481.963 367.602 484.646C367.602 487.329 365.738 489.513 363.447 489.513H279.164C276.873 489.513 275.009 487.329 275.009 484.646C275.009 481.963 276.873 479.78 279.164 479.78H363.447Z" fill="#E6E6E6"/>
<path d="M326.47 171.973H204.542C203.195 171.974 201.904 172.524 200.951 173.501C199.999 174.479 199.463 175.804 199.461 177.186V307.489C199.463 308.871 199.999 310.196 200.951 311.173C201.904 312.151 203.195 312.7 204.542 312.702H326.47C327.817 312.7 329.109 312.151 330.061 311.173C331.013 310.196 331.549 308.871 331.551 307.489V177.186C331.549 175.804 331.013 174.479 330.061 173.501C329.109 172.524 327.817 171.974 326.47 171.973Z" fill="#00C3F7"/>
<path d="M230.522 285.831C230.069 285.832 229.62 285.741 229.2 285.563C228.781 285.386 228.4 285.125 228.079 284.797C227.759 284.468 227.504 284.077 227.33 283.648C227.157 283.218 227.067 282.757 227.067 282.292C227.067 281.827 227.157 281.366 227.33 280.936C227.504 280.506 227.759 280.116 228.079 279.787C228.4 279.458 228.781 279.198 229.2 279.02C229.62 278.843 230.069 278.752 230.522 278.753H300.49C300.943 278.752 301.392 278.843 301.811 279.02C302.23 279.198 302.611 279.458 302.932 279.787C303.253 280.116 303.508 280.506 303.681 280.936C303.855 281.366 303.944 281.827 303.944 282.292C303.944 282.757 303.855 283.218 303.681 283.648C303.508 284.077 303.253 284.468 302.932 284.797C302.611 285.125 302.23 285.386 301.811 285.563C301.392 285.741 300.943 285.832 300.49 285.831H230.522Z" fill="white"/>
<path d="M230.522 264.979C229.607 264.979 228.73 264.606 228.083 263.942C227.436 263.278 227.073 262.378 227.073 261.439C227.073 260.501 227.436 259.6 228.083 258.937C228.73 258.273 229.607 257.9 230.522 257.9H300.489C300.942 257.9 301.391 257.992 301.809 258.169C302.228 258.347 302.608 258.608 302.928 258.937C303.249 259.265 303.503 259.656 303.676 260.085C303.849 260.514 303.939 260.975 303.939 261.439C303.939 261.904 303.849 262.364 303.676 262.794C303.503 263.223 303.249 263.613 302.928 263.942C302.608 264.271 302.228 264.531 301.809 264.709C301.391 264.887 300.942 264.979 300.489 264.979H230.522Z" fill="white"/>
<path d="M265.506 198.843C261.212 198.843 257.015 200.15 253.444 202.598C249.874 205.046 247.091 208.525 245.448 212.596C243.805 216.667 243.375 221.146 244.213 225.468C245.05 229.789 247.118 233.759 250.154 236.874C253.191 239.99 257.059 242.112 261.271 242.971C265.482 243.831 269.847 243.39 273.814 241.704C277.781 240.018 281.172 237.162 283.558 233.499C285.943 229.835 287.217 225.528 287.217 221.121C287.21 215.215 284.921 209.552 280.85 205.376C276.78 201.199 271.262 198.85 265.506 198.843Z" fill="white"/>
</svg>
