<svg width="474" height="314" viewBox="0 0 474 314" fill="none" xmlns="http://www.w3.org/2000/svg">
<path d="M49.4266 88.375H39.1672V101.671H49.4266V88.375Z" fill="#98D800"/>
<path d="M276.724 274.701H266.464V287.996H276.724V274.701Z" fill="#F41971"/>
<path d="M432.125 148.104V137.877H418.788V148.104H432.125Z" fill="#00C3F7"/>
<path d="M397.785 286.341C420.166 286.341 438.31 268.254 438.31 245.943C438.31 223.632 420.166 205.545 397.785 205.545C375.404 205.545 357.26 223.632 357.26 245.943C357.26 268.254 375.404 286.341 397.785 286.341Z" fill="#2F2E41"/>
<path d="M413.437 301.264L425.551 299.078L421.622 273.862L409.507 276.048L413.437 301.264Z" fill="#2F2E41"/>
<path d="M389.208 302.057L401.322 299.871L397.393 278.234L385.278 280.42L389.208 302.057Z" fill="#2F2E41"/>
<path d="M395.638 306.611C399.962 302.96 402.354 298.691 400.981 297.074C399.608 295.458 394.99 297.107 390.666 300.757C386.342 304.408 383.95 308.677 385.323 310.294C386.696 311.91 391.315 310.261 395.638 306.611Z" fill="#2F2E41"/>
<path d="M419.363 305.909C423.687 302.259 426.079 297.989 424.705 296.373C423.332 294.756 418.714 296.405 414.39 300.056C410.066 303.706 407.674 307.976 409.047 309.592C410.42 311.208 415.039 309.559 419.363 305.909Z" fill="#2F2E41"/>
<path d="M394.947 249.868C402.597 249.868 408.798 243.687 408.798 236.061C408.798 228.436 402.597 222.255 394.947 222.255C387.298 222.255 381.097 228.436 381.097 236.061C381.097 243.687 387.298 249.868 394.947 249.868Z" fill="white"/>
<path d="M389.255 235.715C391.805 235.715 393.872 233.654 393.872 231.113C393.872 228.571 391.805 226.51 389.255 226.51C386.705 226.51 384.638 228.571 384.638 231.113C384.638 233.654 386.705 235.715 389.255 235.715Z" fill="#3F3D56"/>
<path d="M429.753 201.994C430.363 187.038 417.432 174.371 400.872 173.7C384.313 173.029 370.394 184.61 369.785 199.566C369.175 214.522 380.687 217.92 397.246 218.591C413.806 219.261 429.144 216.95 429.753 201.994Z" fill="#98D800"/>
<path d="M380.116 243.096C380.901 239.683 372.694 234.895 361.787 232.402C350.879 229.91 341.4 230.657 340.615 234.07C339.83 237.484 348.037 242.272 358.944 244.764C369.852 247.256 379.331 246.51 380.116 243.096Z" fill="#2F2E41"/>
<path d="M459.664 256.284C460.449 252.87 452.243 248.082 441.335 245.59C430.427 243.097 420.949 243.844 420.164 247.258C419.379 250.671 427.585 255.459 438.493 257.952C449.401 260.444 458.879 259.697 459.664 256.284Z" fill="#2F2E41"/>
<path d="M408.915 261.863C409.132 263.053 409.111 264.274 408.855 265.456C408.598 266.638 408.11 267.758 407.419 268.752C406.728 269.746 405.848 270.594 404.828 271.249C403.808 271.903 402.668 272.351 401.475 272.567C400.281 272.782 399.057 272.761 397.871 272.504C396.686 272.248 395.563 271.761 394.566 271.071C393.569 270.382 392.719 269.503 392.063 268.486C391.407 267.469 390.958 266.333 390.743 265.143C389.835 260.14 393.714 258.37 398.732 257.465C403.75 256.559 408.006 256.861 408.915 261.863Z" fill="white"/>
<path d="M187.157 272.704L185.748 290.962L199.367 292.366L196.079 270.363L187.157 272.704Z" fill="#FFB9B9"/>
<path d="M139.707 106.437C151.315 110.003 157.508 123.305 153.538 136.148L148.494 152.465L143.46 150.919L142.414 143.978L141.274 150.247L108.917 140.307L107.966 133.997L106.93 139.697L103.287 138.578L107.247 125.766C111.815 110.987 126.348 102.334 139.707 106.437Z" fill="#2F2E41"/>
<path d="M121.677 155.411C120.627 155.238 119.553 155.285 118.523 155.55C117.493 155.815 116.53 156.292 115.697 156.951C114.863 157.609 114.176 158.434 113.681 159.373C113.187 160.311 112.894 161.343 112.823 162.401C112.621 165.23 113.6 168.542 118 170.994C127.396 176.233 147.772 187.654 147.772 187.654L186.649 195.097C186.649 195.097 206.295 210.724 208.756 201.836C211.217 192.948 190.114 187.521 190.114 187.521L154.398 178.39L131.64 161.98C131.64 161.98 127.469 156.43 121.677 155.411Z" fill="#FFB9B9"/>
<path d="M109.251 191.825L113.158 202.803L136.604 197.137L130.565 188.992L109.251 191.825Z" fill="#FFB9B9"/>
<path d="M46.5513 295.053L28.7898 293.282L41.223 281.242L50.104 287.262L46.5513 295.053Z" fill="#FFB9B9"/>
<path d="M135.6 143.177C143.657 143.177 150.188 136.666 150.188 128.635C150.188 120.603 143.657 114.093 135.6 114.093C127.544 114.093 121.012 120.603 121.012 128.635C121.012 136.666 127.544 143.177 135.6 143.177Z" fill="#FFB9B9"/>
<path d="M124.17 130.915C124.17 130.915 116 140.476 111.737 141.893C107.474 143.309 96.8173 156.766 102.146 165.619C107.474 174.472 127.012 163.495 127.012 163.495L126.302 154.641C126.302 154.641 134.472 140.476 136.249 139.414C138.025 138.351 124.17 130.915 124.17 130.915Z" fill="#FFB9B9"/>
<path d="M122.751 148.013C117.319 139.86 104.72 141.319 101.595 150.596C101.54 150.762 101.486 150.929 101.436 151.1C98.5937 160.662 102.857 176.951 102.857 176.951L109.251 196.074C109.251 196.074 125.947 188.284 138.025 201.386L136.249 187.929C136.249 187.929 141.222 176.597 134.828 168.452C130.759 163.269 126.977 154.356 122.751 148.013Z" fill="#F41971"/>
<path d="M38.7363 292.574L38.0258 297.886C38.0258 297.886 14.5801 293.282 9.60676 297.532C4.63343 301.781 4.63343 304.614 0.725817 301.781C-0.93492 300.577 0.484251 297.646 2.66539 294.673C6.11961 290.009 10.659 286.252 15.8929 283.725C21.7556 280.863 29.8553 276.706 29.8553 275.576C29.8553 273.805 36.2496 268.493 38.7363 271.326C41.2229 274.159 45.841 281.95 45.841 281.95L38.7363 292.574Z" fill="#2F2E41"/>
<path d="M184.964 282.535C184.964 282.535 179.757 300.939 181.65 301.883C183.544 302.826 187.331 305.658 193.011 305.658C196.368 305.658 201.377 307.47 204.914 308.953C209.037 310.709 213.516 311.477 217.991 311.196C220.973 310.991 223.508 310.294 223.306 308.489C222.833 304.242 213.839 303.298 213.839 303.298L204.372 291.029C204.372 291.029 202.715 283.243 201.295 283.243C200.521 283.28 199.762 283.027 199.165 282.535L184.964 282.535Z" fill="#2F2E41"/>
<path d="M131.751 111.007C133.181 109.964 134.833 109.263 136.579 108.959C138.324 108.655 140.117 108.756 141.817 109.254L142.229 109.381C150.186 111.825 154.417 120.984 151.68 129.838V129.838L149.014 129.019L149.594 125.62L147.953 128.693L132.14 123.835L131.67 120.664L131.147 123.53L128.036 122.574C124.363 129.315 124.227 137.142 127.629 146.056L122.33 144.428L121.389 138.086L120.343 143.817L110.241 140.714L112.185 127.389C115.128 117.868 123.174 111.498 131.751 111.007Z" fill="#2F2E41"/>
<path d="M317.75 24.8121H197.057V249.994H317.75V24.8121Z" fill="#F2F2F2"/>
<path d="M346.867 250.463H196.587V0H346.867V250.463ZM197.527 249.526H345.927V0.936309H197.527V249.526Z" fill="#3F3D56"/>
<path d="M473.158 310.312H20.6726V311.361H473.158V310.312Z" fill="#3F3D56"/>
<path d="M328.551 131.551H214.903V27.6211H328.551V131.551ZM215.842 130.615H327.612V28.5574H215.842V130.615Z" fill="#3F3D56"/>
<path d="M215.704 103.995L215.04 103.333L250.461 68.0238L271.257 88.7556L327.515 32.674L328.179 33.3359L271.257 90.0796L250.461 69.3478L215.704 103.995Z" fill="#3F3D56"/>
<path d="M250.594 75.841C254.485 75.841 257.638 72.697 257.638 68.8187C257.638 64.9404 254.485 61.7964 250.594 61.7964C246.704 61.7964 243.55 64.9404 243.55 68.8187C243.55 72.697 246.704 75.841 250.594 75.841Z" fill="#98D800"/>
<path d="M271.727 95.0354C275.618 95.0354 278.771 91.8914 278.771 88.0131C278.771 84.1347 275.618 80.9907 271.727 80.9907C267.837 80.9907 264.683 84.1347 264.683 88.0131C264.683 91.8914 267.837 95.0354 271.727 95.0354Z" fill="#F41971"/>
<path d="M328.082 39.7933C331.972 39.7933 335.126 36.6493 335.126 32.771C335.126 28.8927 331.972 25.7487 328.082 25.7487C324.191 25.7487 321.037 28.8927 321.037 32.771C321.037 36.6493 324.191 39.7933 328.082 39.7933Z" fill="#00C3F7"/>
<path d="M314.463 160.577H228.991V169.004H314.463V160.577Z" fill="#3F3D56"/>
<path d="M291.451 229.864H252.003V190.539H278.771V191.475H252.942V228.928H290.512V210.201H291.451V229.864Z" fill="#3F3D56"/>
<path d="M271.524 219.607L263.18 208.516L266.186 206.269L271.931 213.904L298.342 187.576L300.998 190.224L271.524 219.607Z" fill="#00C3F7"/>
<path d="M138.203 202.272C138.203 202.272 129.677 190.939 112.27 197.668L109.073 206.521C109.073 206.521 90.6008 221.04 100.903 243.35L100.192 276.638L97.3503 286.2L45.8409 281.95L44.0647 298.24L53.3009 298.948C53.3009 298.948 105.521 319.487 113.691 306.739C121.862 293.99 138.913 243.704 138.913 243.704L183.143 250.307C183.143 250.307 181.848 264.106 183.269 265.876C184.69 267.647 183.98 275.084 184.69 276.5C185.401 277.917 184.809 281.599 184.809 281.599L199.484 281.116V274.033C199.484 274.033 201.26 264.472 201.26 261.993C201.26 259.514 211.917 226.934 193.445 224.101C174.972 221.268 143.176 216.082 143.176 216.082L138.203 202.272Z" fill="#2F2E41"/>
<path d="M121.605 146.919C121.156 145.779 120.473 144.745 119.599 143.883C118.725 143.022 117.68 142.353 116.53 141.918C115.381 141.484 114.154 141.294 112.927 141.361C111.7 141.428 110.5 141.75 109.405 142.307C106.471 143.783 103.756 146.714 103.922 152.517C104.278 164.911 104.988 191.825 104.988 191.825L120.618 234.674C120.618 234.674 116.711 263.358 127.013 260.525C137.315 257.692 130.21 233.612 130.21 233.612L118.132 192.887L120.974 160.662C120.974 160.662 124.024 153.25 121.605 146.919Z" fill="#FFB9B9"/>
</svg>
