<svg width="524" height="375" viewBox="0 0 524 375" fill="none" xmlns="http://www.w3.org/2000/svg">
<g clip-path="url(#clip0)">
<path opacity="0.1" d="M54.9337 339.278C77.1975 339.278 95.2458 336.379 95.2458 332.803C95.2458 329.227 77.1975 326.328 54.9337 326.328C32.6699 326.328 14.6216 329.227 14.6216 332.803C14.6216 336.379 32.6699 339.278 54.9337 339.278Z" fill="#6C63FF"/>
<path opacity="0.1" d="M416.574 374.403C456.05 374.403 488.052 371.296 488.052 367.462C488.052 363.629 456.05 360.521 416.574 360.521C377.098 360.521 345.096 363.629 345.096 367.462C345.096 371.296 377.098 374.403 416.574 374.403Z" fill="#6C63FF"/>
<path d="M481.289 49.2029H58.7374C55.5874 49.2029 53.0339 51.7564 53.0339 54.9063V289.322C53.0339 292.472 55.5874 295.026 58.7374 295.026H481.289C484.439 295.026 486.992 292.472 486.992 289.322V54.9063C486.992 51.7564 484.439 49.2029 481.289 49.2029Z" fill="url(#paint0_linear)"/>
<path d="M480.649 52.6596H59.4268C56.2769 52.6596 53.7234 55.2131 53.7234 58.363V288.505C53.7234 291.655 56.2769 294.208 59.4268 294.208H480.649C483.799 294.208 486.353 291.655 486.353 288.505V58.363C486.353 55.2131 483.799 52.6596 480.649 52.6596Z" fill="white"/>
<path d="M480.649 52.6596H59.4268C56.2769 52.6596 53.7234 55.2131 53.7234 58.363V288.505C53.7234 291.655 56.2769 294.208 59.4268 294.208H480.649C483.799 294.208 486.353 291.655 486.353 288.505V58.363C486.353 55.2131 483.799 52.6596 480.649 52.6596Z" fill="white"/>
<path opacity="0.04" d="M480.649 52.6596H59.4268C56.2769 52.6596 53.7234 55.2131 53.7234 58.363V288.505C53.7234 291.655 56.2769 294.208 59.4268 294.208H480.649C483.799 294.208 486.353 291.655 486.353 288.505V58.363C486.353 55.2131 483.799 52.6596 480.649 52.6596Z" fill="white"/>
<path d="M484.156 49.8879H55.9198C55.3373 49.8879 54.7786 50.1193 54.3667 50.5312C53.9548 50.9431 53.7234 51.5018 53.7234 52.0843V61.3678H486.334V52.0843C486.334 51.5049 486.106 50.949 485.698 50.5376C485.29 50.1262 484.736 49.8927 484.156 49.8879Z" fill="#00C3F7" fill-opacity="0.6"/>
<path d="M62.3632 58.5959C64.0024 58.5959 65.3313 57.267 65.3313 55.6278C65.3313 53.9885 64.0024 52.6596 62.3632 52.6596C60.7239 52.6596 59.395 53.9885 59.395 55.6278C59.395 57.267 60.7239 58.5959 62.3632 58.5959Z" fill="white"/>
<path d="M70.3546 58.5959C71.9939 58.5959 73.3228 57.267 73.3228 55.6277C73.3228 53.9884 71.9939 52.6595 70.3546 52.6595C68.7154 52.6595 67.3865 53.9884 67.3865 55.6277C67.3865 57.267 68.7154 58.5959 70.3546 58.5959Z" fill="white"/>
<path d="M78.3458 58.5959C79.9851 58.5959 81.314 57.267 81.314 55.6277C81.314 53.9884 79.9851 52.6595 78.3458 52.6595C76.7066 52.6595 75.3777 53.9884 75.3777 55.6277C75.3777 57.267 76.7066 58.5959 78.3458 58.5959Z" fill="white"/>
<path opacity="0.2" d="M205.456 82.9577H89.3552V92.812H205.456V82.9577Z" fill="#6C63FF"/>
<path opacity="0.1" d="M450.721 122.471H89.3552V274.057H450.721V122.471Z" fill="#5A5773"/>
<path opacity="0.1" d="M300.939 132.357H294.752V120.338C294.752 106.776 283.938 95.5015 270.376 95.296C267.106 95.2617 263.861 95.8749 260.829 97.1003C257.797 98.3256 255.037 100.139 252.709 102.436C250.38 104.733 248.53 107.468 247.263 110.483C245.997 113.498 245.34 116.734 245.33 120.005V132.357H239.156C236.427 132.365 233.813 133.453 231.884 135.382C229.955 137.311 228.867 139.926 228.859 142.654V192.072C228.867 194.8 229.955 197.414 231.884 199.344C233.813 201.273 236.427 202.36 239.156 202.369H300.939C303.667 202.36 306.281 201.273 308.209 199.343C310.138 197.414 311.225 194.8 311.232 192.072V142.654C311.225 139.926 310.138 137.312 308.209 135.382C306.281 133.453 303.667 132.365 300.939 132.357ZM273.655 164.481V182.181C273.661 183.118 273.31 184.022 272.675 184.711C272.039 185.399 271.165 185.82 270.23 185.889C269.742 185.912 269.255 185.835 268.797 185.664C268.339 185.493 267.921 185.231 267.568 184.894C267.214 184.557 266.933 184.151 266.741 183.702C266.548 183.253 266.449 182.77 266.449 182.281V164.472C264.779 163.658 263.434 162.301 262.633 160.623C261.833 158.946 261.625 157.047 262.043 155.236C262.461 153.425 263.481 151.809 264.935 150.652C266.39 149.495 268.193 148.865 270.052 148.865C271.911 148.865 273.714 149.495 275.169 150.652C276.623 151.809 277.643 153.425 278.061 155.236C278.479 157.047 278.271 158.946 277.471 160.623C276.671 162.301 275.325 163.658 273.655 164.472V164.481ZM287.555 132.357H252.535V120.005C252.535 115.363 254.379 110.911 257.662 107.628C260.944 104.346 265.396 102.502 270.038 102.502C274.68 102.502 279.132 104.346 282.415 107.628C285.697 110.911 287.541 115.363 287.541 120.005L287.555 132.357Z" fill="black"/>
<path d="M300.939 131.444H294.752V119.425C294.752 105.863 283.938 94.5883 270.376 94.3828C267.106 94.3485 263.861 94.9617 260.829 96.187C257.797 97.4124 255.037 99.2258 252.709 101.523C250.38 103.819 248.53 106.554 247.263 109.57C245.997 112.585 245.34 115.821 245.33 119.092V131.444H239.156C236.427 131.452 233.813 132.54 231.884 134.469C229.955 136.398 228.867 139.013 228.859 141.741V191.158C228.867 193.887 229.955 196.501 231.884 198.43C233.813 200.36 236.427 201.447 239.156 201.456H300.939C303.667 201.447 306.281 200.359 308.209 198.43C310.138 196.501 311.225 193.886 311.232 191.158V141.741C311.225 139.013 310.138 136.399 308.209 134.469C306.281 132.54 303.667 131.452 300.939 131.444ZM273.655 163.568V181.268C273.661 182.205 273.31 183.109 272.675 183.798C272.039 184.486 271.165 184.907 270.23 184.976C269.742 184.998 269.255 184.922 268.797 184.751C268.339 184.58 267.921 184.318 267.568 183.981C267.214 183.644 266.933 183.238 266.741 182.789C266.548 182.34 266.449 181.857 266.449 181.368V163.559C264.779 162.744 263.434 161.388 262.633 159.71C261.833 158.033 261.625 156.133 262.043 154.323C262.461 152.512 263.481 150.896 264.935 149.739C266.39 148.582 268.193 147.952 270.052 147.952C271.911 147.952 273.714 148.582 275.169 149.739C276.623 150.896 277.643 152.512 278.061 154.323C278.479 156.133 278.271 158.033 277.471 159.71C276.671 161.388 275.325 162.744 273.655 163.559V163.568ZM287.555 131.444H252.535V119.092C252.535 114.45 254.379 109.998 257.662 106.715C260.944 103.433 265.396 101.589 270.038 101.589C274.68 101.589 279.132 103.433 282.415 106.715C285.697 109.998 287.541 114.45 287.541 119.092L287.555 131.444Z" fill="#98D800"/>
<path opacity="0.1" d="M450.721 107.881H414.144V116.516H450.721V107.881Z" fill="#5A5773"/>
<path d="M463.169 369.554C462.929 368.343 462.516 367.173 461.946 366.079L456.466 357.896H456.498C456.498 357.896 455.635 353.786 456.498 351.768C457.361 349.749 453.42 344.786 453.42 344.786C453.42 344.786 452.941 343.539 454.192 342.005C455.443 340.47 453.42 335.977 453.42 335.977C453.42 335.977 452.461 326.593 452.365 325.159C452.269 323.725 451.498 315.78 451.498 315.78L449.671 298.934L446.42 254.289L446.361 253.453C446.762 253.257 446.977 253.133 446.977 253.133L446.329 228.448L446.89 227.941C451.795 223.502 463.106 213.228 462.991 213.004C462.877 212.78 461.621 195.848 461.475 191.61C461.35 188.599 460.691 185.634 459.53 182.852C459.247 182.29 458.43 178.587 458.092 177.021C458 176.592 457.941 176.322 457.941 176.322C457.941 176.322 454.626 170.002 454.913 167.13C455.201 164.258 455.776 162.107 448.708 161.102C448.708 161.102 442.771 160.216 439.237 157.801C437.147 156.354 434.862 155.21 432.451 154.403C432.451 154.403 430.47 150.75 429.09 151.988C428.507 150.684 428.07 149.32 427.789 147.919L427.748 147.663C430.366 145.838 432.25 143.142 433.063 140.056C433.109 139.882 433.145 139.704 433.187 139.531C433.324 139.577 433.467 139.603 433.611 139.608C434.812 139.608 435.552 138.27 436.675 137.846C437.132 137.668 437.694 137.64 438.045 137.28C438.161 137.14 438.248 136.979 438.299 136.806C438.351 136.632 438.367 136.45 438.347 136.27C438.358 136.146 438.358 136.02 438.347 135.896C438.349 135.852 438.349 135.808 438.347 135.763V135.809C438.041 134.147 436.753 132.672 436.894 130.982C437.031 129.393 438.429 127.996 438.315 126.448C438.313 126.326 438.302 126.204 438.283 126.083V126.137C438.112 125.533 437.799 124.979 437.369 124.521C436.878 123.851 436.233 123.309 435.488 122.941C434.853 122.662 434.118 122.599 433.524 122.265C431.78 121.315 431.785 118.84 430.748 117.151C430.304 116.446 429.674 115.877 428.927 115.507C428.18 115.137 427.345 114.981 426.515 115.055C425.218 115.183 424.045 115.872 422.761 116.096C421.008 116.407 419.223 115.836 417.56 115.183C415.898 114.53 414.213 113.813 412.428 113.813C410.642 113.813 408.711 114.726 408.172 116.411C407.884 117.324 408.026 118.306 407.807 119.233C407.414 120.868 405.98 122.037 404.496 122.85C403.583 123.357 402.496 123.936 402.213 124.895C402.213 124.868 402.213 124.845 402.213 124.822C402.192 124.899 402.177 124.977 402.167 125.055C402.158 125.157 402.158 125.259 402.167 125.361C402.167 126.019 402.514 126.644 402.747 127.27C403.181 128.46 403.171 129.767 402.72 130.95C402.382 131.818 401.806 132.581 401.477 133.444C401.323 133.846 401.221 134.266 401.176 134.695V134.622C401.165 134.817 401.165 135.012 401.176 135.206C401.17 135.873 401.327 136.531 401.633 137.124C401.842 137.534 402.132 137.897 402.484 138.192C402.836 138.488 403.244 138.71 403.683 138.846C404.596 139.056 405.167 138.161 406.131 138.389C406.303 138.431 406.472 138.484 406.638 138.549C406.669 138.754 406.701 138.96 406.738 139.161C407.321 142.234 408.958 145.007 411.368 147.001C411.368 147.111 411.405 147.221 411.419 147.335C411.71 149.155 411.837 150.998 411.798 152.842C411.798 152.842 410.359 150.737 408.386 154.801C408.386 154.801 403.24 157.769 401.464 158.107C399.687 158.445 393.381 160.641 393.381 160.641C392.43 161.329 391.286 161.698 390.112 161.696C388.144 161.696 386.509 166.002 386.746 168.345C386.984 170.687 386.605 172.413 384.774 172.509C382.943 172.605 383.943 176.318 383.956 176.382L383.787 177.181C383.431 178.815 382.655 182.322 382.381 182.87C381.22 185.652 380.56 188.617 380.431 191.629C380.289 195.866 379.061 212.735 378.92 213.022C378.824 213.21 386.573 220.292 392.02 225.242L392.81 225.954L390.304 249.371C390.377 250.273 390.645 251.149 391.089 251.937C391.534 252.725 392.145 253.408 392.879 253.937C392.879 254.211 392.879 254.49 392.852 254.777C392.742 257.517 392.523 260.832 392.084 261.7C391.317 263.234 391.509 271.463 391.509 271.463C391.509 271.463 390.737 288.213 389.778 290.035C388.819 291.857 388.623 295.679 388.911 296.427C389.198 297.176 387.947 317.291 387.947 317.291L386.988 326.292C386.988 326.292 387.276 334.904 386.408 335.096C385.541 335.287 385.061 341.224 385.061 341.224C385.061 341.224 381.988 345.434 383.331 346.964C384.673 348.493 383.134 349.169 382.993 349.548C382.851 349.927 380.061 351.375 382.079 356.727C382.098 356.78 382.119 356.831 382.143 356.882C380.253 359.508 374.262 367.978 374.627 369.266C374.897 370.085 375.468 370.771 376.225 371.184C377.636 372.029 380.057 372.421 383.906 371.184C390.299 369.124 389.842 367.64 389.842 367.64C389.875 366.947 390.173 366.292 390.674 365.811C391.175 365.33 391.842 365.06 392.536 365.056C395.18 364.864 397.153 362.426 397.153 362.426L396.843 361.27L396.418 359.672C396.468 359.215 396.792 358.416 398.244 357.973C400.459 357.302 399.879 353.092 399.879 353.092C399.879 353.092 399.687 348.69 400.646 348.114C401.605 347.539 401.226 340.265 401.226 340.265C401.226 340.265 402.286 335 403.82 331.456C405.354 327.913 407.19 306.862 407.19 306.862C407.19 306.862 408.437 296.523 409.592 293.555C410.747 290.587 411.807 282.262 411.807 282.262C411.807 282.262 418.926 268.477 419.017 265.413C419.017 265.413 419.93 262.54 420.844 265.7C421.757 268.86 424.323 276.422 424.323 276.422L426.821 285.706L429.803 299.583L431.73 311.264C431.73 311.264 431.438 315.666 432.186 317.2C432.935 318.734 434.013 322.269 433.438 322.94C432.862 323.611 434.588 326.771 435.072 327.438C435.556 328.105 435.072 342.274 435.072 342.274C435.072 342.274 437.283 354.334 440.456 356.43C440.678 356.575 440.913 356.698 441.159 356.795C441.114 358.101 441.068 359.85 441.127 360.763C441.12 360.968 441.155 361.171 441.228 361.362C441.516 361.745 444.785 364.33 445.461 364.33C446.137 364.33 448.534 366.006 448.635 366.818C448.735 367.631 455.662 371.074 456.644 371.175C457.626 371.275 462.384 372.129 463.037 370.791C463.199 370.4 463.245 369.97 463.169 369.554ZM446.151 197.072L446.644 197.497C446.644 197.497 447.151 201.446 447.511 202.629C447.872 203.812 447.438 206.113 447.438 206.113C447.471 206.972 447.643 207.82 447.945 208.625C448.374 209.488 447.078 211.365 447.078 211.365H445.922L445.561 196.579L446.151 197.072ZM411.798 152.924V152.837C411.788 152.865 411.784 152.897 411.784 152.924H411.798ZM394.057 209.844C393.879 209.462 393.853 209.026 393.984 208.625C394.087 208.408 394.168 208.182 394.226 207.949C394.368 207.349 394.457 206.738 394.491 206.122C394.492 206.115 394.492 206.107 394.491 206.1C394.45 205.88 394.08 203.762 394.422 202.638C394.765 201.515 395.285 197.506 395.285 197.506L395.614 197.227L396.377 196.565C396.377 196.565 396.377 196.318 396.432 195.912C396.591 199.382 396.719 203.218 396.514 203.41C396.13 203.789 394.733 207.52 395.071 207.666C395.18 207.716 395.03 209.209 394.774 211.219C394.487 210.787 394.246 210.326 394.057 209.844Z" fill="url(#paint1_linear)"/>
<path d="M430.862 156.573V162.253L419.209 168.112C419.209 168.112 407.637 161.112 410.491 158.326C412.318 156.563 411.966 151.723 411.473 148.394C411.185 146.458 410.852 145.038 410.852 145.038C410.852 145.038 431.638 139.102 428.497 143.609C427.446 145.115 427.364 147.065 427.716 148.997C428.428 152.828 430.862 156.573 430.862 156.573Z" fill="#FCB6B6"/>
<path d="M398.939 212.123L397.436 230.626C397.436 230.626 395.185 228.585 392.272 225.927C386.87 221 379.198 213.954 379.289 213.767C379.431 213.479 380.659 196.693 380.792 192.473C380.917 189.479 381.569 186.529 382.719 183.761C382.993 183.213 383.764 179.724 384.089 178.094C384.198 177.587 384.267 177.258 384.267 177.258L386.787 176.245C386.787 176.245 397.29 187.962 397.29 188.176C397.29 188.391 396.573 197.391 396.573 197.391L395.829 198.04L395.505 198.318C395.505 198.318 395.002 202.25 394.646 203.428C394.29 204.606 394.674 206.652 394.715 206.871C394.681 207.487 394.594 208.098 394.454 208.698C394.395 208.929 394.314 209.153 394.212 209.369C394.084 209.769 394.11 210.202 394.285 210.584C394.488 211.113 394.752 211.617 395.071 212.086L398.939 212.123Z" fill="#3F3D56"/>
<path d="M462.59 213.767C462.699 213.99 451.498 224.215 446.644 228.63L444.443 230.626L442.954 212.123H446.813C446.813 212.123 448.1 210.264 447.671 209.406C447.372 208.605 447.204 207.762 447.173 206.908C447.173 206.908 447.598 204.625 447.242 203.442C446.886 202.259 446.383 198.332 446.383 198.332L445.895 197.912L445.315 197.405C445.315 197.405 444.598 188.405 444.598 188.19C444.598 187.976 455.101 176.258 455.101 176.258L457.603 177.258C457.603 177.258 457.658 177.528 457.749 177.957C458.087 179.514 458.895 183.199 459.174 183.761C460.324 186.529 460.976 189.479 461.101 192.474C461.22 196.693 462.443 213.479 462.59 213.767Z" fill="#3F3D56"/>
<path d="M462.635 370.823C461.964 372.157 457.251 371.28 456.279 371.207C455.306 371.134 448.438 367.677 448.342 366.869C448.247 366.06 445.867 364.394 445.201 364.394C444.534 364.394 441.296 361.818 441.009 361.439C440.936 361.25 440.903 361.048 440.913 360.846C440.812 359.279 441.009 355.247 441.009 355.247L454.822 356.01L461.535 366.106C462.1 367.195 462.509 368.359 462.749 369.563C462.831 369.985 462.791 370.422 462.635 370.823Z" fill="#3F3D56"/>
<path opacity="0.1" d="M462.635 370.823C461.964 372.157 457.251 371.28 456.279 371.207C455.306 371.134 448.438 367.677 448.342 366.869C448.247 366.06 445.867 364.394 445.201 364.394C444.534 364.394 441.296 361.818 441.009 361.439C440.936 361.25 440.903 361.048 440.913 360.846C440.812 359.279 441.009 355.247 441.009 355.247L454.822 356.01L461.535 366.106C462.1 367.195 462.509 368.359 462.749 369.563C462.831 369.985 462.791 370.422 462.635 370.823Z" fill="black"/>
<path opacity="0.1" d="M462.635 370.823C461.964 372.157 457.251 371.28 456.279 371.207C455.306 371.134 448.438 367.677 448.342 366.869C448.246 366.06 445.867 364.394 445.201 364.394C444.534 364.394 441.296 361.818 441.009 361.439C440.936 361.25 440.903 361.048 440.913 360.846L445.388 363.677C445.388 363.677 448.246 365.503 449.009 366.586C449.772 367.668 455.781 369.919 456.279 369.965C456.649 370.001 460.594 369.243 462.749 369.563C462.831 369.985 462.791 370.422 462.635 370.823Z" fill="black"/>
<path d="M397.336 362.49C397.336 362.49 395.381 364.919 392.769 365.106C392.08 365.111 391.419 365.381 390.923 365.859C390.427 366.338 390.133 366.988 390.103 367.677C390.103 367.677 390.559 369.156 384.244 371.207C380.431 372.435 378.034 372.047 376.636 371.207C375.886 370.793 375.32 370.111 375.052 369.298C374.623 367.777 383.052 356.202 383.052 356.202L390.724 355.745L396.203 358.22L397.044 361.357L397.336 362.49Z" fill="#3F3D56"/>
<path opacity="0.1" d="M397.336 362.49C397.336 362.49 395.381 364.919 392.769 365.106C392.08 365.111 391.419 365.381 390.923 365.859C390.427 366.338 390.133 366.988 390.103 367.677C390.103 367.677 390.559 369.156 384.244 371.207C380.431 372.435 378.034 372.047 376.636 371.207C375.886 370.793 375.32 370.111 375.052 369.298C374.623 367.777 383.052 356.202 383.052 356.202L390.724 355.745L396.203 358.22L397.044 361.357L397.336 362.49Z" fill="black"/>
<path opacity="0.1" d="M397.336 362.49C397.336 362.49 395.381 364.919 392.769 365.106C392.08 365.111 391.419 365.381 390.923 365.859C390.427 366.338 390.133 366.988 390.103 367.677C390.103 367.677 390.559 369.156 384.244 371.207C380.431 372.435 378.034 372.047 376.636 371.207C380.23 370.832 388.171 368.563 388.965 367.777C389.92 366.823 391.112 364.202 391.92 364.156C392.482 364.12 395.336 362.403 397.048 361.339L397.336 362.49Z" fill="black"/>
<path d="M456.155 351.868C455.297 353.868 456.155 357.964 456.155 357.964C456.155 357.964 443.37 358.631 440.246 356.535C437.123 354.439 434.913 342.434 434.913 342.434C434.913 342.434 435.369 328.337 434.913 327.671C434.456 327.004 432.721 323.862 433.292 323.196C433.862 322.529 432.835 319.004 432.054 317.479C431.273 315.953 431.597 311.574 431.597 311.574L429.689 299.948L426.739 286.139L424.232 276.897C424.232 276.897 421.661 269.372 420.789 266.23C419.917 263.088 418.994 265.942 418.994 265.942C418.903 268.993 411.852 282.71 411.852 282.71C411.852 282.71 410.802 290.998 409.66 293.948C408.519 296.898 407.277 307.191 407.277 307.191C407.277 307.191 405.45 328.146 403.943 331.671C402.436 335.196 401.4 340.434 401.4 340.434C401.4 340.434 401.783 347.676 400.829 348.247C399.875 348.818 400.03 353.202 400.03 353.202C400.03 353.202 400.601 357.389 398.409 358.06C396.217 358.731 396.582 360.156 396.582 360.156C396.582 360.156 384.39 362.156 382.39 356.818C380.39 351.48 383.153 350.06 383.303 349.676C383.454 349.293 384.975 348.631 383.641 347.101C382.308 345.571 385.354 341.388 385.354 341.388C385.354 341.388 385.833 335.484 386.687 335.292C387.541 335.1 387.262 326.529 387.262 326.529L388.212 317.575C388.212 317.575 389.454 297.569 389.166 296.807C388.879 296.044 389.071 292.24 390.025 290.414C390.979 288.587 391.737 271.929 391.737 271.929C391.737 271.929 391.546 263.741 392.308 262.216C392.765 261.353 392.957 258.033 393.066 255.325C393.148 253.257 393.167 251.544 393.167 251.544L403.834 247.544L417.533 243.165L429.058 248.69L445.922 251.928L446.132 254.837L449.352 299.272L451.178 316.036C451.178 316.036 451.941 323.94 452.037 325.369C452.132 326.799 453.082 336.137 453.082 336.137C453.082 336.137 455.082 340.612 453.845 342.137C452.607 343.662 453.082 344.877 453.082 344.877C453.082 344.877 457.014 349.868 456.155 351.868Z" fill="#3F3D56"/>
<path opacity="0.1" d="M428.506 143.609C427.456 145.115 427.373 147.065 427.725 148.997C425.325 150.69 422.436 151.547 419.501 151.438C416.566 151.328 413.749 150.257 411.482 148.39C411.195 146.453 410.861 145.033 410.861 145.033C410.861 145.033 431.648 139.106 428.506 143.609Z" fill="black"/>
<path d="M433.365 137.782C433.365 140.428 432.58 143.015 431.11 145.215C429.64 147.415 427.55 149.13 425.105 150.143C422.66 151.156 419.97 151.421 417.375 150.904C414.779 150.388 412.395 149.114 410.524 147.243C408.653 145.371 407.379 142.987 406.863 140.392C406.346 137.797 406.611 135.107 407.624 132.662C408.637 130.217 410.351 128.127 412.552 126.657C414.752 125.187 417.339 124.402 419.985 124.402C421.744 124.394 423.488 124.734 425.115 125.404C426.742 126.073 428.221 127.058 429.465 128.302C430.709 129.546 431.694 131.025 432.363 132.652C433.033 134.279 433.373 136.022 433.365 137.782Z" fill="#FFB8B8"/>
<path opacity="0.1" d="M436.15 160.016L431.766 238.078L407.953 233.078L403.236 201.784L407.907 159.774L411.423 160.226L417.624 161.016L423.766 161.395L430.424 160.655L436.15 160.016Z" fill="black"/>
<path d="M436.15 160.586L431.766 238.649L407.953 233.649L403.236 202.355L407.907 160.349L411.423 160.796L417.624 161.586L423.766 161.965L430.424 161.226L436.15 160.586Z" fill="#00C3F7"/>
<path d="M416.574 162.682L425.15 162.97L422.739 166.345C422.739 166.345 422.908 173.162 424.054 175.117C425.2 177.071 424.862 207.264 424.862 207.264L422.579 211.598L418.675 206.739L418.725 166.874L416.574 162.682Z" fill="#3F3D56"/>
<path opacity="0.1" d="M416.574 162.682L425.15 162.97L422.739 166.345C422.739 166.345 422.908 173.162 424.054 175.117C425.2 177.071 424.862 207.264 424.862 207.264L422.579 211.598L418.675 206.739L418.725 166.874L416.574 162.682Z" fill="black"/>
<path opacity="0.1" d="M430.003 153.824L422.003 162.682L426.574 167.445L434.15 160.061L430.003 153.824Z" fill="black"/>
<path d="M430.003 153.253L422.003 162.112L426.574 166.874L434.15 159.49L430.003 153.253Z" fill="#6C63FF"/>
<path opacity="0.1" d="M418.624 162.253L410.523 154.157L409.761 158.394L413.478 167.683L418.624 162.253Z" fill="black"/>
<path d="M418.907 161.682L410.811 153.586L410.048 157.824L413.765 167.112L418.907 161.682Z" fill="#6C63FF"/>
<path opacity="0.1" d="M446.173 254.85C442.285 256.703 438.121 257.908 433.844 258.417C425.985 259.417 420.844 249.416 420.844 249.416L417.843 253.321C416.889 257.467 402.363 258.513 396.459 256.942C395.234 256.639 394.082 256.094 393.071 255.339C393.153 253.271 393.171 251.558 393.171 251.558L403.838 247.558L417.538 243.179L429.063 248.704L445.927 251.942L446.173 254.85Z" fill="black"/>
<path opacity="0.1" d="M436.15 160.591L431.771 238.649L407.953 233.649L403.226 202.36L407.893 160.349L411.409 160.806C411.319 162.336 411.147 163.86 410.893 165.372C410.322 168.043 413.848 186.998 413.848 186.998C413.848 186.998 420.547 208.255 423.56 205.191C426.574 202.127 430.867 185.948 430.867 185.948C433.776 179.948 430.917 163.116 430.702 162.778C430.553 162.281 430.461 161.767 430.428 161.249L436.15 160.591Z" fill="black"/>
<path opacity="0.1" d="M446.438 220.995L446.639 228.644L444.438 230.639L442.954 212.123H446.242L446.438 220.995Z" fill="black"/>
<path opacity="0.1" d="M394.719 206.885C394.685 207.5 394.598 208.111 394.459 208.712C394.459 208.543 394.459 208.447 394.422 208.433C394.285 208.397 394.45 207.698 394.719 206.885Z" fill="black"/>
<path opacity="0.1" d="M398.939 212.123L397.436 230.626C397.436 230.626 395.185 228.585 392.272 225.927L392.619 222.648C392.619 222.648 393.847 214.593 394.295 210.62C394.498 211.15 394.761 211.654 395.08 212.123H398.939Z" fill="black"/>
<path d="M411.857 153.869C411.857 153.869 410.432 151.773 408.478 155.819C408.478 155.819 403.381 158.774 401.628 159.107C399.874 159.44 393.637 161.632 393.637 161.632C392.695 162.313 391.562 162.679 390.399 162.678C388.445 162.678 386.824 166.966 387.061 169.299C387.299 171.632 386.92 173.349 385.111 173.445C383.303 173.541 384.299 177.299 384.299 177.299L396.349 191.113C396.349 191.113 397.112 203.83 396.733 204.214C396.354 204.597 394.97 208.323 395.304 208.451C395.637 208.579 393.477 222.644 393.477 222.644L390.573 249.937C390.573 249.937 390.573 254.503 396.482 256.079C402.391 257.654 416.925 256.613 417.862 252.467L420.862 248.558C420.862 248.558 426.003 258.563 433.862 257.563C441.721 256.563 446.726 253.704 446.726 253.704L445.867 220.995L445.296 197.419L457.566 177.258C457.566 177.258 454.279 170.97 454.566 168.125C454.854 165.281 455.42 163.125 448.42 162.125C448.42 162.125 442.515 161.244 439.036 158.837C436.968 157.402 434.708 156.264 432.323 155.458C432.323 155.458 430.36 151.805 428.994 153.056C428.994 153.056 430.364 158.221 430.25 158.993C430.136 159.764 430.465 163.253 430.679 163.614C430.894 163.975 433.753 180.784 430.844 186.784C430.844 186.784 426.574 202.963 423.538 206.027C420.501 209.091 413.825 187.834 413.825 187.834C413.825 187.834 410.3 168.874 410.87 166.208C411.441 163.541 411.857 153.869 411.857 153.869Z" fill="#3F3D56"/>
<path d="M422.049 216.315C423.206 216.315 424.145 215.376 424.145 214.219C424.145 213.061 423.206 212.123 422.049 212.123C420.891 212.123 419.953 213.061 419.953 214.219C419.953 215.376 420.891 216.315 422.049 216.315Z" fill="#3F3D56"/>
<path d="M422.049 226.196C423.206 226.196 424.145 225.258 424.145 224.1C424.145 222.943 423.206 222.004 422.049 222.004C420.891 222.004 419.953 222.943 419.953 224.1C419.953 225.258 420.891 226.196 422.049 226.196Z" fill="#3F3D56"/>
<path opacity="0.1" d="M422.049 216.315C423.206 216.315 424.145 215.376 424.145 214.219C424.145 213.061 423.206 212.123 422.049 212.123C420.891 212.123 419.953 213.061 419.953 214.219C419.953 215.376 420.891 216.315 422.049 216.315Z" fill="black"/>
<path opacity="0.1" d="M422.049 226.196C423.206 226.196 424.145 225.258 424.145 224.1C424.145 222.943 423.206 222.004 422.049 222.004C420.891 222.004 419.953 222.943 419.953 224.1C419.953 225.258 420.891 226.196 422.049 226.196Z" fill="black"/>
<path opacity="0.1" d="M440.885 349.01C440.885 349.01 449.488 349.676 450.342 350.343C451.196 351.01 440.885 349.01 440.885 349.01Z" fill="black" stroke="#6C63FF" stroke-width="0.456639" stroke-miterlimit="10"/>
<path opacity="0.1" d="M389.664 342.247C389.664 342.247 391.491 344.53 390.714 345.58C389.938 346.63 389.664 342.247 389.664 342.247Z" fill="black" stroke="#6C63FF" stroke-width="0.456639" stroke-miterlimit="10"/>
<path opacity="0.1" d="M391.856 350.48C391.856 350.48 395.189 348.288 396.523 349.745C397.856 351.201 391.856 350.48 391.856 350.48Z" fill="black" stroke="#6C63FF" stroke-width="0.456639" stroke-miterlimit="10"/>
<path opacity="0.1" d="M433.364 137.782C433.367 138.923 433.223 140.061 432.935 141.166C432.654 141.037 432.418 140.826 432.26 140.56C432.101 140.294 432.028 139.986 432.049 139.677C432.109 139.133 432.469 138.636 432.392 138.097C432.278 137.266 431.273 136.928 430.743 136.27C430.09 135.476 430.232 134.321 430.287 133.293C430.341 132.266 430.081 131.01 429.118 130.658C428.83 130.553 428.515 130.544 428.236 130.425C427.478 130.106 427.245 129.165 426.739 128.517C425.725 127.211 423.711 127.238 422.172 127.859C421.502 128.18 420.817 128.467 420.117 128.718C419.767 128.841 419.395 128.891 419.025 128.863C418.655 128.836 418.295 128.732 417.967 128.558C417.665 128.366 417.423 128.101 417.113 127.909C416.081 127.288 414.729 127.909 413.834 128.708C412.939 129.508 412.222 130.581 411.094 131.069C410.587 131.298 409.962 131.435 409.724 131.928C409.607 132.196 409.557 132.489 409.578 132.782C409.578 134.558 409.788 136.362 409.418 138.101C409.181 139.22 408.395 140.49 407.258 140.353C407.117 140.332 406.977 140.297 406.843 140.248C406.501 138.419 406.544 136.539 406.969 134.727C407.394 132.916 408.193 131.213 409.314 129.728C410.434 128.243 411.852 127.007 413.477 126.101C415.103 125.195 416.899 124.638 418.751 124.465C420.604 124.292 422.472 124.507 424.237 125.098C426.001 125.688 427.624 126.639 429 127.891C430.376 129.144 431.475 130.669 432.229 132.371C432.982 134.072 433.372 135.912 433.374 137.773L433.364 137.782Z" fill="black"/>
<path d="M406.245 139.49C406.587 139.567 406.911 139.745 407.263 139.791C408.4 139.928 409.185 138.659 409.423 137.54C409.793 135.8 409.601 133.996 409.587 132.22C409.562 131.928 409.61 131.634 409.729 131.366C409.989 130.873 410.615 130.736 411.099 130.508C412.204 130.014 412.925 128.964 413.838 128.147C414.752 127.329 416.081 126.727 417.113 127.348C417.418 127.53 417.665 127.804 417.966 127.996C418.296 128.167 418.657 128.27 419.028 128.297C419.398 128.325 419.77 128.277 420.122 128.156C420.83 127.946 421.492 127.576 422.172 127.297C423.697 126.676 425.716 126.654 426.738 127.95C427.245 128.603 427.478 129.54 428.236 129.859C428.515 129.978 428.83 129.992 429.118 130.097C430.081 130.457 430.328 131.704 430.287 132.731C430.245 133.759 430.108 134.914 430.743 135.709C431.273 136.357 432.278 136.695 432.392 137.535C432.465 138.074 432.109 138.576 432.049 139.115C432.036 139.316 432.062 139.516 432.127 139.707C432.191 139.897 432.293 140.072 432.426 140.222C432.559 140.373 432.72 140.495 432.901 140.583C433.082 140.67 433.278 140.721 433.478 140.732C434.666 140.732 435.401 139.403 436.511 138.978C436.967 138.8 437.52 138.773 437.881 138.412C438.015 138.239 438.109 138.038 438.158 137.824C438.207 137.611 438.209 137.389 438.164 137.175C437.94 135.426 436.538 133.905 436.689 132.151C436.83 130.471 438.387 129.005 438.059 127.352C437.891 126.743 437.578 126.183 437.145 125.722C436.656 125.059 436.018 124.519 435.282 124.147C434.647 123.873 433.912 123.809 433.332 123.475C431.606 122.53 431.611 120.064 430.593 118.384C430.155 117.689 429.536 117.129 428.801 116.763C428.067 116.397 427.246 116.241 426.428 116.311C425.145 116.439 423.98 117.119 422.711 117.347C420.971 117.658 419.209 117.087 417.56 116.434C415.912 115.781 414.245 115.064 412.478 115.064C410.71 115.064 408.797 115.977 408.258 117.649C407.975 118.562 408.117 119.539 407.898 120.457C407.514 122.087 406.071 123.247 404.619 124.055C403.619 124.612 402.418 125.252 402.299 126.389C402.222 127.11 402.619 127.759 402.87 128.457C403.297 129.639 403.287 130.935 402.843 132.11C402.509 132.973 401.952 133.731 401.614 134.59C401.374 135.173 401.261 135.799 401.281 136.429C401.302 137.059 401.456 137.677 401.733 138.243C401.946 138.656 402.241 139.02 402.599 139.315C402.958 139.609 403.374 139.827 403.82 139.955C404.719 140.17 405.286 139.28 406.245 139.49Z" fill="#3F3D56"/>
<g opacity="0.1">
<path opacity="0.1" d="M409.423 136.544C409.186 137.663 408.396 138.932 407.259 138.795C406.907 138.75 406.587 138.572 406.24 138.494C405.286 138.284 404.72 139.179 403.82 138.951C403.373 138.823 402.957 138.605 402.598 138.31C402.238 138.016 401.942 137.651 401.729 137.238C401.49 136.774 401.345 136.266 401.304 135.745C401.213 136.554 401.361 137.371 401.729 138.097C401.942 138.51 402.238 138.874 402.598 139.169C402.957 139.463 403.373 139.681 403.82 139.809C404.733 140.019 405.286 139.124 406.24 139.353C406.574 139.469 406.914 139.568 407.259 139.649C408.396 139.791 409.186 138.521 409.423 137.403C409.61 136.414 409.684 135.408 409.642 134.403C409.638 135.122 409.564 135.839 409.423 136.544Z" fill="black"/>
<path opacity="0.1" d="M403.167 129.667C403.225 128.919 403.122 128.167 402.866 127.462C402.659 126.993 402.484 126.511 402.34 126.019C402.321 126.095 402.306 126.173 402.295 126.252C402.217 126.968 402.619 127.621 402.866 128.32C403.025 128.754 403.126 129.207 403.167 129.667Z" fill="black"/>
<path opacity="0.1" d="M438.054 127.261C437.84 128.558 436.789 129.777 436.684 131.142C436.659 131.376 436.659 131.612 436.684 131.845C436.913 130.252 438.324 128.841 438.054 127.261Z" fill="black"/>
<path opacity="0.1" d="M438.132 136.896C438.093 137.087 438.003 137.264 437.871 137.407C437.534 137.768 436.958 137.795 436.502 137.974C435.392 138.398 434.675 139.741 433.469 139.727C433.161 139.71 432.865 139.599 432.62 139.41C432.376 139.221 432.194 138.962 432.1 138.668C432.072 138.767 432.05 138.867 432.036 138.969C432.023 139.169 432.049 139.369 432.114 139.559C432.179 139.748 432.281 139.923 432.414 140.073C432.547 140.223 432.708 140.345 432.889 140.432C433.069 140.519 433.265 140.57 433.465 140.581C434.657 140.581 435.387 139.252 436.497 138.832C436.954 138.654 437.511 138.627 437.867 138.266C438.001 138.092 438.096 137.892 438.145 137.678C438.194 137.465 438.195 137.243 438.15 137.028C438.145 136.974 438.136 136.937 438.132 136.896Z" fill="black"/>
<path opacity="0.1" d="M432.406 136.517C432.292 135.686 431.287 135.348 430.757 134.69C430.432 134.258 430.256 133.733 430.255 133.192C430.218 134.042 430.232 134.909 430.757 135.549C431.282 136.188 432.081 136.462 432.337 137.12C432.402 136.926 432.425 136.72 432.406 136.517Z" fill="black"/>
<path opacity="0.1" d="M430.282 131.736C430.319 130.708 430.072 129.453 429.109 129.101C428.826 128.996 428.511 128.982 428.232 128.868C427.474 128.548 427.237 127.608 426.734 126.959C425.716 125.658 423.702 125.681 422.168 126.302C421.483 126.58 420.83 126.95 420.118 127.16C419.767 127.284 419.396 127.333 419.025 127.306C418.655 127.278 418.295 127.174 417.967 127C417.665 126.809 417.419 126.544 417.113 126.352C416.076 125.731 414.725 126.352 413.834 127.151C412.944 127.95 412.222 129.019 411.094 129.512C410.583 129.74 409.962 129.877 409.697 130.37C409.581 130.639 409.532 130.932 409.555 131.224C409.555 131.402 409.555 131.581 409.555 131.759C409.561 131.575 409.607 131.394 409.688 131.229C409.953 130.736 410.574 130.599 411.085 130.37C412.19 129.877 412.912 128.827 413.825 128.01C414.738 127.192 416.067 126.589 417.104 127.211C417.41 127.393 417.656 127.667 417.958 127.854C418.285 128.029 418.646 128.134 419.016 128.161C419.386 128.189 419.759 128.139 420.108 128.014C420.806 127.766 421.491 127.481 422.159 127.16C423.688 126.539 425.702 126.512 426.725 127.813C427.227 128.462 427.465 129.402 428.223 129.722C428.501 129.841 428.816 129.854 429.1 129.959C429.88 130.252 430.191 131.128 430.259 131.996L430.282 131.736Z" fill="black"/>
</g>
<g opacity="0.1">
<path opacity="0.1" d="M407.793 136.517C407.819 135.759 408.09 135.03 408.566 134.44C409.042 133.849 409.697 133.429 410.432 133.243C412.468 132.745 414.604 132.842 416.587 133.521C420.921 134.955 416.039 140.115 416.039 140.115C416.039 140.115 412.793 143.312 409.765 141.079C408.871 140.403 408.245 139.432 407.998 138.339C407.85 137.743 407.781 137.131 407.793 136.517Z" fill="black"/>
<path opacity="0.1" d="M431.616 136.517C431.589 135.758 431.317 135.029 430.84 134.439C430.363 133.848 429.708 133.428 428.972 133.243C426.937 132.746 424.802 132.843 422.821 133.521C418.487 134.955 423.369 140.115 423.369 140.115C423.369 140.115 426.611 143.312 429.643 141.079C430.537 140.403 431.163 139.432 431.41 138.339C431.558 137.743 431.627 137.131 431.616 136.517Z" fill="black"/>
<path opacity="0.1" d="M415.77 133.101V133.316H423.684V133.06L415.77 133.101Z" fill="black"/>
<path opacity="0.1" d="M418.296 135.389H418.547V134.663C418.547 134.663 419.35 134.037 420.684 134.663V135.311H421.14V134.887H420.917C420.917 134.887 421.008 134.005 419.519 134.147C419.519 134.147 418.323 134.033 418.35 134.791H418.076L418.296 135.389Z" fill="black"/>
</g>
<path d="M56.2304 208.771H53.6367V267.175H56.2304V208.771Z" fill="#535461"/>
<path d="M72.5324 266.997L72.3681 269.627L72.1397 273.34L72.0438 274.888L71.8155 278.605L71.7151 280.153L71.4867 283.865L68.8702 326.091C68.7586 327.908 67.9581 329.614 66.6318 330.861C65.3056 332.109 63.5536 332.803 61.7329 332.803H48.1342C46.314 332.803 44.5625 332.109 43.237 330.861C41.9115 329.614 41.112 327.908 41.0015 326.091L38.3713 283.865L38.1429 280.153L38.047 278.605L37.8233 274.879L37.7274 273.331L37.4991 269.618L37.3347 266.988C37.3035 266.483 37.376 265.977 37.5479 265.502C37.7197 265.026 37.9871 264.59 38.3337 264.222C38.6802 263.854 39.0985 263.56 39.5629 263.36C40.0272 263.159 40.5277 263.056 41.0335 263.056H68.8382C69.3446 263.056 69.8457 263.159 70.3105 263.36C70.7752 263.562 71.1938 263.856 71.5401 264.225C71.8864 264.595 72.1532 265.031 72.3239 265.508C72.4946 265.985 72.5656 266.492 72.5324 266.997Z" fill="#F41971"/>
<path d="M72.3682 269.627L72.1399 273.34H37.7229L37.4946 269.627H72.3682Z" fill="#DF1667"/>
<path d="M72.044 274.888L71.8157 278.605H38.0517L37.8188 274.888H72.044Z" fill="#DF1667"/>
<path d="M71.715 280.153L71.4867 283.865H38.3803L38.1475 280.153H71.715Z" fill="#DF1667"/>
<path d="M33.5356 230.662C48.6412 241.59 54.9337 258.686 54.9337 258.686C54.9337 258.686 36.7275 258.061 21.5991 247.133C6.47059 236.206 0.200928 219.109 0.200928 219.109C0.200928 219.109 18.4254 219.735 33.5356 230.662Z" fill="#00C3F7"/>
<path d="M0.223633 219.109C0.223633 219.109 19.1194 229.612 25.179 238.288C31.2386 246.964 54.9336 258.691 54.9336 258.691" stroke="#535461" stroke-width="0.913279" stroke-miterlimit="10"/>
<path d="M43.2848 208.666C51.5043 214.602 54.9337 223.918 54.9337 223.918C54.9337 223.918 45.0246 223.58 36.8006 217.63C28.5765 211.68 25.1562 202.378 25.1562 202.378C25.1562 202.378 35.0653 202.693 43.2848 208.666Z" fill="#00C3F7"/>
<path d="M25.1562 202.355C25.1562 202.355 35.4398 208.063 38.7367 212.789C42.0336 217.516 54.9337 223.895 54.9337 223.895" stroke="#535461" stroke-width="0.913279" stroke-miterlimit="10"/>
<path d="M66.8838 223.425C57.4359 233.804 55.4404 247.366 55.4404 247.366C55.4404 247.366 68.756 244.101 78.1993 233.722C87.6426 223.342 89.6427 209.776 89.6427 209.776C89.6427 209.776 76.3271 213.041 66.8838 223.425Z" fill="#00C3F7"/>
<path d="M89.6427 209.776C89.6427 209.776 77.3409 220.415 74.2129 227.749C71.0849 235.083 55.4404 247.384 55.4404 247.384" stroke="#535461" stroke-width="0.913279" stroke-miterlimit="10"/>
</g>
<defs>
<linearGradient id="paint0_linear" x1="270.011" y1="295.026" x2="270.011" y2="49.2029" gradientUnits="userSpaceOnUse">
<stop stop-color="#808080" stop-opacity="0.25"/>
<stop offset="0.54" stop-color="#808080" stop-opacity="0.12"/>
<stop offset="1" stop-color="#808080" stop-opacity="0.1"/>
</linearGradient>
<linearGradient id="paint1_linear" x1="84037" y1="220754" x2="84037" y2="74796.6" gradientUnits="userSpaceOnUse">
<stop stop-color="#808080" stop-opacity="0.25"/>
<stop offset="0.54" stop-color="#808080" stop-opacity="0.12"/>
<stop offset="1" stop-color="#808080" stop-opacity="0.1"/>
</linearGradient>
<clipPath id="clip0">
<rect width="523.112" height="374.403" fill="white"/>
</clipPath>
</defs>
</svg>
