<svg width="1007" height="700" viewBox="0 0 1007 700" fill="none" xmlns="http://www.w3.org/2000/svg">
<path d="M744.622 -326.056C802.219 -242.614 817.725 -137.021 847.262 -50.626C876.06 35.0304 918.15 102.226 955.071 190.098C991.992 277.97 1023.74 387.255 997.161 478.081C971.316 569.644 887.136 642.748 792.619 676.715C698.102 710.682 593.246 704.775 507.59 670.069C422.672 634.625 357.691 570.383 272.035 531.985C185.64 492.849 79.3081 479.558 32.0494 423.438C-14.4709 367.318 -1.17938 267.632 15.0658 178.283C30.5726 88.1964 49.7714 7.70895 77.0929 -83.1164C103.676 -173.203 139.12 -273.628 209.27 -349.685C278.681 -425.742 383.536 -478.17 485.438 -473.739C587.339 -470.047 686.287 -408.758 744.622 -326.056Z" fill="#00C3F7" fill-opacity="0.05"/>
</svg>
